<?xml version="1.0" encoding="UTF-8" standalone="no"?>
<!-- Created with Inkscape (http://www.inkscape.org/) -->

<svg
   width="210mm"
   height="297mm"
   viewBox="0 0 210 297"
   version="1.1"
   id="svg1"
   xml:space="preserve"
   inkscape:version="1.3.2 (091e20e, 2023-11-25, custom)"
   sodipodi:docname="armor.svg"
   xmlns:inkscape="http://www.inkscape.org/namespaces/inkscape"
   xmlns:sodipodi="http://sodipodi.sourceforge.net/DTD/sodipodi-0.dtd"
   xmlns="http://www.w3.org/2000/svg"
   xmlns:svg="http://www.w3.org/2000/svg"><sodipodi:namedview
     id="namedview1"
     pagecolor="#505050"
     bordercolor="#ffffff"
     borderopacity="1"
     inkscape:showpageshadow="0"
     inkscape:pageopacity="0"
     inkscape:pagecheckerboard="1"
     inkscape:deskcolor="#505050"
     inkscape:document-units="mm"
     inkscape:zoom="0.52347032"
     inkscape:cx="442.24093"
     inkscape:cy="700.13521"
     inkscape:window-width="1920"
     inkscape:window-height="1027"
     inkscape:window-x="4152"
     inkscape:window-y="1167"
     inkscape:window-maximized="1"
     inkscape:current-layer="layer1" /><defs
     id="defs1" /><g
     inkscape:label="Layer 1"
     inkscape:groupmode="layer"
     id="layer1"><path
       style="fill:#333333;fill-opacity:1"
       d="m 102.48443,259.07071 c -4.613518,-1.52605 -9.287488,-3.9765 -13.103958,-6.87008 l -2.08478,-1.58064 -0.0126,-10.93972 c -0.0144,-12.52995 -0.0757,-12.97134 -2.4205,-17.41849 l -1.22572,-2.32471 1.50549,-7.90139 c 0.82801,-4.34576 2.06629,-10.93748 2.75173,-14.64827 l 1.24625,-6.74687 0.78504,0.0523 c 9.52143,0.63462 17.845368,0.74393 25.369468,0.33316 3.38134,-0.18461 5.05906,-0.18623 5.17106,-0.005 0.0912,0.14755 0.43921,1.78917 0.77338,3.64806 0.33417,1.85889 1.49346,8.08277 2.57621,13.83084 1.08274,5.74808 1.99987,10.62964 2.03808,10.84792 0.0382,0.21828 -0.49851,1.53997 -1.19269,2.93709 -2.17696,4.38135 -2.17661,4.37864 -2.21786,17.14321 l -0.0362,11.21675 -1.56068,1.18281 c -3.80221,2.88161 -8.04542,5.21852 -12.01172,6.61534 -3.07243,1.08201 -4.53839,1.22692 -6.35,0.62768 z m -35.851038,-6.23413 c -9.55518,-2.47371 -20.95922,-7.78838 -28.21956,-13.15127 -2.41077,-1.78072 -3.66273,-3.21073 -3.66273,-4.18363 0,-2.03031 2.3118,-22.16133 2.60439,-22.67885 0.11646,-0.20599 0.87144,0.13108 2.2904,1.02258 3.15192,1.98031 10.54892,5.50121 15.34583,7.30447 4.88966,1.83814 10.8454,3.60511 16.13958,4.78836 2.03729,0.45534 3.98173,0.88987 4.32097,0.96563 0.71479,0.15963 0.73944,-0.16774 -0.48681,6.46688 -0.41688,2.25557 -1.36666,7.43479 -2.11062,11.50937 -0.74396,4.07458 -1.46331,7.67622 -1.59857,8.00365 -0.32338,0.78283 -1.46167,0.77121 -4.62288,-0.0472 z m 71.747948,0.44406 c -0.0647,-0.10914 -0.4235,-1.92484 -0.79732,-4.0349 -0.37383,-2.11005 -1.35128,-7.52739 -2.17213,-12.03854 -0.82085,-4.51114 -1.55327,-8.68276 -1.6276,-9.27025 l -0.13515,-1.06817 2.06953,-0.34774 c 4.90511,-0.8242 13.59359,-3.25585 19.41784,-5.43447 4.16744,-1.55888 11.03302,-4.88081 14.53466,-7.03265 1.47734,-0.90785 2.73498,-1.60173 2.79476,-1.54195 0.1128,0.1128 1.04373,7.66207 1.97634,16.02682 0.29589,2.65393 0.53799,5.53121 0.53799,6.39395 v 1.56861 l -1.61738,1.46364 c -3.45729,3.12867 -10.5858,7.42665 -16.97856,10.23686 -7.36304,3.23673 -17.41401,6.0722 -18.00298,5.07879 z M 76.158392,223.41493 c -12.82356,-2.60161 -19.9938,-4.88323 -28.3062,-9.00723 -3.31521,-1.64477 -7.46535,-4.15928 -9.46303,-5.73351 -0.43304,-0.34125 -0.33674,-0.72229 1.48903,-5.89196 2.67613,-7.57744 5.26757,-14.52116 6.42421,-17.21356 0.83289,-1.93876 1.04329,-2.23322 1.52068,-2.1282 0.30473,0.067 2.87578,0.72983 5.71343,1.47287 9.42196,2.46715 20.6451,4.43834 29.69948,5.21631 1.75831,0.15108 2.05052,0.24621 2.05052,0.66756 0,0.76241 -5.83508,31.19313 -6.24826,32.58552 -0.15911,0.53618 -0.38335,0.53869 -2.87986,0.0322 z m 54.251008,0.10009 c -0.0573,-0.1819 -0.35707,-1.69995 -0.66608,-3.37344 -0.30901,-1.67349 -0.85278,-4.53099 -1.20839,-6.35 -1.77475,-9.07837 -4.09008,-21.871 -4.09008,-22.59843 v -0.821 l 4.39967,-0.47753 c 11.29583,-1.22603 24.01663,-3.63273 31.8291,-6.02186 0.93536,-0.28605 1.79118,-0.42813 1.90183,-0.31573 0.63858,0.64864 4.50514,10.7647 7.40997,19.38663 l 1.82738,5.42396 -0.78998,0.67444 c -1.2973,1.10754 -7.34571,4.63792 -10.42196,6.08315 -6.82979,3.20867 -15.8555,6.03791 -25.24604,7.91372 -4.56426,0.91174 -4.80091,0.93453 -4.94542,0.47609 z M 94.811512,187.33576 c -13.94662,-0.75063 -28.18578,-2.73141 -38.1,-5.30003 -5.02388,-1.3016 -11.11294,-3.24704 -11.10593,-3.54831 0.0107,-0.46152 2.31199,-9.43593 2.4567,-9.58064 0.0732,-0.0732 1.12645,0.18235 2.34061,0.56782 5.17086,1.64162 17.09683,4.17038 23.66217,5.01728 1.73341,0.2236 3.44931,0.46702 3.81312,0.54091 1.94719,0.39553 12.79467,1.20701 19.71504,1.47484 18.761208,0.72612 38.603898,-1.18599 55.187758,-5.31807 2.26971,-0.56553 5.21559,-1.37838 6.54639,-1.80635 l 2.41964,-0.77811 0.26231,0.96355 c 0.14427,0.52996 0.7255,2.78791 1.29161,5.01768 l 1.02929,4.05413 -0.60473,0.22991 c -0.3326,0.12646 -2.13329,0.70896 -4.00154,1.29446 -11.16867,3.50017 -23.89025,5.71772 -39.64473,6.91063 -4.98171,0.37721 -20.185428,0.53384 -25.267708,0.2603 z m 1.32292,-14.46278 c -4.03176,-0.166 -11.52358,-0.68556 -15.08125,-1.04588 -12.43202,-1.25912 -29.81523,-4.9433 -30.28335,-6.41822 -0.11328,-0.3569 -1.72725,-9.68608 -1.73073,-10.00404 -2.8e-4,-0.0254 0.62457,0.17277 1.38856,0.44031 7.43587,2.60394 19.7115,2.40067 31.32162,-0.51864 7.37123,-1.85346 15.75104,-4.93761 21.059238,-7.75076 l 2.04388,-1.08317 4.43841,2.14282 c 7.01012,3.38442 14.54236,5.89746 22.32055,7.44699 6.03192,1.20165 8.54037,1.45819 14.39703,1.4724 5.66289,0.0137 8.50458,-0.29521 12.29118,-1.33629 1.23036,-0.33827 2.27667,-0.57538 2.32515,-0.52691 0.111,0.11101 -1.49624,9.6942 -1.67414,9.98205 -0.0721,0.1167 -1.28722,0.56587 -2.70021,0.99814 -10.04762,3.07387 -24.82157,5.36016 -39.4268,6.10134 -4.76285,0.2417 -15.93453,0.29562 -20.689138,0.0999 z m -37.57084,-18.85981 c -3.6349,-0.3892 -6.79328,-1.16936 -8.78725,-2.17056 -1.17071,-0.58783 -1.082,-0.30943 -2.72845,-8.56248 -0.6677,-3.34698 -1.27594,-6.33808 -1.35163,-6.64688 l -0.13762,-0.56145 2.13465,0.61828 c 4.02541,1.16592 6.52344,1.49023 12.4578,1.61733 4.6682,0.1 6.42414,0.027 9.78959,-0.407 10.56765,-1.36273 21.52248,-4.64838 31.167458,-9.34797 l 3.78309,-1.84333 3.75754,1.84492 c 5.68243,2.79003 13.31061,5.56971 19.68599,7.17351 12.711,3.19758 25.69045,3.52222 34.14394,0.85398 1.27452,-0.40228 1.65364,-0.44245 1.65364,-0.1752 0,0.38645 -1.8916,9.71916 -2.48875,12.27894 -0.50805,2.17782 -0.92692,2.74918 -2.62426,3.57961 -4.4251,2.165 -14.65805,2.55532 -24.20462,0.92325 -4.8843,-0.83501 -11.3058,-2.48669 -15.42699,-3.96798 -3.93741,-1.41523 -10.77221,-4.57127 -13.03957,-6.02116 l -1.29565,-0.82851 -1.0856,0.66653 c -5.613238,3.44643 -15.931968,7.40353 -24.044848,9.22088 -6.83836,1.53185 -16.23383,2.30399 -21.35846,1.75529 z m -3.57187,-19.2493 c -4.20432,-0.54345 -10.08131,-2.23296 -10.30345,-2.96204 -0.0717,-0.23537 -0.43437,-2.08628 -0.8059,-4.11313 -0.70281,-3.83408 -0.67483,-4.10556 0.42432,-4.11598 0.23511,-0.002 1.25891,-0.42 2.27511,-0.92839 1.7608,-0.88089 3.59636,-2.53258 4.97504,-4.47667 l 0.53388,-0.75282 2.24425,0.32279 c 4.01398,0.57734 12.36048,0.66079 16.70019,0.16697 7.17124,-0.81601 15.0026,-2.73412 22.4085,-5.48845 3.92464,-1.4596 8.624128,-3.51562 10.099098,-4.41833 0.50933,-0.31172 1.08489,-0.5672 1.27904,-0.56775 0.19414,-5.4e-4 1.88251,0.71421 3.75192,1.58833 10.38693,4.85683 21.68012,7.98598 32.53987,9.01621 3.81789,0.3622 11.52874,0.16315 14.51096,-0.37458 l 1.94324,-0.35038 0.70259,0.94624 c 2.02858,2.73209 4.82255,4.73021 7.25103,5.18561 0.5457,0.10233 0.99218,0.33283 0.99218,0.51221 0,0.17938 -0.35718,2.08971 -0.79375,4.24517 -0.43656,2.15546 -0.79375,3.95015 -0.79375,3.98821 0,0.038 -1.10132,0.43424 -2.44739,0.88041 -4.05723,1.34482 -6.19096,1.65882 -12.23698,1.80081 -4.68412,0.11 -6.23934,0.0414 -9.90816,-0.43717 -12.39935,-1.61731 -24.79888,-5.5826 -33.13525,-10.59642 -1.21019,-0.72786 -2.27747,-1.3236 -2.37173,-1.32388 -0.0943,-2.8e-4 -0.93231,0.46176 -1.8623,1.02675 -8.829808,5.3643 -21.956478,9.58842 -34.212608,11.00953 -3.10959,0.36056 -11.6113,0.49448 -13.75995,0.21675 z m -15.88812,-14.99049 c -1.8401,-0.83904 -2.56809,-2.33639 -4.51454,-9.28573 -0.65459,-2.33706 -1.24227,-4.42963 -1.30595,-4.65017 -0.1004,-0.34768 0.52579,-0.40175 4.71099,-0.40677 5.2682,-0.006 8.10476,-0.40761 11.25006,-1.5915 l 1.72685,-0.64998 -0.16505,2.58295 c -0.1743,2.72762 -1.09278,6.94714 -2.02956,9.32376 -1.25985,3.19626 -3.4859,4.77054 -6.99937,4.95001 -1.21862,0.0623 -2.14665,-0.0324 -2.67343,-0.27257 z m 126.256428,-0.0761 c -1.90796,-0.586 -3.58019,-2.37823 -4.47612,-4.79733 -0.87567,-2.36439 -1.67929,-6.298 -1.92666,-9.43075 -0.17682,-2.23923 -0.16128,-2.34672 0.31168,-2.15564 4.13752,1.67159 6.84296,2.12844 12.47018,2.10573 2.65576,-0.0107 4.82865,0.007 4.82865,0.0388 0,0.0321 -0.59574,2.15894 -1.32386,4.72638 -2.11727,7.46571 -2.97012,9.1132 -5.0111,9.68019 -1.32138,0.36708 -3.36065,0.29702 -4.87277,-0.16741 z m -104.711568,-5.1493 c -1.39995,-0.0964 -3.57584,-0.32161 -4.83533,-0.5004 l -2.28999,-0.32506 0.14106,-0.83162 c 0.26337,-1.55277 0.66606,-7.64464 0.66606,-10.07609 v -2.42075 l 1.28097,-0.976878 c 1.97891,-1.50914 7.11902,-6.68606 9.1207,-9.18602 1.94017,-2.42315 4.00734,-5.695487 4.91516,-7.780731 1.24793,-2.866487 1.35192,-3.844981 1.35192,-12.7213 v -8.387093 l 1.89698,1.756316 c 5.13578,4.754944 14.77693,8.991462 25.37607,11.150767 6.195008,1.262074 11.175138,0.912426 18.973158,-1.332078 8.46256,-2.435779 15.43212,-5.904702 19.94203,-9.925638 0.82368,-0.734379 1.56782,-1.335236 1.65364,-1.335236 0.0858,0 0.1567,3.839766 0.15751,8.532812 8.8e-4,5.092517 0.11324,8.959516 0.27868,9.591146 0.81262,3.10256 2.82883,6.845775 5.52826,10.263595 2.14244,2.71259 6.47422,7.19428 8.7655,9.06884 l 1.83025,1.497398 0.005,2.81425 c 0.003,1.54784 0.17428,4.47855 0.38056,6.51268 0.20629,2.03414 0.35134,3.72216 0.32233,3.75117 -0.30416,0.30416 -6.89643,0.88478 -10.04567,0.88478 -12.12697,0 -27.15268,-3.81754 -38.46421,-9.77247 -1.39998,-0.73702 -2.6367,-1.34003 -2.74827,-1.34003 -0.11157,0 -1.06603,0.48913 -2.12102,1.08695 -4.550998,2.57889 -11.371058,5.27015 -18.369838,7.24893 -7.48123,2.11518 -16.96914,3.21625 -23.71201,2.75177 z M 35.941722,101.988 c -0.43656,-0.0577 -1.98437,-0.23834 -3.43958,-0.40136 -6.75136,-0.7563 -18.52806,-4.062718 -22.30799,-6.263168 -2.1857497,-1.27242 -2.3129297,-2.12723 -0.9564497,-6.42894 1.0467997,-3.319657 1.6508097,-4.484293 2.3253497,-4.483696 0.31139,2.75e-4 2.36777,0.65039 4.56972,1.444699 10.14037,3.657927 22.4588,5.974837 26.85269,5.050577 3.10045,-0.65219 5.91584,-2.39709 9.57585,-5.93486 1.66217,-1.60666 4.11889,-4.521482 4.70978,-5.588 0.29924,-0.540116 0.39073,-4.18901 0.49875,-19.890686 0.13007,-18.905993 0.14148,-19.241781 0.67854,-19.976041 1.30792,-1.788174 4.83641,-2.47531 6.97889,-1.359066 0.64633,0.336739 1.42023,0.948446 1.71979,1.359349 0.53805,0.738035 0.54466,0.981896 0.54466,20.108332 v 19.361237 l -0.71709,1.789493 c -2.00478,5.00296 -7.69618,11.546612 -14.08538,16.194582 -3.52737,2.56606 -5.71379,3.733188 -8.17068,4.361558 -1.94685,0.49792 -7.07423,0.88114 -8.77685,0.65599 z M 167.9264,101.87789 c -2.26945,-0.25316 -4.09444,-0.82011 -6.53508,-2.030168 -6.79661,-3.36971 -14.95288,-11.50227 -18.13594,-18.08322 l -1.21574,-2.513542 -0.0717,-19.314582 c -0.0685,-18.462477 -0.0498,-19.355146 0.42475,-20.23403 0.69901,-1.29466 2.37179,-2.123261 4.28645,-2.123261 1.82125,0 3.02746,0.466653 4.09174,1.582987 l 0.79375,0.832579 0.13229,19.254509 0.13229,19.254508 1.03201,1.56427 c 2.2036,3.340098 7.91511,8.304872 11.46624,9.967122 1.63242,0.76413 2.06896,0.84687 4.98043,0.94397 6.08994,0.20312 14.76691,-1.67135 24.37076,-5.264783 3.80738,-1.424592 4.79381,-1.567208 5.49335,-0.794217 0.56718,0.626718 2.23856,5.53589 2.4388,7.16322 0.29645,2.40914 -1.2722,3.35806 -10.27995,6.21864 -8.64105,2.744128 -18.01806,4.176858 -23.40446,3.575998 z M 37.529222,89.003912 c -2.43501,-0.2631 -7.3795,-1.23916 -10.71562,-2.1153 -4.41166,-1.158595 -10.77902,-3.211069 -10.98236,-3.540089 -0.22371,-0.361964 1.8017,-8.439555 2.91216,-11.614083 1.04294,-2.981498 2.73743,-6.525493 4.27888,-8.9492 5.47918,-8.615188 12.52257,-13.533257 22.59704,-15.778445 2.87846,-0.64149 9.71008,-1.641962 9.89472,-1.449053 0.048,0.05013 0.12806,7.29809 0.17797,16.106589 l 0.0907,16.015454 -0.86367,1.345917 c -0.96419,1.502562 -5.22878,5.74334 -7.47643,7.43468 -2.37156,1.78459 -4.11616,2.45684 -6.65546,2.56457 -1.2098,0.0513 -2.67589,0.0419 -3.25797,-0.021 z m 129.835528,-0.12567 c -1.84551,-0.30728 -2.91219,-0.87942 -5.75612,-3.08746 -2.90218,-2.253253 -5.44393,-4.765243 -6.6597,-6.581729 l -0.91348,-1.364823 0.0304,-16.084648 c 0.0167,-8.846557 0.0706,-16.124827 0.11967,-16.173933 0.27028,-0.270275 7.91599,0.88814 10.88612,1.649373 9.30904,2.385874 15.9299,6.952752 20.89729,14.414361 3.11404,4.677644 5.16805,9.596077 6.85346,16.410952 1.41187,5.708836 1.44201,5.164516 -0.32316,5.835638 -6.50394,2.472819 -13.98853,4.346979 -19.95592,4.996999 -2.88255,0.31399 -3.20983,0.31306 -5.17854,-0.0147 z M 102.48443,71.283669 C 94.134042,70.577188 85.499352,68.00611 79.495272,64.438385 c -3.36604,-2.000157 -4.95234,-3.352715 -6.47746,-5.523018 -2.12017,-3.01709 -2.52206,-5.162529 -1.61952,-8.645573 0.64732,-2.498079 1.42245,-3.948789 2.90756,-5.441685 2.48643,-2.499462 4.16308,-2.443329 5.03056,0.168421 0.68126,2.051085 2.86681,5.118102 4.71753,6.6202 3.22617,2.618443 8.55375,4.727522 14.06486,5.567992 3.172128,0.483763 10.551628,0.408431 14.022918,-0.143151 6.18179,-0.982272 10.7757,-3.113351 14.31429,-6.640281 1.75958,-1.753774 2.36921,-2.594277 3.40395,-4.693026 1.3328,-2.703323 1.68254,-3.005904 3.11156,-2.692039 1.1593,0.254626 3.64853,2.812647 4.49287,4.617028 0.95172,2.033858 1.63019,5.035861 1.46645,6.488525 -0.67536,5.991839 -9.38632,12.20961 -21.62974,15.439042 -4.75628,1.254557 -11.32454,2.0183 -14.81667,1.722849 z"
       id="path1" /></g></svg>
