<?xml version="1.0" encoding="UTF-8" standalone="no"?>
<!-- Created with Inkscape (http://www.inkscape.org/) -->

<svg
   width="100mm"
   height="100mm"
   viewBox="0 0 100 100"
   version="1.1"
   id="svg1"
   xml:space="preserve"
   inkscape:version="1.3.2 (091e20e, 2023-11-25, custom)"
   sodipodi:docname="dviation.svg"
   xmlns:inkscape="http://www.inkscape.org/namespaces/inkscape"
   xmlns:sodipodi="http://sodipodi.sourceforge.net/DTD/sodipodi-0.dtd"
   xmlns="http://www.w3.org/2000/svg"
   xmlns:svg="http://www.w3.org/2000/svg"><sodipodi:namedview
     id="namedview1"
     pagecolor="#505050"
     bordercolor="#ffffff"
     borderopacity="1"
     inkscape:showpageshadow="0"
     inkscape:pageopacity="0"
     inkscape:pagecheckerboard="1"
     inkscape:deskcolor="#505050"
     inkscape:document-units="mm"
     inkscape:zoom="1.4520903"
     inkscape:cx="132.22318"
     inkscape:cy="215.20699"
     inkscape:window-width="2560"
     inkscape:window-height="1417"
     inkscape:window-x="1592"
     inkscape:window-y="1072"
     inkscape:window-maximized="1"
     inkscape:current-layer="layer1" /><defs
     id="defs1" /><g
     inkscape:label="Layer 1"
     inkscape:groupmode="layer"
     id="layer1"><path
       id="path6"
       style="fill:#ffffff;fill-opacity:1;stroke-width:1.04427"
       d="M 50.000566 1.3782104 C 49.959476 1.3767812 40.123902 15.589839 40.119515 15.656925 C 40.118415 15.674685 41.948882 15.689482 44.186967 15.689482 L 48.256486 15.689482 L 48.257003 42.075468 C 48.257035 44.647719 48.263121 43.649586 48.263721 45.82821 C 44.569229 42.144014 38.035533 35.610368 37.948588 35.547701 C 37.945688 35.545601 37.942903 35.544633 37.939803 35.542533 L 26.941508 24.53597 L 29.834871 21.642607 C 31.425757 20.051721 32.716064 18.741059 32.702397 18.729606 C 32.650847 18.686626 15.649343 15.59061 15.619202 15.618685 C 15.589122 15.646705 18.685266 32.651852 18.729606 32.702397 C 18.741386 32.715777 20.045576 31.431902 21.628137 29.849341 L 24.505481 26.971997 L 43.163774 45.628739 C 44.982216 47.447144 44.280344 46.737864 45.820976 48.277673 C 40.604336 48.284973 31.364857 48.285358 31.259074 48.302478 C 31.255574 48.303069 31.252805 48.304462 31.249255 48.305062 L 15.689482 48.298344 L 15.689482 44.207638 C 15.689482 41.957789 15.675202 40.117949 15.657442 40.119515 C 15.590592 40.125515 1.3796718 49.958366 1.3782104 49.999532 C 1.3767512 50.040612 15.590347 59.875164 15.657442 59.879549 C 15.675202 59.880649 15.689482 58.051208 15.689482 55.813131 L 15.689482 51.743612 L 42.075468 51.743095 C 44.647349 51.743062 43.649319 51.736977 45.827694 51.736377 C 42.143794 55.430557 35.610367 61.964568 35.547701 62.05151 C 35.545601 62.05441 35.544633 62.057195 35.542533 62.060295 L 24.53597 73.05859 L 21.642607 70.165226 C 20.051721 68.574347 18.741059 67.283517 18.729606 67.297184 C 18.686626 67.348734 15.590609 84.350753 15.618685 84.380896 C 15.646705 84.410976 32.651853 81.314824 32.702397 81.270492 C 32.715777 81.258712 31.431902 79.954529 29.849341 78.37196 L 26.971997 75.494617 L 45.628739 56.836324 C 47.447303 55.017723 46.737755 55.719347 48.277673 54.178605 C 48.284973 59.39564 48.285358 68.635236 48.302478 68.741024 C 48.303062 68.744524 48.304462 68.747292 48.305062 68.750842 L 48.298344 84.310616 L 44.207638 84.310616 C 41.957789 84.310616 40.117949 84.324895 40.119515 84.342655 C 40.125515 84.409505 49.958366 98.620425 49.999532 98.621887 C 50.040612 98.623287 59.875164 84.40975 59.879549 84.342655 C 59.880649 84.324895 58.051208 84.310616 55.813131 84.310616 L 51.743612 84.310616 L 51.743095 57.92463 C 51.743063 55.352742 51.736977 56.350779 51.736377 54.172404 C 55.430467 57.856207 61.964056 64.389737 62.050993 64.452397 C 62.053593 64.454197 62.056478 64.455064 62.059778 64.457564 L 73.058073 75.464644 L 70.165226 78.356458 C 68.574347 79.947339 67.284043 81.259044 67.297701 81.270492 C 67.349251 81.313454 84.350243 84.409498 84.380379 84.381413 C 84.410189 84.353073 81.314317 67.348246 81.269975 67.297701 C 81.258195 67.284331 79.954005 68.568191 78.371444 70.150757 L 75.4941 73.028101 L 56.835807 54.371358 C 55.017364 52.552961 55.719237 53.26224 54.178605 51.722424 C 59.395641 51.715124 68.63472 51.71475 68.740507 51.69762 C 68.744007 51.697028 68.747292 51.695636 68.750842 51.695036 L 84.310616 51.701754 L 84.310616 55.791943 C 84.310619 58.041794 84.325412 59.881629 84.343172 59.880066 C 84.410042 59.874066 98.62043 50.041735 98.621887 50.000566 C 98.623287 49.959446 84.410267 40.123902 84.343172 40.119515 C 84.325412 40.118415 84.310616 41.948882 84.310616 44.186967 L 84.310616 48.256486 L 57.92463 48.257003 C 55.352741 48.257035 56.350778 48.263121 54.172404 48.263721 C 57.856296 44.569533 64.389732 38.035528 64.452397 37.948588 C 64.454497 37.945688 64.455464 37.942903 64.457564 37.939803 L 75.464644 26.942025 L 78.356458 29.834871 C 79.947336 31.425757 81.258522 32.716064 81.269975 32.702397 C 81.312965 32.650837 84.409488 15.649859 84.381413 15.619718 C 84.353363 15.589658 67.348247 18.685265 67.297701 18.729606 C 67.284321 18.741386 68.56819 20.045576 70.150757 21.628137 L 73.028101 24.505998 L 54.371358 43.163774 C 52.5528 44.982375 53.26235 44.280749 51.722424 45.821493 C 51.715124 40.604457 51.71475 31.364861 51.69762 31.259074 C 51.697037 31.255574 51.695636 31.252805 51.695036 31.249255 L 51.701754 15.689482 L 55.791943 15.689482 C 58.041793 15.689482 59.881632 15.674685 59.880066 15.656925 C 59.874066 15.590073 50.041732 1.3796723 50.000566 1.3782104 z M 50.211922 7.2419352 L 51.032027 7.2419352 L 51.032027 12.819889 L 49.639864 12.819889 L 49.639864 9.8293742 C 49.639864 9.3975918 49.629529 9.1378854 49.608858 9.0506104 C 49.588188 8.9633346 49.530942 8.8978778 49.436776 8.8542399 C 49.344907 8.808306 49.138194 8.7855103 48.816659 8.7855103 L 48.678682 8.7855103 L 48.678682 8.1343872 C 49.351624 7.9896946 49.862826 7.6920914 50.211922 7.2419352 z M 77.632471 18.782316 C 78.185977 18.782316 78.603643 18.92012 78.886141 19.195728 C 79.170935 19.469032 79.313505 19.815679 79.313505 20.235974 C 79.313505 20.55522 79.232947 20.892845 79.072176 21.248832 C 78.913702 21.604825 78.444359 22.360628 77.663477 23.515877 L 79.189482 23.515877 L 79.189482 24.466724 L 76.126619 24.466724 L 76.126619 23.670907 C 77.033828 22.187225 77.572584 21.269503 77.742542 20.918103 C 77.91479 20.564407 78.000924 20.288799 78.000924 20.09128 C 78.000924 19.939696 77.974684 19.827328 77.921859 19.753833 C 77.871331 19.678041 77.792897 19.640145 77.687248 19.640145 C 77.581598 19.640145 77.502361 19.681486 77.449536 19.764168 C 77.399008 19.846851 77.374089 20.010895 77.374089 20.256645 L 77.374089 20.787362 L 76.126619 20.787362 L 76.126619 20.584273 C 76.126619 20.271924 76.143041 20.025989 76.175195 19.846851 C 76.20735 19.665409 76.286587 19.487584 76.412907 19.313033 C 76.539227 19.138482 76.703277 19.006247 76.905383 18.916675 C 77.107495 18.827102 77.349973 18.782316 77.632471 18.782316 z M 22.210014 19.131132 C 22.823241 19.131132 23.246988 19.258601 23.481254 19.513538 C 23.71552 19.768475 23.832654 20.132334 23.832654 20.605461 C 23.832654 20.906332 23.793437 21.123373 23.715348 21.256584 C 23.639556 21.389794 23.482402 21.522028 23.243542 21.652942 C 23.447951 21.735624 23.605105 21.859648 23.715348 22.025012 C 23.825591 22.18808 23.880713 22.57818 23.880713 23.196 C 23.880713 23.646159 23.837247 23.978209 23.749972 24.191805 C 23.662696 24.405401 23.492565 24.581101 23.239925 24.718905 C 22.987285 24.854412 22.648345 24.921993 22.22345 24.921993 C 21.810038 24.921993 21.482754 24.856536 21.241597 24.725623 C 21.000441 24.594709 20.827382 24.42165 20.721733 24.205758 C 20.61838 23.989865 20.566703 23.630254 20.566703 23.127271 C 20.566703 22.789651 20.591623 22.496818 20.642151 22.248771 C 20.694976 22.000724 20.858216 21.802229 21.131527 21.652942 C 20.959272 21.57026 20.829679 21.439346 20.742403 21.260201 C 20.657424 21.078759 20.614762 20.848742 20.614762 20.570837 C 20.614762 20.090821 20.747801 19.731727 21.014221 19.492867 C 21.280642 19.25171 21.679469 19.131132 22.210014 19.131132 z M 22.220349 19.988961 C 22.12848 19.988961 22.066468 20.022091 22.034314 20.088696 C 22.00216 20.153005 21.985738 20.274904 21.985738 20.454049 L 21.985738 20.877795 C 21.985738 21.045457 22.004284 21.161269 22.041032 21.225578 C 22.07778 21.289886 22.139791 21.322213 22.227067 21.322213 C 22.318936 21.322213 22.380948 21.291207 22.413102 21.229195 C 22.445256 21.164887 22.461161 21.033973 22.461161 20.836454 L 22.461161 20.454049 C 22.461161 20.265717 22.443936 20.141693 22.409485 20.081978 C 22.377331 20.019967 22.314515 19.988961 22.220349 19.988961 z M 22.216732 22.242053 C 22.124863 22.242053 22.058085 22.276504 22.016744 22.345406 C 21.9777 22.412011 21.95835 22.554064 21.95835 22.772253 L 21.95835 23.495723 C 21.95835 23.73688 21.980341 23.891909 22.023979 23.960811 C 22.069913 24.029713 22.14094 24.064164 22.237402 24.064164 C 22.336162 24.064164 22.402939 24.029713 22.43739 23.960811 C 22.471841 23.889613 22.489067 23.731138 22.489067 23.485388 L 22.489067 22.772253 C 22.489067 22.558658 22.467075 22.417409 22.423437 22.348507 C 22.3798 22.277308 22.310898 22.242053 22.216732 22.242053 z M 89.400228 46.701025 C 90.063978 46.701025 90.51397 46.830618 90.750533 47.090149 C 90.987096 47.349679 91.10555 47.710094 91.10555 48.171737 C 91.10555 48.484087 91.062888 48.710664 90.977909 48.850765 C 90.89293 48.988569 90.743466 49.114717 90.529875 49.229553 C 90.741169 49.300752 90.898844 49.417885 91.002197 49.580953 C 91.10555 49.741724 91.157227 50.12069 91.157227 50.717834 C 91.157227 51.161103 91.106354 51.505613 91.005298 51.751363 C 90.904242 51.994816 90.729857 52.180852 90.481816 52.309469 C 90.233769 52.435784 89.915494 52.499121 89.527352 52.499121 C 89.08638 52.499121 88.739746 52.425453 88.487105 52.278463 C 88.236767 52.129175 88.071392 51.947906 87.991012 51.73431 C 87.912923 51.518417 87.873706 51.145021 87.873706 50.614482 L 87.873706 50.173682 L 89.265869 50.173682 L 89.265869 51.079569 C 89.265869 51.320726 89.27965 51.474435 89.30721 51.54104 C 89.337068 51.605348 89.401204 51.637675 89.499963 51.637675 C 89.60791 51.637675 89.678936 51.596329 89.713387 51.513652 C 89.747838 51.430969 89.765063 51.215244 89.765063 50.866146 L 89.765063 50.480123 C 89.765063 50.266527 89.740948 50.110177 89.692716 50.011418 C 89.64449 49.912658 89.573459 49.848522 89.479293 49.818665 C 89.385127 49.78651 89.202532 49.767964 88.931523 49.763371 L 88.931523 48.954118 C 89.262247 48.954118 89.466833 48.941141 89.544922 48.915877 C 89.623011 48.890613 89.678936 48.835492 89.713387 48.750513 C 89.747838 48.665534 89.765063 48.532496 89.765063 48.351054 L 89.765063 48.040995 C 89.765063 47.845773 89.744393 47.716984 89.703052 47.654972 C 89.664007 47.592961 89.601996 47.561955 89.517017 47.561955 C 89.420554 47.561955 89.354293 47.595602 89.317546 47.662207 C 89.283095 47.726515 89.265869 47.865123 89.265869 48.078719 L 89.265869 48.537089 L 87.873706 48.537089 L 87.873706 48.061666 C 87.873706 47.528825 87.99561 47.169214 88.239058 46.983179 C 88.482512 46.794847 88.869683 46.701025 89.400228 46.701025 z M 8.8764608 47.257581 L 11.536247 47.257581 L 11.536247 48.473527 L 10.647412 52.835018 L 9.2624837 52.835018 L 10.251054 48.260103 L 8.8764608 48.260103 L 8.8764608 47.257581 z M 22.419303 74.440934 C 22.809747 74.440934 23.130142 74.50375 23.380485 74.63007 C 23.630829 74.75639 23.809974 74.934733 23.91792 75.164404 C 24.025866 75.394077 24.079667 75.683467 24.079667 76.032568 L 22.688021 76.032568 C 22.688021 75.77304 22.684576 75.609796 22.677686 75.543193 C 22.673092 75.474291 22.645531 75.417045 22.595003 75.37111 C 22.546772 75.325175 22.479994 75.301864 22.395015 75.301864 C 22.323819 75.301864 22.26525 75.323855 22.219316 75.367493 C 22.173381 75.411131 22.147141 75.467573 22.140251 75.536475 C 22.13336 75.605376 22.129915 75.743984 22.129915 75.952987 L 22.129915 76.841821 C 22.201114 76.692534 22.305788 76.581485 22.443591 76.507992 C 22.581395 76.432199 22.751009 76.394303 22.953121 76.394303 C 23.208058 76.394303 23.43331 76.463205 23.628532 76.601009 C 23.823754 76.738813 23.947777 76.904178 24.000602 77.097103 C 24.053427 77.290028 24.079667 77.550537 24.079667 77.878967 L 24.079667 78.323385 C 24.079667 78.713827 24.065083 79.004537 24.035225 79.195166 C 24.005368 79.385795 23.92481 79.562298 23.793896 79.725366 C 23.665282 79.886137 23.487455 80.011481 23.260079 80.101054 C 23.034999 80.190626 22.771851 80.235413 22.47098 80.235413 C 22.096613 80.235413 21.789999 80.183736 21.551139 80.080383 C 21.312281 79.97703 21.127565 79.828891 20.996651 79.635966 C 20.868034 79.440744 20.792242 79.236163 20.769275 79.022567 C 20.748604 78.808971 20.738269 78.394753 20.738269 77.779232 L 20.738269 77.007186 C 20.738269 76.343433 20.747284 75.900334 20.765658 75.677551 C 20.786328 75.452472 20.866888 75.240196 21.006986 75.040381 C 21.147087 74.840565 21.337371 74.691106 21.578528 74.592346 C 21.821981 74.49129 22.102357 74.440934 22.419303 74.440934 z M 77.566842 75.091024 L 79.41014 75.091024 L 79.41014 78.736279 L 79.806498 78.736279 L 79.806498 79.687126 L 79.41014 79.687126 L 79.41014 80.668978 L 78.018494 80.668978 L 78.018494 79.687126 L 76.364848 79.687126 L 76.364848 78.736279 L 77.566842 75.091024 z M 78.018494 76.362264 L 77.405094 78.736279 L 78.018494 78.736279 L 78.018494 76.362264 z M 22.408968 77.255233 C 22.312505 77.255233 22.241479 77.291004 22.195544 77.362203 C 22.151907 77.431105 22.129915 77.567588 22.129915 77.771997 L 22.129915 78.781755 C 22.129915 79.027503 22.150586 79.188104 22.191927 79.263896 C 22.235565 79.339688 22.306591 79.377584 22.405351 79.377584 C 22.465066 79.377584 22.527077 79.348702 22.591386 79.291284 C 22.655694 79.231569 22.688021 79.073095 22.688021 78.815861 L 22.688021 77.771997 C 22.688021 77.574478 22.66603 77.439316 22.622392 77.36582 C 22.578754 77.292325 22.507727 77.255233 22.408968 77.255233 z M 48.474561 86.848446 L 51.461458 86.848446 L 51.461458 87.740381 L 49.735465 87.740381 L 49.735465 88.688127 C 49.951358 88.43319 50.229093 88.305721 50.569006 88.305721 C 50.95256 88.305721 51.241951 88.413326 51.43717 88.629215 C 51.634689 88.842811 51.733276 89.255422 51.733276 89.866349 L 51.733276 90.662166 C 51.733276 91.057204 51.713926 91.347396 51.674882 91.533431 C 51.638134 91.717169 51.557576 91.88862 51.433553 92.047095 C 51.30953 92.203272 51.136471 92.323851 50.913688 92.40883 C 50.693202 92.491512 50.423164 92.532853 50.103918 92.532853 C 49.745632 92.532853 49.43 92.470841 49.156689 92.346818 C 48.883382 92.220498 48.689133 92.033142 48.574296 91.785095 C 48.45946 91.537048 48.402214 91.153322 48.402214 90.634261 L 48.402214 90.331437 L 49.79386 90.331437 L 49.79386 90.67922 C 49.79386 91.039803 49.80632 91.296064 49.831584 91.447648 C 49.856848 91.599232 49.944296 91.675024 50.093583 91.675024 C 50.162485 91.675024 50.217607 91.653033 50.258948 91.609395 C 50.302586 91.565757 50.325381 91.518847 50.327677 91.468319 C 50.332271 91.417791 50.337037 91.198108 50.34163 90.809961 L 50.34163 89.704085 C 50.34163 89.495083 50.319639 89.35303 50.276001 89.277238 C 50.232363 89.201446 50.160016 89.16355 50.05896 89.16355 C 49.994652 89.16355 49.940851 89.1829 49.897213 89.221944 C 49.853575 89.260989 49.824693 89.30365 49.810913 89.349585 C 49.799429 89.393223 49.79386 89.496576 49.79386 89.659644 L 48.415649 89.659644 L 48.474561 86.848446 z " /><circle
       style="display:none;fill:none;fill-opacity:1;stroke:#ff0808;stroke-width:1;stroke-dasharray:none;stroke-opacity:1"
       id="path13"
       cx="50"
       cy="50"
       r="39.811848" /></g></svg>
