<?xml version="1.0" encoding="UTF-8" standalone="no"?>
<!-- Created with Inkscape (http://www.inkscape.org/) -->

<svg
   width="200mm"
   height="200mm"
   viewBox="0 0 200 200"
   version="1.1"
   id="svg1"
   inkscape:version="1.3.2 (091e20e, 2023-11-25, custom)"
   sodipodi:docname="d12+1.svg"
   xmlns:inkscape="http://www.inkscape.org/namespaces/inkscape"
   xmlns:sodipodi="http://sodipodi.sourceforge.net/DTD/sodipodi-0.dtd"
   xmlns="http://www.w3.org/2000/svg"
   xmlns:svg="http://www.w3.org/2000/svg">
  <sodipodi:namedview
     id="namedview1"
     pagecolor="#505050"
     bordercolor="#ffffff"
     borderopacity="1"
     inkscape:showpageshadow="0"
     inkscape:pageopacity="0"
     inkscape:pagecheckerboard="1"
     inkscape:deskcolor="#505050"
     inkscape:document-units="mm"
     inkscape:zoom="0.74029883"
     inkscape:cx="320.81639"
     inkscape:cy="450.49376"
     inkscape:window-width="2560"
     inkscape:window-height="1417"
     inkscape:window-x="1592"
     inkscape:window-y="1072"
     inkscape:window-maximized="1"
     inkscape:current-layer="layer1" />
  <defs
     id="defs1">
    <rect
       x="97.426727"
       y="63.040823"
       width="611.30495"
       height="594.112"
       id="rect1" />
  </defs>
  <g
     inkscape:label="Layer 1"
     inkscape:groupmode="layer"
     id="layer1">
    <path
       id="path5"
       style="display:none;fill:#880000;fill-opacity:1;stroke-width:2.88222"
       d="M 95.316388,5.5538156 2.584331,74.03469 95.316388,194.44618 Z m 9.367212,0 V 194.44618 L 197.41567,74.04031 Z" />
    <path
       id="path8"
       style="display:none;fill:#880000;fill-opacity:1;stroke-width:2.71227"
       d="M 95.592529,2.1514681 14.780464,49.600411 V 140.24449 L 95.592529,95.634947 Z m 8.814951,0.0053 V 95.634947 l 80.81206,44.614773 V 49.600411 Z M 100,102.23025 14.780464,149.05933 100,197.84852 185.21421,149.05933 Z" />
    <path
       id="path9"
       style="display:none;fill:#880000;fill-opacity:1;stroke-width:2.82023"
       d="M 2.3904721,101.66398 95.418523,60.412435 V 196.57311 Z M 104.58141,60.412435 V 196.57311 l 93.02812,-94.90913 z m 0,-56.9855463 V 51.822016 l 73.78284,32.142125 z M 95.418523,51.824841 V 3.4297134 L 21.635686,83.967019 Z" />
    <path
       id="path13"
       style="display:none;fill:#880000;fill-opacity:1;stroke-width:2.81044"
       d="M 42.277638,111.33874 73.316217,164.8777 4.9746209,100.58317 Z M 96.049969,80.418223 V 5.0280291 L 2.3552821,91.511058 44.618762,103.69992 Z M 126.68372,164.8777 195.0254,100.58317 157.7223,111.33874 Z M 99.99865,87.39937 50.596593,109.76209 99.99865,194.97197 149.40058,109.76209 Z M 197.64472,91.511058 103.95007,5.0280291 V 80.418223 l 51.42834,23.278937 z" />
    <path
       id="path22-2"
       style="fill:#880000;fill-opacity:1;stroke-width:2.81199"
       d="M 143.45598,12.412204 158.13219,62.884022 196.2219,105.59013 182.5072,50.763378 Z M 53.376037,66.191457 67.424749,8.7508778 100.63437,2.918803 133.84401,8.7508778 147.89274,66.191457 100.6316,92.019612 Z m 51.827843,33.743892 v 62.043781 l 56.9372,13.1292 33.92671,-57.33936 -43.85582,-43.521157 z M 49.014633,182.20581 100.63724,197.0812 152.25979,182.20581 100.63724,170.30267 Z M 144.24373,13.494688 156.81687,65.725759 195.25571,103.25738 180.09847,52.494861 Z M 56.899464,13.334417 21.01826,51.744492 3.7781062,106.31006 43.893997,66.500764 Z M 96.064892,99.935349 49.059621,74.244997 5.2037892,117.7661 l 33.9266828,57.33936 56.93442,-13.1292 z" />
    <text
       xml:space="preserve"
       transform="scale(0.26458333)"
       id="text1"
       style="fill:#f9f9f9;stroke-width:7.55905512;-inkscape-font-specification:Orbitron;font-family:Orbitron;font-size:400px;white-space:pre;shape-inside:url(#rect1)" />
    <text
       xml:space="preserve"
       style="font-size:105.833px;font-family:Orbitron;-inkscape-font-specification:Orbitron;fill:#f9f9f9;stroke-width:2"
       x="58.566349"
       y="138.09988"
       id="text2"><tspan
         sodipodi:role="line"
         id="tspan2"
         style="stroke-width:2"
         x="58.566349"
         y="138.09988">+1</tspan></text>
  </g>
</svg>
