<?xml version="1.0" encoding="UTF-8" standalone="no"?>
<!-- Created with Inkscape (http://www.inkscape.org/) -->

<svg
   width="100mm"
   height="100mm"
   viewBox="0 0 100 100"
   version="1.1"
   id="svg1"
   inkscape:version="1.3.2 (091e20e, 2023-11-25, custom)"
   sodipodi:docname="focus.svg"
   xmlns:inkscape="http://www.inkscape.org/namespaces/inkscape"
   xmlns:sodipodi="http://sodipodi.sourceforge.net/DTD/sodipodi-0.dtd"
   xmlns="http://www.w3.org/2000/svg"
   xmlns:svg="http://www.w3.org/2000/svg">
  <sodipodi:namedview
     id="namedview1"
     pagecolor="#505050"
     bordercolor="#ffffff"
     borderopacity="1"
     inkscape:showpageshadow="0"
     inkscape:pageopacity="0"
     inkscape:pagecheckerboard="1"
     inkscape:deskcolor="#505050"
     inkscape:document-units="mm"
     inkscape:zoom="1.4142136"
     inkscape:cx="226.27417"
     inkscape:cy="266.93281"
     inkscape:window-width="2560"
     inkscape:window-height="1417"
     inkscape:window-x="1592"
     inkscape:window-y="1072"
     inkscape:window-maximized="1"
     inkscape:current-layer="layer1" />
  <defs
     id="defs1" />
  <g
     inkscape:label="Layer 1"
     inkscape:groupmode="layer"
     id="layer1">
    <path
       id="path4"
       style="color:#000000;fill:#ffffff;-inkscape-stroke:none"
       d="M 16.750237 3.8474796 L -8.0311594 46.771687 L 16.750237 89.697468 L 66.316178 89.697468 L 91.099673 46.771687 L 66.316178 3.8474796 L 16.750237 3.8474796 z M 25.067878 13.17591 L 57.825963 13.17591 L 41.446658 31.116772 L 25.067878 13.17591 z M 62.35747 15.645447 L 78.863189 44.233959 L 54.953054 38.979636 L 62.35747 15.645447 z M 20.671703 15.713637 L 28.057759 38.991701 L 4.205324 44.233959 L 20.671703 15.713637 z M 4.2058485 49.310463 L 28.001633 54.539609 L 20.632362 77.76312 L 4.2058485 49.310463 z M 78.862665 49.310463 L 62.395761 77.829736 L 55.009705 54.552198 L 78.862665 49.310463 z M 41.447183 62.237767 L 58.000111 80.369038 L 24.894255 80.369038 L 41.447183 62.237767 z "
       transform="matrix(0.98517505,0,0,0.98517505,9.0820523,3.9212331)" />
  </g>
</svg>
