<?xml version="1.0" encoding="UTF-8" standalone="no"?>
<!-- Created with Inkscape (http://www.inkscape.org/) -->

<svg
   width="200mm"
   height="200mm"
   viewBox="0 0 200 200"
   version="1.1"
   id="svg1"
   xml:space="preserve"
   inkscape:version="1.3.2 (091e20e, 2023-11-25, custom)"
   sodipodi:docname="hit.svg"
   xmlns:inkscape="http://www.inkscape.org/namespaces/inkscape"
   xmlns:sodipodi="http://sodipodi.sourceforge.net/DTD/sodipodi-0.dtd"
   xmlns="http://www.w3.org/2000/svg"
   xmlns:svg="http://www.w3.org/2000/svg"><sodipodi:namedview
     id="namedview1"
     pagecolor="#505050"
     bordercolor="#ffffff"
     borderopacity="1"
     inkscape:showpageshadow="0"
     inkscape:pageopacity="0"
     inkscape:pagecheckerboard="1"
     inkscape:deskcolor="#505050"
     inkscape:document-units="mm"
     inkscape:zoom="0.74029882"
     inkscape:cx="233.01401"
     inkscape:cy="369.44541"
     inkscape:window-width="1920"
     inkscape:window-height="1027"
     inkscape:window-x="4152"
     inkscape:window-y="1167"
     inkscape:window-maximized="1"
     inkscape:current-layer="layer1" /><defs
     id="defs1" /><g
     inkscape:label="Layer 1"
     inkscape:groupmode="layer"
     id="layer1"><path
       style="fill:#ffffff;fill-opacity:1"
       d="m 99.820767,193.04597 c -0.0854,-0.34254 -0.291454,-0.92344 -0.457902,-1.2909 -0.448938,-0.99109 -0.773876,-2.34707 -0.775281,-3.23528 -6.83e-4,-0.43206 -0.136767,-0.98325 -0.302409,-1.22485 -0.165642,-0.2416 -0.373029,-0.89024 -0.460859,-1.44143 -0.694789,-4.36016 -0.82876,-5.61803 -0.90133,-8.46261 -0.164669,-6.45464 -0.693655,-9.14894 -1.343099,-6.84084 -0.122486,0.43531 -0.297862,0.86648 -0.389726,0.95816 -0.09186,0.0917 -0.167025,0.5317 -0.167025,0.97782 0,0.44612 -0.142156,1.00553 -0.315902,1.24314 -0.305984,0.41846 -0.320255,0.41455 -0.45456,-0.12446 -0.07626,-0.30607 -0.115091,-2.05971 -0.08629,-3.89699 0.03584,-2.28636 -0.06164,-4.00569 -0.308915,-5.44841 -0.198707,-1.15935 -0.349857,-2.16151 -0.335889,-2.22701 0.05357,-0.25119 -0.31646,-3.09272 -0.624514,-4.7958 -0.447871,-2.47607 -1.069499,-6.05086 -1.78139,-10.24422 -0.332702,-1.95976 -0.727892,-3.91396 -0.878202,-4.34266 -0.150309,-0.4287 -0.397746,-1.1302 -0.54986,-1.5589 -0.152114,-0.4287 -0.470842,-1.58117 -0.708285,-2.56106 -0.709679,-2.92871 -0.868733,-3.45185 -1.049479,-3.45185 -0.09482,0 -1.549014,1.04713 -3.23154,2.32697 -1.682527,1.27983 -3.43001,2.5522 -3.883297,2.8275 -0.453287,0.27529 -1.340119,0.90676 -1.970738,1.40326 -3.541663,2.78844 -3.836159,3.05498 -3.717401,3.36446 0.06797,0.17711 0.0082,0.32203 -0.132715,0.32203 -0.140959,0 -0.230658,0.12526 -0.199331,0.27837 0.09192,0.44924 -1.076884,2.10002 -1.580044,2.2316 -0.415538,0.10866 -0.461693,0.0226 -0.461693,-0.86057 0,-0.53972 -0.05192,-0.9813 -0.115375,-0.9813 -0.06346,0 -0.775204,0.40086 -1.581663,0.8908 -0.806459,0.48994 -1.558213,0.8908 -1.670563,0.8908 -0.6148,0 -8.408375,6.40021 -10.975308,9.01311 -0.845699,0.86084 -2.048282,1.94072 -2.672405,2.39973 -1.566383,1.15199 -2.062517,1.53589 -2.734896,2.11621 -0.60903,0.52564 -1.094313,0.67436 -0.835847,0.25616 0.252833,-0.40909 -0.595853,0.13299 -1.490597,0.95208 -0.782793,0.71661 -1.512171,1.35101 -4.293955,3.7348 -0.724246,0.62062 -1.425752,1.11144 -1.558902,1.0907 -0.416627,-0.0649 -1.466944,0.29625 -1.466944,0.50439 0,0.10921 -0.102125,0.19856 -0.226943,0.19856 -0.324424,0 -0.04119,-1.00935 0.687415,-2.44971 0.340775,-0.67366 0.777436,-1.5756 0.970359,-2.0043 0.192923,-0.4287 0.607819,-1.23042 0.921992,-1.7816 0.314173,-0.55119 0.784536,-1.50323 1.04525,-2.11566 0.260714,-0.61242 0.96262,-1.9001 1.55979,-2.8615 0.59717,-0.9614 1.03189,-1.88839 0.966045,-2.05998 -0.07046,-0.1836 0.02027,-0.31198 0.220486,-0.31198 0.187112,0 0.27609,-0.10374 0.197728,-0.23053 -0.07836,-0.12679 0.23521,-0.72578 0.696825,-1.33109 0.461616,-0.60531 0.861188,-1.24969 0.887938,-1.43195 0.02675,-0.18226 0.408771,-0.92423 0.848935,-1.64882 0.440164,-0.72459 0.800298,-1.37006 0.800298,-1.43439 0,-0.0643 0.501076,-0.96831 1.113502,-2.00885 0.612426,-1.04054 1.113502,-2.04713 1.113502,-2.23687 0,-0.18974 0.125269,-0.42513 0.278375,-0.52308 0.359314,-0.22987 1.503228,-2.52038 1.503228,-3.00998 0,-0.20632 0.139485,-0.45527 0.309965,-0.55322 0.390065,-0.22412 1.497764,-2.19339 1.328801,-2.36235 -0.111013,-0.11102 0.430971,-1.44976 1.099217,-2.71515 0.129366,-0.24497 0.783115,-1.49766 1.452775,-2.78376 0.669659,-1.28609 1.353595,-2.49657 1.519858,-2.68994 0.166262,-0.19337 0.302296,-0.42753 0.302296,-0.52034 0,-0.0928 0.287466,-0.58601 0.638813,-1.09597 1.522765,-2.21022 6.718564,-11.32302 7.025659,-12.32214 0.131986,-0.42942 0.01845,-0.51952 -1.029987,-0.81737 -1.426721,-0.40533 -5.605589,-1.19963 -6.500617,-1.23562 -0.355071,-0.0143 -0.77893,-0.13662 -0.941909,-0.27188 -0.162978,-0.13526 -0.924725,-0.27243 -1.692771,-0.30481 -0.768045,-0.0324 -2.14806,-0.22217 -3.066699,-0.42174 -0.918639,-0.19958 -2.097916,-0.36294 -2.620615,-0.36304 -0.522699,-1e-4 -1.875604,-0.19273 -3.006455,-0.42805 -2.748252,-0.5719 -5.371754,-1.04585 -8.069006,-1.45769 -1.224852,-0.18702 -2.677972,-0.43613 -3.229156,-0.55358 -0.551183,-0.11745 -2.004303,-0.37202 -3.229156,-0.56573 -1.224852,-0.1937 -2.72808,-0.44801 -3.340506,-0.56512 -2.720051,-0.52013 -5.602487,-0.88344 -8.908017,-1.12278 -2.142253,-0.15511 -3.627486,-0.35877 -3.724395,-0.5107 -0.102576,-0.16081 0.05938,-0.2848 0.445401,-0.34098 l 0.606589,-0.0883 -0.556751,-0.16789 c -0.405797,-0.12237 -0.199493,-0.17391 0.760894,-0.19009 2.184524,-0.0368 1.182441,-0.3225 -1.264962,-0.36065 -2.475882,-0.0386 -5.140937,-0.36246 -7.686234,-0.93407 -1.746384,-0.39219 -1.773931,-0.72248 -0.06075,-0.72837 0.710207,-0.002 0.922799,-0.0716 0.750268,-0.24416 -0.208914,-0.20891 -1.654857,-0.28574 -3.077487,-0.16351 -0.928884,0.0798 -1.8929538,-0.0493 -1.8929538,-0.25342 0,-0.29664 1.7598108,-1.04347 2.9211518,-1.23967 0.532642,-0.09 1.070379,-0.29005 1.194973,-0.44458 0.258985,-0.32121 2.518967,-1.00846 5.125942,-1.55877 0.979882,-0.20685 2.069195,-0.465038 2.420695,-0.573758 0.3515,-0.10872 1.40376,-0.257105 2.338354,-0.329745 0.934595,-0.07264 3.102276,-0.379226 4.817069,-0.681302 1.714794,-0.302077 4.120903,-0.642557 5.346911,-0.756623 2.739224,-0.254854 4.536794,-0.585085 4.921138,-0.904063 0.159891,-0.132697 0.394168,-0.177327 0.520615,-0.09918 0.137149,0.08476 0.176397,0.0026 0.09728,-0.203529 -0.07294,-0.190089 -0.353287,-0.345617 -0.622985,-0.345617 -0.269698,0 -0.68477,-0.142156 -0.922382,-0.315901 -0.413051,-0.302031 -0.402697,-0.322937 0.235811,-0.476109 0.367308,-0.08811 0.783898,-0.251236 0.925755,-0.362494 0.141857,-0.111257 0.693041,-0.187509 1.224852,-0.169449 0.957334,0.03251 1.490871,-0.02613 4.084736,-0.448935 1.479085,-0.241095 5.117948,-0.671341 7.015063,-0.829436 0.673669,-0.05614 1.375175,-0.158895 1.558903,-0.228347 0.183728,-0.06945 0.484373,-0.149034 0.668101,-0.176849 0.183728,-0.02782 1.181676,-0.171857 2.217663,-0.320092 1.035986,-0.148234 2.059132,-0.363453 2.273657,-0.478264 0.214526,-0.11481 0.469267,-0.195525 0.566093,-0.179366 0.09683,0.01616 0.226155,0.01068 0.287397,-0.01217 0.06124,-0.02285 0.555545,-0.08152 1.09845,-0.130367 1.558405,-0.140222 3.355559,-0.561037 3.355559,-0.785725 0,-0.789932 3.155601,-2.709594 3.64675,-2.218445 0.155849,0.155848 0.143478,0.312995 -0.039,0.495477 -0.146982,0.146982 -0.26724,0.484278 -0.26724,0.749547 v 0.482306 l 1.503228,-0.419081 c 1.975461,-0.550733 2.536117,-0.675046 3.011269,-0.667682 0.244839,0.0038 0.335286,-0.0944 0.238377,-0.258783 -0.08589,-0.145694 -0.405788,-0.665759 -0.710889,-1.1557 -0.3051,-0.489941 -1.625123,-2.99532 -2.933384,-5.56751 -1.308261,-2.57219 -2.646778,-5.127677 -2.974483,-5.678861 -0.898828,-1.511784 -7.042135,-14.033206 -7.042135,-14.353432 0,-0.193153 -0.593407,-1.589082 -0.951264,-2.237749 -0.50335,-0.912396 -1.483229,-2.776319 -3.388003,-6.444656 -1.077303,-2.074738 -2.241803,-4.229364 -2.587778,-4.788059 -0.345975,-0.558694 -0.767382,-1.316453 -0.936461,-1.683909 -0.169078,-0.367456 -0.473261,-0.805641 -0.675963,-0.973745 -0.202701,-0.168104 -0.368548,-0.443696 -0.368548,-0.612426 0,-0.16873 -0.100215,-0.306782 -0.2227,-0.306782 -0.122485,0 -0.2227,-0.113301 -0.2227,-0.251779 0,-0.138478 -0.341796,-0.727533 -0.759546,-1.30901 -0.757377,-1.054214 -1.912859,-3.090909 -1.912859,-3.371675 0,-0.355896 0.996444,0.162316 1.729102,0.899239 l 0.799415,0.804068 -0.485042,-0.806116 c -0.506693,-0.842102 -0.477286,-2.200339 0.04764,-2.200339 0.440319,0 1.989439,0.914664 3.053358,1.802829 0.563483,0.470398 1.291274,0.956691 1.617315,1.080652 0.32604,0.12396 0.702854,0.466922 0.837363,0.762137 0.134509,0.295216 0.48403,0.664916 0.776714,0.821555 0.292684,0.15664 0.532152,0.356908 0.532152,0.445041 0,0.204003 1.297195,1.694703 2.981829,3.426635 0.721367,0.74162 1.573196,1.697226 1.892954,2.123568 1.748164,2.330877 2.298623,2.833215 1.225103,1.118005 -0.57496,-0.91864 -1.582316,-2.303435 -2.238569,-3.077324 -0.656253,-0.773889 -1.345121,-1.700879 -1.530819,-2.059979 -0.185698,-0.3591 -0.41022,-0.655234 -0.498938,-0.658076 -0.342249,-0.01096 -1.83156,-1.5282 -1.83156,-1.865904 0,-0.413086 0.251871,-0.460382 0.599653,-0.112601 0.175975,0.175975 0.375036,0.172845 0.719129,-0.01131 0.432829,-0.231643 0.716559,-0.01476 3.141715,2.40148 1.466254,1.460866 2.665917,2.609912 2.665917,2.553437 0,-0.05648 0.465077,0.306694 1.033506,0.807044 0.568428,0.500351 1.136642,0.909728 1.262697,0.909728 0.126056,0 0.88888,0.626345 1.695165,1.391878 0.806285,0.765533 1.941729,1.819856 2.523209,2.342941 0.58148,0.523085 1.057237,1.002558 1.057237,1.065495 0,0.06294 0.626345,0.750167 1.391877,1.527176 0.765533,0.777008 1.892954,1.998875 2.50538,2.715259 1.821426,2.130607 4.312369,4.538739 6.656215,6.43493 1.211213,0.979882 2.914871,2.418978 3.785907,3.197992 1.747778,1.563131 3.803674,3.14897 4.082352,3.14897 0.239783,0 0.907672,-2.432234 1.161913,-4.231308 0.752476,-5.324713 1.006887,-6.530777 2.255337,-10.69168 0.23922,-0.797287 0.427863,-1.699223 0.419206,-2.004303 -0.0087,-0.30508 0.140791,-1.102661 0.332108,-1.772401 0.191316,-0.669741 0.347848,-1.478327 0.347848,-1.796858 0,-0.318532 0.147563,-1.076046 0.327917,-1.683366 0.180355,-0.60732 0.427177,-1.75293 0.548493,-2.5458 0.121317,-0.792871 0.37179,-2.264997 0.556608,-3.271393 0.184818,-1.006395 0.3867,-2.61001 0.448628,-3.563587 0.06193,-0.953577 0.32721,-2.535327 0.589516,-3.515 0.262306,-0.979672 0.606055,-2.532837 0.763887,-3.451476 0.303118,-1.764252 0.766946,-3.773166 1.465419,-6.346962 0.232678,-0.857396 0.422735,-1.807151 0.422347,-2.110566 -3.88e-4,-0.303414 0.146632,-1.305566 0.326712,-2.227004 0.598405,-3.061937 1.207878,-6.561846 1.321391,-7.588114 0.06165,-0.557351 0.366304,-1.559502 0.677016,-2.227005 0.310711,-0.667502 0.565909,-1.394515 0.567105,-1.615584 0.0025,-0.464879 0.72754,-2.1418229 1.4146,-3.2719185 0.26041,-0.4283166 0.44134,-0.9795001 0.40207,-1.2248523 -0.0477,-0.2978331 0.003,-0.3720793 0.15185,-0.2233945 0.12279,0.1224853 0.28401,0.6159817 0.35826,1.0966589 0.0743,0.4806771 0.25208,1.0150125 0.39516,1.1874119 0.14308,0.1723995 0.26612,0.9059603 0.27342,1.6301355 0.007,0.724174 0.0756,1.31726 0.15183,1.317967 0.12787,0.0012 0.32245,0.908133 0.54973,2.562342 0.15513,1.129094 0.55813,3.061642 0.88237,4.231307 0.16977,0.612427 0.42124,1.815009 0.55884,2.672405 0.30487,1.899798 0.81806,4.074767 1.10348,4.676709 0.2852,0.6015 1.18469,6.520957 1.45513,9.576118 0.0651,0.734912 0.17269,1.486525 0.2392,1.670253 0.0665,0.183728 0.21047,1.18588 0.31993,2.227004 0.10946,1.041125 0.50554,3.546505 0.88017,5.567511 0.37463,2.021006 0.67581,3.978718 0.6693,4.35047 -0.007,0.371752 0.12641,1.135333 0.2954,1.696846 0.19691,0.654269 0.23427,1.151352 0.10404,1.384066 -0.12308,0.219939 -0.12235,0.363132 0.002,0.363132 0.11279,0 0.271,0.496958 0.35157,1.10435 0.0806,0.607392 0.24381,1.16449 0.36274,1.237995 0.11893,0.0735 0.21679,0.403324 0.21746,0.732929 6.8e-4,0.329606 0.35653,2.002296 0.7908,3.717089 0.82605,3.26182 2.07957,8.836803 2.26583,10.077194 0.0598,0.398077 0.20386,0.723776 0.32017,0.723776 0.11631,0 0.15272,0.09507 0.0809,0.211277 -0.13463,0.217833 0.30013,2.238428 0.48163,2.238428 0.37563,0 10.59675,-7.868174 14.09819,-10.852725 0.91864,-0.783028 2.17133,-1.850918 2.78375,-2.37309 0.61243,-0.522171 2.81716,-2.287545 4.89941,-3.923052 3.94975,-3.102338 6.13406,-4.8583 9.13072,-7.340162 0.97988,-0.811547 2.13236,-1.715196 2.56105,-2.008109 0.4287,-0.292913 1.09155,-0.789495 1.47299,-1.103517 1.558,-1.282618 2.10604,-1.68445 2.29732,-1.68445 0.11065,0 0.27635,-0.07516 0.36821,-0.167025 0.38526,-0.385255 0.57301,-0.129222 0.20414,0.278375 -0.22169,0.244971 -0.32634,0.445401 -0.23254,0.445401 0.0938,0 -0.066,0.208066 -0.35521,0.462368 -0.28916,0.254302 -0.37543,0.389012 -0.1917,0.299354 0.18373,-0.08966 0.68481,-0.487626 1.1135,-0.884375 1.62331,-1.502328 2.83794,-2.549752 2.95677,-2.549752 0.13693,0 0.83741,-0.567472 2.30811,-1.86984 1.09796,-0.972287 1.3978,-0.95295 0.87581,0.05648 -0.19276,0.372756 -0.35048,0.937099 -0.35048,1.254096 0,0.559305 0.028,0.547854 0.94648,-0.387002 0.57126,-0.581449 1.10098,-0.931511 1.3362,-0.883021 0.21435,0.04419 0.38973,-0.02722 0.38973,-0.158689 0,-0.131467 0.10021,-0.23903 0.2227,-0.23903 0.49148,0 0.14732,0.720997 -1.44825,3.033939 -2.92272,4.236813 -3.68878,5.447063 -3.56976,5.639641 0.0638,0.103271 -0.0225,0.240948 -0.19194,0.30595 -0.25854,0.09921 -2.80727,3.769229 -2.80727,4.042302 0,0.04943 -0.70203,1.291852 -1.56007,2.760926 -0.85804,1.469074 -1.62738,2.853245 -1.70966,3.075936 -0.0823,0.222691 -0.40487,0.805753 -0.7169,1.295694 -0.77577,1.218137 -1.04022,1.694452 -2.22555,4.008607 -0.56464,1.102367 -1.68995,3.006456 -2.5007,4.231308 -2.5445,3.844144 -3.4545,5.296799 -4.32476,6.903713 -0.46434,0.857397 -1.26347,2.260409 -1.77585,3.117806 -0.51238,0.857397 -1.47097,2.711378 -2.13022,4.119958 -0.65924,1.40858 -1.57617,3.152829 -2.03762,3.876109 -0.46145,0.723279 -0.839,1.390104 -0.839,1.481833 0,0.09173 -0.34291,0.773437 -0.76201,1.514906 -0.85275,1.508671 -0.9228,1.392457 1.09606,1.818237 1.225,0.258354 1.55084,0.315868 3.67456,0.64861 0.79615,0.12474 2.14905,0.384458 3.00645,0.577152 3.18608,0.716048 5.16656,1.043542 6.7711,1.11968 0.90695,0.04304 1.75377,0.183017 1.88182,0.31107 0.16197,0.161965 0.10066,0.23865 -0.20144,0.251966 -0.29369,0.01295 -0.22417,0.08197 0.21476,0.213227 0.35696,0.106747 0.73162,0.143036 0.83257,0.08064 0.10096,-0.06239 0.12829,0.03058 0.0607,0.2066 -0.0908,0.236592 0.18571,0.389166 1.06038,0.585134 0.65076,0.1458 1.43373,0.34867 1.73994,0.450822 0.30622,0.102152 1.60901,0.454683 2.89511,0.783404 1.28609,0.32872 2.98975,0.801887 3.78591,1.051482 0.79615,0.249595 1.66356,0.480923 1.92758,0.514062 0.26402,0.03314 1.05067,0.226141 1.74811,0.428894 0.72113,0.209638 2.20913,0.38719 3.44984,0.411646 1.19996,0.02365 2.13611,0.118166 2.08032,0.21003 -0.0558,0.09186 0.0168,0.167025 0.16119,0.167025 0.14443,0 1.67863,0.198713 3.40932,0.441585 5.12883,0.71974 6.65731,0.907027 7.6564,0.93815 0.52056,0.01622 0.94643,0.138324 0.94638,0.271351 -6e-5,0.149193 0.49057,0.231273 1.28053,0.214223 0.70434,-0.0152 1.38084,0.0484 1.50332,0.14129 0.12249,0.0929 1.42528,0.44211 2.89511,0.77601 4.51834,1.02643 4.79042,1.7194 0.8214,2.0921 -1.26302,0.1186 -2.42471,0.32213 -2.58154,0.45228 -0.15683,0.13016 -0.34867,0.17314 -0.4263,0.0955 -0.0776,-0.0776 -0.26884,-0.0355 -0.42491,0.0936 -0.15607,0.1291 -0.5343,0.2809 -0.84051,0.33734 -0.30621,0.0564 -0.0859,0.0625 0.48969,0.0135 1.23122,-0.10479 4.63242,0.14923 4.63242,0.34597 0,0.0748 -1.37796,0.37269 -3.06213,0.66202 -1.68417,0.28933 -3.5131,0.6586 -4.06428,0.82061 -1.30078,0.38234 -4.67492,1.14758 -6.23561,1.4142 -0.67367,0.11509 -2.02658,0.4104 -3.00646,0.65625 -0.97988,0.24585 -2.83386,0.61132 -4.11996,0.81215 -1.28609,0.20083 -3.02264,0.52679 -3.85898,0.72437 -1.20846,0.28548 -1.55621,0.30166 -1.69393,0.0788 -0.21418,-0.34656 -4.53785,-0.11221 -5.91616,0.32067 l -0.8908,0.27977 1.22485,0.0361 c 1.09229,0.0322 1.1646,0.0625 0.6681,0.27996 -0.30621,0.13411 -0.80729,0.26806 -1.1135,0.29766 -1.09292,0.10569 -7.71114,1.46428 -9.24207,1.89723 -2.72263,0.76995 -3.77958,1.14706 -4.0128,1.43173 -0.12479,0.15233 -0.50392,0.27695 -0.84251,0.27695 -0.33858,0 -0.79555,0.16285 -1.01549,0.36189 -0.48595,0.43978 -0.92156,0.46903 -0.92156,0.0619 0,-0.59592 -0.89067,-0.73059 -2.96003,-0.44754 -1.10688,0.1514 -2.47207,0.383 -3.03377,0.51466 -0.56169,0.13165 -1.29685,0.25977 -1.63369,0.28471 -0.33683,0.0249 -0.61243,0.0717 -0.61243,0.1039 0,0.0322 0.29229,0.6868 0.64952,1.45465 0.35724,0.76785 1.02088,2.24792 1.47476,3.28905 0.45389,1.04112 1.00028,2.14349 1.2142,2.4497 0.30972,0.44335 4.73436,9.32812 6.42895,12.9095 0.201,0.42478 0.91663,1.61873 1.5903,2.65322 2.48438,3.81501 3.92187,5.97683 4.68924,7.05207 0.43287,0.60655 1.04522,1.55378 1.36077,2.10496 0.31555,0.55118 1.3027,2.20473 2.19366,3.67456 0.89096,1.46982 1.99317,3.48079 2.44935,4.46882 0.45619,0.98803 1.17942,2.29083 1.60718,2.89511 0.42776,0.60427 1.21314,1.9004 1.7453,2.88029 0.53215,0.97988 1.24038,2.28268 1.57384,2.8951 0.96803,1.77788 1.33318,2.62291 1.46222,3.38388 0.11384,0.67133 0.0852,0.7077 -0.50741,0.64452 -0.34544,-0.0368 -0.77074,-0.28183 -0.94511,-0.54445 -0.17437,-0.26262 -0.43103,-0.47749 -0.57036,-0.47749 -0.13932,0 -0.37778,-0.1993 -0.5299,-0.44288 -0.15797,-0.25295 -0.49135,-0.42841 -0.77735,-0.40914 -1.22386,0.0825 -3.5927,-1.12282 -4.77062,-2.42735 -0.26617,-0.29478 -0.54177,-0.52934 -0.61243,-0.52125 -0.38401,0.044 -0.48751,-0.0292 -0.68809,-0.48637 -0.12179,-0.27761 -0.54261,-0.5961 -0.94361,-0.71415 -0.39807,-0.11719 -0.72484,-0.31762 -0.72614,-0.4454 -0.004,-0.37878 -1.39997,-1.60273 -2.00194,-1.75508 -0.30621,-0.0775 -0.98702,-0.54325 -1.5129,-1.035 -0.52589,-0.49176 -1.10212,-0.8941 -1.28053,-0.8941 -0.1784,0 -0.32437,-0.15032 -0.32437,-0.33405 0,-0.18373 -0.11725,-0.33405 -0.26055,-0.33405 -0.1433,0 -0.92204,-0.62635 -1.73054,-1.39188 -0.80849,-0.76553 -1.86877,-1.75961 -2.35618,-2.20907 -0.48741,-0.44945 -1.63497,-1.57687 -2.55014,-2.50538 -0.91517,-0.9285 -1.76222,-1.68819 -1.88235,-1.68819 -0.12012,0 -0.53707,-0.30886 -0.92656,-0.68636 -0.63377,-0.61429 -0.75768,-0.65544 -1.17978,-0.39183 -0.25939,0.16199 -0.47162,0.47086 -0.47162,0.68636 0,0.51894 -0.8649,0.52071 -1.0254,0.002 -0.0663,-0.21435 -0.22276,-0.57853 -0.34759,-0.8093 -0.15207,-0.28112 -0.15297,-0.4653 -0.003,-0.55816 0.14224,-0.0879 0.10872,-0.29658 -0.0916,-0.57061 -0.24516,-0.33527 -0.37557,-0.37236 -0.58231,-0.16562 -0.42379,0.42379 -0.62271,0.31331 -0.623,-0.34602 l -2.7e-4,-0.61242 -0.52672,0.61242 c -0.58621,0.68161 -0.80894,0.76482 -0.80894,0.30221 0,-0.17063 -0.1661,-0.37397 -0.36911,-0.45187 -0.32755,-0.12569 -0.31502,-0.19203 0.11135,-0.58925 0.55135,-0.51365 0.62119,-0.75462 0.16838,-0.58086 -0.20128,0.0772 -0.29212,-0.0131 -0.25585,-0.25455 0.074,-0.49286 -0.85915,-1.70252 -1.73855,-2.25358 -0.38498,-0.24125 -0.95051,-0.66872 -1.25673,-0.94994 -0.30621,-0.28121 -1.14624,-0.95046 -1.86672,-1.48722 -0.72049,-0.53675 -1.48997,-1.13804 -1.70997,-1.3362 -0.60877,-0.54833 -1.02471,-0.84449 -3.99512,-2.84464 -0.84851,-0.57135 -3.54883,-2.38624 -3.92464,-2.63775 -0.4986,-0.33369 -0.89928,0.35304 -1.07722,1.84629 -0.0833,0.69934 -0.23681,1.62227 -0.34107,2.05097 -0.10426,0.4287 -0.30584,1.48096 -0.44795,2.33836 -0.14212,0.85739 -0.41043,2.10945 -0.59626,2.78236 -0.18583,0.6729 -0.4174,1.67505 -0.5146,2.227 -0.0972,0.55195 -0.6283,3.20828 -1.18022,5.90296 -1.29486,6.32201 -2.15709,10.73907 -2.26054,11.58042 -0.0452,0.36745 -0.28666,1.77047 -0.5366,3.1178 -0.24995,1.34734 -0.52287,2.95078 -0.60649,3.56321 -0.0836,0.61243 -0.19354,1.31393 -0.24426,1.5589 -0.20732,1.00141 -0.50762,3.01608 -0.74688,5.01076 -0.38631,3.22064 -1.06459,7.29478 -1.28779,7.73525 -0.10961,0.21633 -0.32911,1.04472 -0.48778,1.84087 -0.15866,0.79615 -0.42411,1.60577 -0.5899,1.79914 -0.16579,0.19337 -0.30143,0.45669 -0.30143,0.58516 0,0.12846 -0.15032,0.35833 -0.33405,0.51081 -0.18373,0.15248 -0.33405,0.50959 -0.33405,0.79357 0,0.53941 -0.43328,1.00875 -0.46167,0.5001 -0.009,-0.16034 -0.19906,0.20955 -0.42246,0.82198 -0.33492,0.91813 -1.43406,3.15801 -1.67165,3.40655 -0.0347,0.0363 -0.133004,-0.21421 -0.218402,-0.55675 z M 53.3855,159.90891 c 0.302206,-0.41199 0.29748,-0.42248 -0.06302,-0.13975 -0.21435,0.1681 -0.389726,0.41029 -0.389726,0.53819 0,0.1279 0.02836,0.19079 0.06302,0.13976 0.03466,-0.051 0.210036,-0.29323 0.389726,-0.5382 z m 98.64894,-1.53163 c 0,-0.0463 -0.17538,-0.22162 -0.38972,-0.38973 -0.35322,-0.27701 -0.3611,-0.26913 -0.0841,0.0841 0.29093,0.37097 0.47381,0.48894 0.47381,0.30565 z m -50.07307,-6.74895 c 0.11979,-0.14486 0.31063,-1.34744 0.42407,-2.67241 0.11345,-1.32497 0.31249,-2.91011 0.44233,-3.52253 0.12984,-0.61243 0.32355,-1.7148 0.43048,-2.44971 0.32473,-2.23181 0.83286,-5.07095 1.07614,-6.01291 0.12654,-0.48994 0.40068,-2.39403 0.6092,-4.23131 0.20852,-1.83728 0.43317,-3.49083 0.49923,-3.67455 0.0661,-0.18373 0.13213,-0.38416 0.1468,-0.44541 0.0147,-0.0612 0.18653,-0.56231 0.38189,-1.1135 0.73854,-2.08374 1.74555,-5.37183 1.74555,-5.6996 0,-0.18753 0.16058,-0.83191 0.35684,-1.43194 l 0.35684,-1.09098 1.54945,1.23628 c 0.85219,0.67996 1.77311,1.35249 2.04648,1.49453 0.27336,0.14204 0.79349,0.48575 1.15584,0.7638 1.78916,1.37292 3.68916,2.66766 4.65047,3.16901 0.58714,0.30621 1.11746,0.68202 1.17849,0.83513 0.061,0.1531 0.27562,0.2806 0.47686,0.28332 0.20125,0.003 0.61644,0.20093 0.92265,0.44045 0.61149,0.47832 1.00156,0.58207 0.76809,0.20431 -0.082,-0.1326 0.15769,-0.0825 0.53254,0.11135 0.84249,0.43566 1.05954,0.44718 0.72013,0.0382 -0.17827,-0.21481 -0.1869,-0.35989 -0.0273,-0.45854 0.12843,-0.0794 0.23352,-0.0259 0.23352,0.11879 0,0.19249 0.0925,0.18635 0.34459,-0.0229 0.24345,-0.20204 0.27022,-0.33195 0.0912,-0.44258 -0.24053,-0.14866 -0.68193,-0.82267 -1.01701,-1.55297 -0.0843,-0.18373 -0.34845,-0.55125 -0.587,-0.81671 -0.66707,-0.74232 -0.60988,-1.97419 0.12322,-2.65396 l 0.60267,-0.55882 0.21938,0.57701 c 0.12066,0.31736 0.28139,0.82408 0.35718,1.12605 0.0758,0.30197 0.22843,0.60505 0.3392,0.67351 0.32485,0.20076 0.86276,1.65417 0.86276,2.33113 0,0.65996 0.43024,1.26853 2.43786,3.44827 1.3044,1.41623 1.74047,1.93649 2.74898,3.27971 0.34181,0.45526 0.84288,0.94389 1.1135,1.08584 0.47687,0.25014 0.48002,0.24455 0.1023,-0.18157 -0.21435,-0.24182 -0.38973,-0.53383 -0.38973,-0.64891 0,-0.11509 -0.37581,-0.67811 -0.83513,-1.25116 -0.45932,-0.57305 -1.08566,-1.40051 -1.39187,-1.83881 -0.30622,-0.4383 -0.78495,-1.06997 -1.06386,-1.40372 -0.61841,-0.73999 -1.38877,-2.34817 -2.0509,-4.28136 -1.08681,-3.17316 -2.89508,-6.79514 -4.44684,-8.90709 -0.58535,-0.79667 -1.18761,-1.68558 -1.33835,-1.97537 -0.15074,-0.28979 -0.63445,-0.84097 -1.07491,-1.22485 -1.57001,-1.36833 -1.81907,-1.63509 -1.6678,-1.78635 0.0843,-0.0843 0.12931,-0.80085 0.10008,-1.5924 -0.0645,-1.74585 0.2049,-1.85263 1.38321,-0.54837 0.44264,0.48994 1.00548,0.8908 1.25077,0.8908 0.24529,0 0.44598,0.14386 0.44598,0.3197 0,0.24932 0.28188,0.30338 1.28053,0.24559 1.25653,-0.0727 1.59439,-0.12221 4.06428,-0.5954 1.49584,-0.28657 5.39232,-1.40774 6.45831,-1.8583 1.35158,-0.57127 5.8281,-1.71684 6.26371,-1.60292 0.24883,0.0651 0.4173,-0.007 0.4173,-0.17844 0,-0.3881 2.16261,-1.07716 4.16938,-1.32847 0.39464,-0.0494 0.7955,-0.13668 0.8908,-0.1939 0.0953,-0.0572 0.91433,-0.17001 1.82004,-0.25063 0.90572,-0.0806 1.94144,-0.29897 2.30161,-0.48522 0.38911,-0.20122 1.09691,-0.31517 1.74422,-0.28082 2.12467,0.11277 1.44808,-0.31267 -0.90453,-0.56876 -0.55118,-0.06 -1.80387,-0.256 -2.78375,-0.43556 -0.97988,-0.17956 -3.13451,-0.49429 -4.78806,-0.69941 -3.02921,-0.37576 -5.33818,-0.9055 -5.59535,-1.28372 -0.0821,-0.120733 -0.197,-0.11116 -0.28012,0.0233 -0.17208,0.27843 -1.22032,0.0149 -2.46374,-0.619467 -0.48332,-0.246563 -0.93429,-0.363789 -1.00216,-0.260503 -0.20416,0.310701 -3.12985,0.531432 -3.12985,0.236135 0,-0.161171 0.22235,-0.202741 0.61242,-0.114493 0.49601,0.112213 0.53834,0.09353 0.2227,-0.09827 -0.57526,-0.349571 -0.47401,-0.657675 0.2227,-0.677676 0.3572,-0.01026 0.47322,-0.07058 0.27838,-0.144743 -0.18373,-0.06994 -0.39355,-0.217974 -0.46627,-0.328967 -0.0727,-0.110994 -0.69906,-0.26031 -1.39188,-0.331815 -0.69281,-0.0715 -1.25966,-0.216203 -1.25966,-0.321552 0,-0.105349 -0.19667,-0.191544 -0.43704,-0.191544 -0.24038,0 -0.96694,-0.191994 -1.61458,-0.426654 -3.0622,-1.109522 -4.68447,-1.341494 -6.47482,-0.925851 -0.79781,0.185218 -0.83529,0.169925 -0.69534,-0.283689 0.0814,-0.263703 0.68047,-1.030644 1.33133,-1.704312 1.37439,-1.422539 3.03959,-3.530871 3.9932,-5.055853 0.36745,-0.587625 0.89516,-1.419162 1.17268,-1.84786 0.27752,-0.428699 0.5648,-0.954828 0.6384,-1.169177 0.0736,-0.21435 0.21659,-0.389726 0.31776,-0.389726 0.10116,0 0.1435,-0.209943 0.0941,-0.466539 -0.0494,-0.256596 0.0684,-0.708066 0.26183,-1.003267 0.28298,-0.431882 0.2977,-0.601764 0.0754,-0.869663 -0.2026,-0.244125 -0.20702,-0.332936 -0.0166,-0.332936 0.14286,0 0.23906,-0.125269 0.21379,-0.278376 -0.0253,-0.153106 0.2594,-0.938362 0.63261,-1.745012 0.3732,-0.80665 0.75327,-1.806836 0.8446,-2.222635 0.1448,-0.659281 0.12293,-0.720217 -0.17097,-0.476308 -0.27538,0.228548 -0.36196,0.214641 -0.47352,-0.07606 -0.10888,-0.283751 -0.36204,-0.142218 -1.25086,0.699312 -0.61289,0.580284 -1.11434,1.135055 -1.11434,1.232824 0,0.266841 -1.85367,1.963473 -2.15221,1.969885 -0.14259,0.0031 -0.61104,0.347194 -1.041,0.764737 -0.42995,0.417543 -0.83941,0.701486 -0.90992,0.630985 -0.0705,-0.0705 -0.13151,0.01379 -0.13559,0.187307 -0.009,0.400436 -0.76545,1.317645 -1.08611,1.317645 -0.13348,0 -0.23082,-0.07516 -0.21631,-0.167026 0.10311,-0.653027 -0.0453,-0.775651 -0.47177,-0.389726 -0.43104,0.390082 -0.4454,0.388976 -0.4454,-0.03427 0,-0.240544 0.14713,-0.631883 0.32696,-0.869643 0.17984,-0.237759 0.33016,-0.552735 0.33405,-0.699945 0.004,-0.147211 0.33279,-0.598179 0.73086,-1.002152 0.73538,-0.746274 1.72593,-2.060611 1.72593,-2.290101 0,-0.563756 -7.64131,4.761662 -10.29035,7.171599 -1.41265,1.285141 -1.85101,1.25641 -2.26827,-0.148666 -0.18005,-0.606283 -0.39248,-1.583381 -0.47206,-2.171329 -0.0796,-0.587947 -0.24205,-1.387049 -0.36104,-1.77578 -0.11898,-0.388732 -0.25009,-1.240561 -0.29134,-1.892954 -0.0979,-1.548126 -0.35889,-3.094407 -0.6025,-3.569675 -0.10691,-0.208562 -0.24217,-1.210714 -0.30059,-2.227004 -0.0584,-1.016291 -0.1564,-2.29877 -0.21772,-2.849954 -0.0613,-0.551183 -0.16565,-1.503227 -0.23184,-2.115654 -0.0662,-0.612426 -0.2227,-1.714793 -0.34779,-2.449704 -0.46389,-2.725383 -0.63185,-3.818759 -0.78682,-5.12211 -0.28975,-2.436682 -0.55728,-0.335998 -0.42543,3.340506 0.0858,2.393568 0.0526,3.245813 -0.11727,3.006456 -0.17693,-0.24932 -0.20733,-0.09398 -0.11983,0.612426 0.0645,0.520562 0.0273,0.946477 -0.0826,0.946477 -0.1099,0 -0.23869,0.175377 -0.28619,0.389726 -0.0905,0.40823 -0.48434,-0.980944 -0.86822,-3.062131 -0.12426,-0.673669 -0.16106,-1.81919 -0.0818,-2.545603 0.13506,-1.237582 0.11969,-1.300688 -0.24414,-1.002152 -0.35175,0.288627 -0.37614,0.271481 -0.25922,-0.182255 0.071,-0.27547 0.0383,-0.556976 -0.0727,-0.625569 -0.11098,-0.06859 -0.20179,-0.419447 -0.20179,-0.779674 0,-0.866818 -0.36965,-0.838734 -0.56326,0.04279 -0.11349,0.516715 -0.20476,0.617832 -0.35175,0.389726 -0.298464,-0.463162 -0.617406,0.145212 -0.603522,1.151201 0.0062,0.446617 -0.112938,1.043997 -0.26467,1.327511 -0.17241,0.322151 -0.230383,0.95626 -0.154577,1.690754 0.143144,1.386934 -6.39e-4,2.09217 -0.426551,2.09217 -0.169443,0 -0.300165,0.175376 -0.290496,0.389726 0.0105,0.232819 0.06281,0.277649 0.129909,0.11135 0.21907,-0.542912 0.508355,-0.275135 0.298646,0.276441 -0.116018,0.30515 -0.159084,0.689955 -0.0957,0.855122 0.06338,0.165168 -0.0293,0.420261 -0.205958,0.566874 -0.176657,0.146612 -0.269745,0.463314 -0.206861,0.703781 0.06288,0.240466 0.01554,0.437212 -0.105202,0.437212 -0.357938,0 -0.50017,-1.538582 -0.250047,-2.704864 0.127875,-0.596262 0.324451,-1.027284 0.436835,-0.957826 0.220759,0.136436 0.738145,-0.999008 0.543782,-1.193371 -0.06467,-0.06467 -0.117581,-0.0069 -0.117581,0.128395 0,0.135287 -0.193488,0.231402 -0.429973,0.213588 -0.238164,-0.01794 -0.364972,-0.135948 -0.284262,-0.264535 0.08014,-0.12768 0.152654,-0.332361 0.16114,-0.454847 0.0085,-0.122485 0.10562,-1.024422 0.215854,-2.004303 0.110233,-0.979882 0.178964,-1.863175 0.152734,-1.962873 -0.02623,-0.0997 0.0653,-0.600775 0.20339,-1.113503 0.138095,-0.512727 0.288216,-1.52238 0.333603,-2.243672 0.04539,-0.721292 0.141722,-1.49796 0.214076,-1.725928 0.07235,-0.227969 0.02459,-0.414488 -0.106154,-0.414488 -0.130739,0 -0.237708,0.16168 -0.237708,0.359289 0,0.378121 -0.735732,3.65717 -1.11862,4.985521 -0.123569,0.428698 -0.27023,1.130204 -0.325913,1.558903 -0.05568,0.428698 -0.198707,1.180312 -0.31783,1.670253 -0.119123,0.489941 -0.319959,1.692523 -0.446302,2.672405 -0.126344,0.979882 -0.283271,2.032141 -0.348729,2.338354 -0.06546,0.306213 -0.174249,1.00199 -0.24176,1.546172 -0.06751,0.544181 -0.177912,1.07868 -0.245337,1.187776 -0.06743,0.109096 -0.158114,0.694973 -0.201531,1.30195 -0.04342,0.606977 -0.128266,1.183404 -0.188552,1.280949 -0.06029,0.09755 -0.272898,0.970517 -0.472469,1.939938 -0.591127,2.871399 -1.75801,5.877639 -2.282656,5.880802 -0.158476,9.56e-4 -0.271871,0.127007 -0.251989,0.280113 0.09822,0.756413 -0.02851,1.039717 -0.40635,0.908368 -0.214349,-0.07451 -0.489941,-0.248891 -0.612426,-0.387505 -0.122485,-0.138614 -0.668357,-0.575578 -1.21305,-0.971032 -0.962726,-0.698954 -1.500257,-0.922826 -1.25225,-0.521541 0.06712,0.108607 -0.04594,0.334091 -0.251253,0.501076 -0.39355,0.320082 -0.394346,0.330353 0.06142,-0.792814 0.07768,-0.191421 -0.07669,-0.425152 -0.389726,-0.59009 -0.285092,-0.150215 -0.568456,-0.334877 -0.629699,-0.410359 -0.1795,-0.221236 -3.797222,-2.563089 -5.010759,-3.243606 -0.612426,-0.343431 -1.514363,-0.945623 -2.004304,-1.338205 -2.056662,-1.64797 -6.628614,-5.02837 -6.701813,-4.955172 -0.151528,0.151529 2.675658,2.883876 3.183924,3.077119 0.306591,0.116565 0.511434,0.379478 0.511434,0.656418 0,0.620662 0.576759,1.700723 1.057822,1.980916 0.237284,0.138206 0.276408,0.229646 0.100021,0.233769 -0.183902,0.0043 -0.07972,0.282086 0.285272,0.76061 0.501391,0.657358 0.541427,0.827479 0.312819,1.32922 -0.144189,0.316459 -0.347723,0.522501 -0.452297,0.457871 -0.104574,-0.06463 -0.190135,-0.01138 -0.190135,0.118333 0,0.501425 -0.840254,0.200371 -1.490417,-0.534001 -0.374863,-0.423414 -0.719002,-0.733479 -0.764753,-0.689034 -0.04575,0.04445 -0.09862,-0.31717 -0.117496,-0.803591 -0.01887,-0.486421 -0.194248,-1.061129 -0.389726,-1.27713 -0.195478,-0.216001 -0.355414,-0.510107 -0.355414,-0.653569 0,-0.143462 -0.102696,-0.26084 -0.228213,-0.26084 -0.125517,0 -0.328505,-0.225484 -0.451086,-0.501076 -0.268688,-0.604079 -1.02364,-1.647741 -1.735769,-2.399564 l -0.522113,-0.551216 0.359394,0.890802 c 0.197667,0.48994 0.607994,1.094996 0.911839,1.344568 0.303845,0.249571 0.555997,0.600324 0.560337,0.779451 0.0043,0.179127 0.143853,0.571194 0.310027,0.871261 0.257964,0.465815 0.253066,0.620466 -0.0335,1.057827 -0.212629,0.324513 -0.244634,0.512251 -0.08733,0.512251 0.136573,0 0.248314,0.137584 0.248314,0.305741 0,0.653327 1.965918,4.366663 2.837957,5.360492 0.552716,0.629909 0.94795,0.736719 0.94795,0.256177 0,-0.20919 0.156345,-0.272316 0.47079,-0.190087 0.418518,0.109445 0.42951,0.146217 0.099,0.331179 -0.290805,0.162742 -0.315163,0.276294 -0.111825,0.521301 0.14298,0.172281 0.20179,0.464837 0.130689,0.650125 -0.0711,0.185287 -0.03221,0.336886 0.08643,0.336886 0.118641,0 0.215711,0.209813 0.215711,0.46625 0,0.278079 0.178746,0.512993 0.442896,0.58207 0.243593,0.0637 0.386991,0.206276 0.318663,0.316834 -0.06833,0.110558 -0.233009,0.133788 -0.365955,0.05162 -0.145474,-0.08991 -0.177556,-0.04557 -0.08057,0.11135 0.08863,0.143408 0.254438,0.203085 0.36846,0.132616 0.114021,-0.07047 0.207312,0.138725 0.207312,0.464877 0,0.61782 1.306399,3.29957 1.961288,4.026094 1.214113,1.346918 1.619144,2.085297 1.384437,2.523852 -0.183335,0.342565 -0.347012,0.399311 -0.733055,0.254147 -0.887901,-0.333878 -5.953176,0.590794 -5.953176,1.086759 0,0.102327 -0.200964,0.133496 -0.446587,0.06926 -0.245623,-0.06423 -0.571323,-0.0159 -0.723777,0.107408 -0.152454,0.123307 -0.87848,0.346592 -1.613392,0.496189 -2.683019,0.546152 -7.143639,1.583347 -7.794514,1.812402 -0.367456,0.129314 -0.968747,0.315415 -1.336203,0.413557 l -0.668101,0.178441 0.809153,0.0228 c 0.610814,0.01721 0.837703,0.131974 0.925627,0.468194 0.06406,0.24497 0.0089,0.4454 -0.122493,0.4454 -0.131432,0 -0.182675,0.0563 -0.113873,0.1251 0.164799,0.1648 -0.722774,1.09336 -1.220038,1.27639 -0.557111,0.20504 -0.482019,-0.007 0.214463,-0.60635 l 0.604188,-0.5197 -1.216615,0.0862 c -0.669138,0.0474 -1.767798,0.23785 -2.441467,0.42322 -0.673668,0.18537 -2.101735,0.40026 -3.173481,0.47754 -1.071745,0.0773 -1.948628,0.21997 -1.948628,0.31708 0,0.0971 -0.2147,0.13522 -0.477112,0.0847 -0.262411,-0.0505 -0.638218,0.002 -0.835126,0.11737 -0.309913,0.18113 -0.298172,0.21245 0.08739,0.23306 0.475542,0.0254 0.877682,0.0916 2.115654,0.34806 0.428699,0.0888 0.912156,0.13864 1.074349,0.11072 0.162194,-0.0279 0.412732,0.0459 0.556751,0.16403 0.301434,0.24726 2.037146,0.48743 4.277027,0.59181 0.853786,0.0398 1.602445,0.0926 1.663688,0.11747 0.06124,0.0248 0.286726,0.0273 0.501076,0.005 0.214349,-0.0218 0.389725,0.0669 0.389725,0.19705 0,0.13019 -0.106129,0.2367 -0.235843,0.2367 -0.129714,0 -0.173907,0.10021 -0.09821,0.2227 0.0757,0.12249 -0.07462,0.2227 -0.334051,0.2227 -0.259428,0 -0.422783,0.0791 -0.363011,0.17584 0.05977,0.0967 -0.184563,0.37231 -0.542967,0.61243 -0.358404,0.24012 -0.651932,0.50294 -0.652285,0.58403 -3.52e-4,0.0811 0.425275,0.21674 0.945837,0.30142 0.520562,0.0847 1.998736,0.4874 3.284831,0.89491 2.522111,0.79917 7.169378,1.88538 8.066472,1.88538 0.303809,0 0.842926,0.0943 1.198038,0.20954 1.055286,0.34249 2.538196,0.43055 2.542022,0.15097 0.0021,-0.15586 0.07097,-0.14271 0.183806,0.0351 0.09922,0.15634 0.698975,0.34568 1.332793,0.42075 0.633818,0.0751 1.152367,0.19768 1.152331,0.27249 -3.6e-5,0.0748 0.502602,0.12762 1.116974,0.11737 2.027126,-0.0338 1.936576,0.30349 -0.972461,3.62257 -0.839192,0.95748 -1.972571,2.44238 -2.51862,3.29977 -2.737922,4.29904 -3.333506,5.28779 -4.7622,7.90587 -0.367623,0.67367 -0.845701,1.5255 -1.062395,1.89295 -0.216694,0.36746 -0.550695,1.07777 -0.742224,1.57848 l -0.348236,0.91038 0.505646,-0.23863 c 0.278105,-0.13124 0.458178,-0.31543 0.400162,-0.4093 -0.05802,-0.0939 0.0424,-0.17067 0.223152,-0.17067 0.18075,0 0.367512,0.11662 0.415027,0.25917 0.04752,0.14255 0.303516,-0.10883 0.56889,-0.5586 0.265374,-0.44978 0.712708,-0.92267 0.994074,-1.05086 0.281366,-0.1282 0.760277,-0.59851 1.064246,-1.04513 0.752546,-1.10571 1.444748,-1.83589 1.740397,-1.83589 0.141315,0 0.183746,0.16571 0.09979,0.38972 -0.128647,0.34327 -0.100626,0.35276 0.235072,0.0796 0.209621,-0.17056 0.453868,-0.23477 0.542772,-0.14268 0.0889,0.0921 -0.06162,0.31754 -0.334487,0.50101 -0.395853,0.26616 -0.450535,0.41879 -0.270541,0.75511 0.124076,0.23184 0.1648,0.42152 0.0905,0.42152 -0.0743,0 0.01523,0.15032 0.198958,0.33405 0.183727,0.18373 0.441424,0.33405 0.572658,0.33405 0.358506,0 0.286895,-0.44085 -0.09544,-0.58756 -0.473779,-0.18181 -0.412663,-0.37654 0.20856,-0.66452 0.491836,-0.228 0.516846,-0.21424 0.285068,0.1569 -0.560123,0.8969 0.100146,0.62275 1.267809,-0.52641 0.680547,-0.66976 1.790013,-1.47941 2.465479,-1.79923 0.675466,-0.31982 1.627242,-0.83344 2.115058,-1.14139 0.487816,-0.30794 1.037747,-0.5599 1.222069,-0.5599 0.465413,0 2.506674,-1.28352 2.872983,-1.8065 0.361977,-0.5168 0.989618,-0.35129 1.240582,0.32713 0.112798,0.30492 0.0366,0.68441 -0.223188,1.1116 -0.21695,0.35675 -0.337745,0.81092 -0.268433,1.00928 0.421351,1.20582 0.999257,2.25017 1.182494,2.13693 0.402653,-0.24886 1.311468,1.12008 1.777698,2.67772 0.256635,0.8574 0.603038,1.81126 0.769785,2.11968 0.208699,0.38603 0.235913,0.68098 0.08733,0.94648 -0.150232,0.26845 -0.137101,0.3857 0.04319,0.3857 0.160677,0 0.222111,0.25163 0.161784,0.66267 -0.05349,0.36446 -0.03981,0.69016 0.0304,0.72377 0.07021,0.0336 0.410706,1.21359 0.756654,2.62217 0.345948,1.40858 0.764691,2.91181 0.930541,3.3405 0.16585,0.4287 0.348682,1.18032 0.406293,1.67026 0.145476,1.23716 0.541927,2.17488 0.841284,1.98986 0.148854,-0.092 0.163061,-0.20786 0.03578,-0.29177 -0.116115,-0.0766 -0.221226,-0.65993 -0.23358,-1.29639 -0.01235,-0.63646 -0.168788,-1.58851 -0.34763,-2.11566 -0.178843,-0.52714 -0.39665,-1.43577 -0.484016,-2.01915 -0.138126,-0.92234 -0.111916,-1.0427 0.200921,-0.92266 0.197873,0.0759 0.359769,0.26931 0.359769,0.42973 0,0.16041 0.07849,0.32507 0.17443,0.3659 0.212914,0.0906 1.322225,4.54662 1.51538,6.08714 0.0768,0.61243 0.19438,1.20405 0.26133,1.31472 0.0669,0.11067 0.19929,1.05234 0.2941,2.0926 0.10388,1.13965 0.28941,1.97367 0.46681,2.09842 0.23094,0.1624 0.2344,0.23138 0.016,0.31998 -0.15311,0.0621 -0.27838,0.21074 -0.27838,0.33024 0,0.11951 0.10022,0.15535 0.2227,0.0796 0.12249,-0.0757 0.2227,0.0127 0.2227,0.19642 0,0.18372 -0.0919,0.39086 -0.20427,0.46029 -0.11824,0.0731 -0.12651,0.4303 -0.0196,0.84827 0.10155,0.39711 0.26368,1.2231 0.36029,1.83553 0.14781,0.937 0.18935,1.0076 0.26204,0.4454 0.0475,-0.36746 0.1844,-0.78662 0.3042,-0.93147 z m -1.14802,-10.0922 c 0,-0.24497 0.094,-0.4454 0.20886,-0.4454 0.11487,0 0.19376,0.20043 0.17531,0.4454 -0.0185,0.24497 -0.11244,0.4454 -0.20886,0.4454 -0.0964,0 -0.17531,-0.20043 -0.17531,-0.4454 z m -0.4454,-3.55006 c 0,-0.61966 0.10021,-1.12665 0.2227,-1.12665 0.12248,0 0.2227,0.44505 0.2227,0.98901 0,0.54395 -0.10022,1.05094 -0.2227,1.12664 -0.13726,0.0848 -0.2227,-0.29462 -0.2227,-0.989 z m 1.7816,-0.36034 c 0,-0.19096 0.10185,-0.28425 0.22633,-0.20731 0.12448,0.0769 0.16868,0.23317 0.0982,0.34719 -0.19091,0.3089 -0.32454,0.2513 -0.32454,-0.13988 z m 0.0869,-2.88196 c 0.13728,-1.45693 0.61184,-2.78376 0.99565,-2.78376 0.21404,0 0.26441,0.16671 0.16821,0.55675 -0.0755,0.30622 -0.20353,0.83234 -0.28446,1.16918 -0.0809,0.33683 -0.29668,0.72249 -0.47943,0.85702 -0.18275,0.13452 -0.27346,0.33974 -0.20159,0.45603 0.0719,0.11629 0.033,0.35698 -0.0863,0.53486 -0.14939,0.22265 -0.1843,-0.0235 -0.11207,-0.79008 z m -0.53235,-1.54576 c 0,-0.19096 0.10021,-0.3472 0.2227,-0.3472 0.12248,0 0.2227,0.0943 0.2227,0.20956 0,0.11526 -0.10022,0.27149 -0.2227,0.34719 -0.12249,0.0757 -0.2227,-0.0186 -0.2227,-0.20955 z m -0.2227,-0.7926 c -0.28548,-0.18449 -0.27739,-0.21637 0.0557,-0.21929 0.21435,-0.002 0.38973,0.0968 0.38973,0.21929 0,0.27161 -0.0251,0.27161 -0.44541,0 z m 0.94183,-2.04606 c 0.0485,-0.14545 0.20723,-0.30415 0.35276,-0.35266 0.16274,-0.0542 0.21251,0.0476 0.12928,0.26446 -0.15533,0.4048 -0.61565,0.48903 -0.48204,0.0882 z m -0.051,-4.20269 c 0,-0.12972 0.10021,-0.17391 0.2227,-0.0982 0.12248,0.0757 0.2227,0.18183 0.2227,0.23584 0,0.054 -0.10022,0.0982 -0.2227,0.0982 -0.12249,0 -0.2227,-0.10613 -0.2227,-0.23584 z m 17.31482,-2.1447 c -0.28271,-0.0739 -0.35426,-0.24373 -0.26033,-0.61798 0.0712,-0.28385 0.0212,-0.58305 -0.11122,-0.66488 -0.29362,-0.18148 -0.31826,-0.56791 -0.0362,-0.56791 0.23883,0 1.13166,1.38242 1.13166,1.75222 0,0.26087 -0.0675,0.27006 -0.72391,0.0986 z m -2.02879,-4.3909 c -0.65676,-0.86106 -0.75693,-1.29669 -0.25375,-1.10361 0.18372,0.0705 0.33405,0.26779 0.33405,0.43841 0,0.17063 0.0885,0.31023 0.19672,0.31023 0.19242,0 0.52346,0.91295 0.38225,1.05416 -0.0393,0.0393 -0.33597,-0.27533 -0.65927,-0.69919 z m -30.541009,-1.02307 c 0.0757,-0.12249 0.181829,-0.2227 0.235843,-0.2227 0.05401,0 0.09821,0.10021 0.09821,0.2227 0,0.12248 -0.106129,0.2227 -0.235843,0.2227 -0.129714,0 -0.173907,-0.10022 -0.09821,-0.2227 z m 29.285099,-1.54576 c 0,-0.11526 0.10022,-0.2715 0.22271,-0.3472 0.12248,-0.0757 0.2227,0.0186 0.2227,0.20956 0,0.19096 -0.10022,0.34719 -0.2227,0.34719 -0.12249,0 -0.22271,-0.0943 -0.22271,-0.20955 z m -34.350979,-7.75199 c -0.04477,-0.0919 -0.01969,-0.51777 0.05573,-0.94647 l 0.137139,-0.77945 0.345449,0.77945 c 0.372045,0.83946 0.335338,1.1135 -0.149149,1.1135 -0.16927,0 -0.344397,-0.0752 -0.389171,-0.16703 z m -8.073445,-4.50968 c 0.0757,-0.12249 0.237852,-0.2227 0.360337,-0.2227 0.122485,0 0.160764,0.10021 0.08506,0.2227 -0.0757,0.12249 -0.237852,0.2227 -0.360337,0.2227 -0.122485,0 -0.160764,-0.10021 -0.08506,-0.2227 z m 63.803664,-0.4454 c 0.43772,-0.28287 1.11351,-0.28287 1.11351,0 0,0.12248 -0.3257,0.22117 -0.72378,0.21929 -0.54923,-0.003 -0.64322,-0.0555 -0.38973,-0.21929 z m -7.16816,-0.82023 c 0.16076,-0.0643 0.35284,-0.0564 0.42684,0.0176 0.074,0.074 -0.0575,0.12664 -0.2923,0.11697 -0.25943,-0.0107 -0.3122,-0.0635 -0.13454,-0.13455 z m -4.95725,-0.27425 c -0.0692,-0.11203 10e-6,-0.25444 0.15388,-0.31647 0.16395,-0.0661 0.11299,-0.12007 -0.12311,-0.13037 -0.52286,-0.0228 -0.25586,-0.46298 0.28084,-0.46298 0.37514,0 0.67878,0.40663 0.67878,0.90901 0,0.26562 -0.82631,0.26629 -0.99039,8.1e-4 z m 13.58225,-0.19728 c -0.85229,-0.0368 -1.66536,-0.16297 -1.80683,-0.28038 -0.14147,-0.11741 -0.74694,-0.25514 -1.34549,-0.30607 -1.21874,-0.10371 -3.22866,-0.74605 -3.47889,-1.1118 -0.10364,-0.15149 -0.16611,-0.1167 -0.17044,0.0949 -0.004,0.21142 -0.0669,0.24634 -0.17043,0.0951 -0.09,-0.13142 -0.36405,-0.32442 -0.60902,-0.4289 -0.42642,-0.18187 -0.42349,-0.19378 0.0688,-0.27935 0.28281,-0.0492 0.81237,0.0146 1.1768,0.14161 0.36443,0.12704 0.60743,0.14171 0.53999,0.0326 -0.0674,-0.10911 -0.0208,-0.26133 0.10372,-0.33827 0.12449,-0.0769 0.22634,-0.0337 0.22634,0.096 0,0.12972 0.34484,0.23585 0.76631,0.23585 0.42147,0 0.82925,0.10185 0.90619,0.22633 0.0769,0.12448 0.21617,0.17918 0.30943,0.12155 0.0932,-0.0576 0.71267,0.0477 1.37649,0.23414 0.66381,0.18642 1.5774,0.33309 2.0302,0.32593 0.45279,-0.007 0.88191,0.0819 0.95361,0.19789 0.0717,0.116 0.27873,0.15396 0.4601,0.0844 0.32851,-0.12606 0.99218,0.27039 0.99218,0.59269 0,0.26442 -0.64827,0.33842 -2.32907,0.26585 z m -69.157741,-0.26714 c 0,-0.12249 0.194516,-0.2227 0.432258,-0.2227 0.237741,0 0.494194,0.10021 0.569894,0.2227 0.07806,0.1263 -0.109038,0.2227 -0.432258,0.2227 -0.313442,0 -0.569894,-0.10022 -0.569894,-0.2227 z m -3.643741,-0.33405 c -0.0705,-0.18373 -0.03112,-0.33405 0.08752,-0.33405 0.118641,0 0.215711,0.15032 0.215711,0.33405 0,0.18372 -0.03939,0.33405 -0.08752,0.33405 -0.04814,0 -0.145208,-0.15033 -0.215711,-0.33405 z m -3.594023,-0.55675 c -0.0757,-0.12249 -0.03151,-0.22271 0.09821,-0.22271 0.129714,0 0.235844,0.10022 0.235844,0.22271 0,0.12248 -0.04419,0.2227 -0.09821,0.2227 -0.05401,0 -0.160144,-0.10022 -0.235844,-0.2227 z m 62.912865,-0.0875 c 0,-0.0481 0.15553,-0.14721 0.34562,-0.22015 0.19819,-0.076 0.28758,-0.0387 0.20956,0.0875 -0.13079,0.21161 -0.55518,0.31299 -0.55518,0.13262 z m -1.63944,-0.91463 c -0.0705,-0.18373 -0.32238,-0.33405 -0.55972,-0.33405 -0.3397,0 -0.40235,-0.10664 -0.29437,-0.50108 0.10705,-0.391067 0.15443,-0.418223 0.2158,-0.123692 0.0464,0.222602 0.20991,0.327002 0.39873,0.254552 0.1965,-0.0754 0.3201,0.0154 0.3201,0.23504 0,0.19683 0.10021,0.35788 0.2227,0.35788 0.12248,0 0.2227,0.10021 0.2227,0.2227 0,0.34404 -0.38224,0.26311 -0.52594,-0.11135 z M 73.977946,98.77765 c 0.0757,-0.122485 0.18183,-0.222701 0.235844,-0.222701 0.05401,0 0.09821,0.100216 0.09821,0.222701 0,0.122485 -0.10613,0.2227 -0.235844,0.2227 -0.129714,0 -0.173907,-0.100215 -0.09821,-0.2227 z m 16.752608,-0.739072 c -0.593337,-0.476965 -0.609255,-1.212416 -0.03439,-1.589079 0.721409,-0.472685 1.151508,-0.431362 1.328942,0.127684 0.162276,0.511285 -0.23309,1.442738 -0.686187,1.616608 -0.154602,0.05933 -0.428364,-0.01052 -0.608361,-0.155213 z m -6.174338,-1.933333 c 0,-0.122485 0.100215,-0.222701 0.2227,-0.222701 0.122486,0 0.222701,0.100216 0.222701,0.222701 0,0.122485 -0.100215,0.2227 -0.222701,0.2227 -0.122485,0 -0.2227,-0.100215 -0.2227,-0.2227 z m 5.790211,-0.347194 c 0,-0.190956 0.100215,-0.285257 0.2227,-0.209557 0.122486,0.0757 0.222701,0.231937 0.222701,0.347193 0,0.115257 -0.100215,0.209558 -0.222701,0.209558 -0.122485,0 -0.2227,-0.156237 -0.2227,-0.347194 z m 24.385693,0.124493 c -0.0757,-0.122485 -0.0315,-0.2227 0.0982,-0.2227 0.12971,0 0.23584,0.100215 0.23584,0.2227 0,0.122486 -0.0442,0.222701 -0.0982,0.222701 -0.054,0 -0.16015,-0.100215 -0.23585,-0.222701 z m 6.12426,-7.683164 c 0,-0.183728 0.0971,-0.334051 0.21571,-0.334051 0.11865,0 0.15803,0.150323 0.0875,0.334051 -0.0705,0.183728 -0.16758,0.334051 -0.21571,0.334051 -0.0481,0 -0.0875,-0.150323 -0.0875,-0.334051 z M 94.986635,87.086494 c -0.188892,-0.188892 0.01842,-1.856962 0.387556,-3.118422 0.441269,-1.507938 0.742924,-3.034935 0.967868,-4.899409 0.103442,-0.857397 0.309584,-1.859549 0.458092,-2.227004 0.40984,-1.014071 0.89539,-2.959339 0.89539,-3.587216 0,-0.307465 0.09166,-0.502382 0.203679,-0.433147 0.112024,0.06923 0.262188,-1.3e-5 0.333698,-0.153883 0.141942,-0.305419 0.100974,0.01404 -0.406797,3.172094 -0.187092,1.16361 -0.602915,3.769204 -0.924051,5.790211 -0.321135,2.021006 -0.714533,4.075417 -0.874216,4.565358 -0.265429,0.814391 -0.724889,1.207748 -1.041219,0.891418 z m 17.629835,-1.015911 c 0,-0.129714 0.10021,-0.173907 0.2227,-0.09821 0.12248,0.0757 0.2227,0.181829 0.2227,0.235843 0,0.05401 -0.10022,0.09821 -0.2227,0.09821 -0.12249,0 -0.2227,-0.106129 -0.2227,-0.235843 z m 10.61538,-0.580725 c -0.0816,-0.08166 -0.14846,-0.252022 -0.14846,-0.37859 0,-0.139545 0.10372,-0.126397 0.26353,0.03341 0.14494,0.14494 0.21175,0.315306 0.14846,0.37859 -0.0633,0.06328 -0.18187,0.04825 -0.26353,-0.03341 z m -7.27041,-1.304467 c 0.15494,-0.186688 0.32757,-0.293571 0.38362,-0.237517 0.15444,0.154442 -0.15935,0.576949 -0.4285,0.576949 -0.14767,0 -0.13077,-0.127781 0.0449,-0.339432 z M 83.520511,83.307103 c 0.069,-0.179805 0.02961,-0.38615 -0.08752,-0.458544 -0.117136,-0.07239 -0.212974,-0.245969 -0.212974,-0.385723 0,-0.183028 0.07475,-0.179352 0.26724,0.01314 0.37035,0.370351 0.858516,0.335603 0.710331,-0.05056 -0.08905,-0.232056 0.003,-0.285134 0.34104,-0.196726 0.538003,0.14069 0.525526,0.09835 0.245803,0.834081 -0.157202,0.413473 -0.379063,0.571248 -0.803277,0.571248 -0.423791,0 -0.551351,-0.09053 -0.46064,-0.326918 z m 0.813005,-1.690528 c 0,-0.129714 0.100215,-0.173908 0.2227,-0.09821 0.122485,0.0757 0.2227,0.18183 0.2227,0.235844 0,0.05401 -0.100215,0.09821 -0.2227,0.09821 -0.122485,0 -0.2227,-0.106129 -0.2227,-0.235844 z m 16.812854,-0.245729 c -0.21277,-0.847716 -0.0515,-1.634082 0.33508,-1.634082 0.24801,0 0.31416,0.200763 0.25685,0.779452 -0.11522,1.163356 -0.40826,1.586446 -0.59193,0.85463 z m -24.050618,0.03617 c 0.0757,-0.122485 0.231937,-0.2227 0.347194,-0.2227 0.115256,0 0.209557,0.100215 0.209557,0.2227 0,0.122485 -0.156237,0.222701 -0.347194,0.222701 -0.190956,0 -0.285257,-0.100216 -0.209557,-0.222701 z m 24.162998,-3.433642 c 0,-0.864315 0.5461,-1.381705 0.60687,-0.574965 0.0185,0.24497 -0.0663,0.445401 -0.18846,0.445401 -0.1221,0 -0.16006,0.100215 -0.0844,0.2227 0.0757,0.122485 0.0315,0.2227 -0.0982,0.2227 -0.12971,0 -0.23584,-0.142126 -0.23584,-0.315836 z m 3.26581,-3.954339 c -0.0696,-0.266347 -0.0412,-0.636843 0.0631,-0.823324 0.13145,-0.23489 0.18974,-0.08611 0.18974,0.484268 0,0.939288 -0.071,1.034485 -0.25285,0.339056 z m -3.9305,-0.350858 c -0.002,-0.275592 0.0968,-0.501076 0.21929,-0.501076 0.27902,0 0.27902,0.236339 0,0.668101 -0.17457,0.270127 -0.21654,0.238164 -0.21929,-0.167025 z m 2.00089,0.05568 c 0,-0.183728 0.10021,-0.334051 0.2227,-0.334051 0.12248,0 0.2227,0.150323 0.2227,0.334051 0,0.183728 -0.10022,0.334051 -0.2227,0.334051 -0.12249,0 -0.2227,-0.150323 -0.2227,-0.334051 z m -1.5589,-2.574198 c 0,-0.129714 0.10021,-0.173907 0.2227,-0.09821 0.12248,0.0757 0.2227,0.181829 0.2227,0.235843 0,0.05401 -0.10022,0.09821 -0.2227,0.09821 -0.12249,0 -0.2227,-0.10613 -0.2227,-0.235843 z m -0.49291,-0.654958 c 0.0539,-0.367456 0.19762,-0.668101 0.31931,-0.668101 0.12169,0 0.16042,0.158519 0.0861,0.352264 -0.0743,0.193746 -0.13518,0.494391 -0.13518,0.668102 0,0.17371 -0.0829,0.315836 -0.18413,0.315836 -0.10127,0 -0.14,-0.300645 -0.0861,-0.668101 z m 46.73774,80.515799 c -0.0725,-0.18901 -0.26028,-0.33574 -0.41723,-0.32607 -0.22352,0.0138 -0.22503,0.0419 -0.007,0.12991 0.1531,0.0618 0.27837,0.271 0.27837,0.46493 0,0.19394 0.0625,0.29012 0.13886,0.21375 0.0764,-0.0764 0.0795,-0.29351 0.007,-0.48252 z m -38.80648,-3.46146 c 0.0777,-0.67367 0.18746,-1.72593 0.24395,-2.33835 0.0915,-0.99206 0.0806,-1.02849 -0.1,-0.33405 -0.23849,0.91702 -0.56123,4.17063 -0.39762,4.0086 0.0618,-0.0612 0.17599,-0.66253 0.25367,-1.3362 z m 34.55893,-0.83513 c -0.41825,-0.5818 -1.0414,-1.30836 -1.38477,-1.61457 -0.44204,-0.39421 -0.52977,-0.42672 -0.30051,-0.11135 0.53788,0.73986 2.27197,2.78375 2.36181,2.78375 0.0462,0 -0.25828,-0.47602 -0.67653,-1.05783 z m -6.0606,-8.74551 c -0.32587,-0.49244 -0.63806,-0.84977 -0.69375,-0.79408 -0.0999,0.0999 1.02741,1.6894 1.19818,1.6894 0.0484,0 -0.17855,-0.40289 -0.50443,-0.89532 z m -77.719389,-0.7865 c 0.07605,-0.19818 0.03872,-0.28757 -0.08752,-0.20955 -0.121083,0.0748 -0.22015,0.23036 -0.22015,0.34561 0,0.32034 0.159624,0.24975 0.307673,-0.13606 z m 76.392139,-0.87923 c -0.20064,-0.30621 -0.47095,-0.55675 -0.6007,-0.55675 -0.12975,0 -5.4e-4,0.25054 0.28713,0.55675 0.28767,0.30621 0.55799,0.55675 0.6007,0.55675 0.0427,0 -0.0865,-0.25054 -0.28713,-0.55675 z m -61.997118,-5.57289 c 0.430341,-0.51853 0.123278,-0.61625 -0.337281,-0.10734 -0.222375,0.24572 -0.300842,0.44677 -0.174371,0.44677 0.126472,0 0.356715,-0.15275 0.511652,-0.33943 z m 1.092202,-0.61215 c 0.263385,-0.34373 0.255231,-0.37667 -0.06302,-0.25454 -0.201053,0.0772 -0.36555,0.29657 -0.36555,0.48761 0,0.19104 0.02836,0.30559 0.06302,0.25455 0.03466,-0.051 0.199157,-0.27046 0.36555,-0.48762 z m 6.654836,-0.0565 c -0.06857,-0.0686 -0.193091,0.055 -0.276722,0.27467 -0.120856,0.31739 -0.09528,0.34297 0.124666,0.12466 0.152198,-0.15106 0.220623,-0.33076 0.152056,-0.39933 z m 0.573384,-0.45107 c 0.07605,-0.19819 0.03872,-0.28758 -0.08752,-0.20956 -0.121082,0.0748 -0.220149,0.23036 -0.220149,0.34562 0,0.32034 0.159624,0.24975 0.307673,-0.13606 z m 1.917169,-2.6497 c 0.0025,-0.24651 -0.110541,-0.12456 -0.956601,1.03183 -0.87001,1.18912 -0.736945,1.30747 0.17715,0.15755 0.427509,-0.5378 0.778262,-1.07302 0.779451,-1.18938 z m 38.196027,1.88301 c -0.0753,-0.12182 -0.3568,-0.32791 -0.62557,-0.45797 -0.46298,-0.22404 -0.46103,-0.21239 0.0371,0.2215 0.5674,0.49426 0.80742,0.5907 0.5885,0.23647 z m -3.0072,-19.15343 c 0,-0.12249 -0.17538,-0.22117 -0.38973,-0.21929 -0.33306,0.003 -0.34115,0.0348 -0.0557,0.21929 0.42028,0.27161 0.4454,0.27161 0.4454,0 z m 55.56375,-4.00861 c -0.0757,-0.12248 -0.25699,-0.22116 -0.40287,-0.21929 -0.15936,0.002 -0.13189,0.0896 0.0688,0.21929 0.42784,0.27649 0.50493,0.27649 0.33405,0 z m 2.22701,-0.002 c 0.28655,-0.12417 0.0483,-0.14711 -0.6681,-0.0643 -0.61243,0.0708 -1.15526,0.16468 -1.2063,0.20867 -0.19316,0.16648 1.44892,0.04 1.8744,-0.14434 z m -158.896749,-1.11189 0.556751,-0.1783 -0.556751,-0.0188 c -0.306213,-0.0103 -0.707073,0.0784 -0.890801,0.19709 -0.296934,0.19189 -0.296934,0.21379 0,0.19709 0.183728,-0.0103 0.584588,-0.099 0.890801,-0.19709 z m 130.368159,-0.45192 c 0.28336,-0.27317 -1.57932,-0.0597 -2.04442,0.23433 -0.29029,0.18351 -0.11426,0.20757 0.73115,0.1 0.61243,-0.078 1.2034,-0.22838 1.31327,-0.3343 z M 44.470141,101.89546 c -0.183728,-0.11874 -1.18588,-0.2032 -2.227004,-0.18769 -1.501426,0.0224 -1.708705,0.0612 -1.002152,0.18769 1.419359,0.25413 3.622398,0.25413 3.229156,0 z m 17.036336,-1.69478 c 0.803176,-0.0823 1.513524,-0.235705 1.578552,-0.340923 0.06503,-0.105218 -0.06306,-0.191288 -0.284636,-0.191267 -0.632182,6e-5 -3.92303,0.66061 -4.063014,0.81555 -0.06917,0.0766 0.19701,0.0778 0.591509,0.003 0.394499,-0.0751 1.374414,-0.2038 2.177589,-0.28609 z m 105.833983,0.001 c -0.074,-0.074 -0.26609,-0.0819 -0.42685,-0.0176 -0.17765,0.0711 -0.12488,0.12386 0.13455,0.13454 0.23476,0.01 0.3663,-0.043 0.2923,-0.11696 z M 74.980098,78.05187 c 0,-0.130537 -0.105243,-0.43399 -0.233874,-0.674338 -0.337997,-0.631554 -0.692794,-0.301498 -0.390082,0.362881 0.254324,0.558182 0.623956,0.742689 0.623956,0.311457 z m 2.672405,-0.06944 c 0,-0.04624 -0.175376,-0.221621 -0.389726,-0.389725 -0.353215,-0.277011 -0.361092,-0.269134 -0.08408,0.08408 0.290929,0.370963 0.473807,0.488934 0.473807,0.305644 z m -0.941837,-0.987664 c 0.04848,-0.145451 -0.09558,-0.256545 -0.320132,-0.246875 -0.27472,0.01183 -0.308974,0.05708 -0.104709,0.138308 0.256299,0.101926 0.256299,0.15385 0,0.333424 -0.250957,0.175831 -0.248088,0.197695 0.01656,0.126148 0.176072,-0.0476 0.3598,-0.205554 0.408284,-0.351005 z m 0.941837,-0.256621 c 0,-0.118176 -0.225484,-0.333188 -0.501076,-0.477806 -0.498389,-0.261531 -0.498801,-0.260379 -0.07683,0.214865 0.471308,0.530816 0.57791,0.579318 0.57791,0.262941 z m 48.953477,-2.886796 c 1.01878,-1.111247 1.74079,-2.020449 1.60445,-2.020449 -0.13633,0 -0.46881,0.236909 -0.73883,0.526465 -0.27003,0.289555 -1.29109,1.356522 -2.26903,2.371037 -1.22824,1.27418 -1.57256,1.736161 -1.1135,1.493984 0.36551,-0.192823 1.49812,-1.25979 2.51691,-2.371037 z m 6.93724,-0.782486 c 0.004,-0.115274 -0.14005,-0.01506 -0.31988,0.222701 -0.17983,0.237759 -0.33016,0.526605 -0.33405,0.64188 -0.004,0.115274 0.14005,0.01506 0.31988,-0.222701 0.17984,-0.237759 0.33016,-0.526605 0.33405,-0.64188 z m 0.78891,-0.792562 0.44303,-0.556751 -0.50108,0.424242 c -0.27559,0.233332 -0.50107,0.525627 -0.50107,0.649543 0,0.123915 0.0261,0.183545 0.0581,0.132509 0.0319,-0.05103 0.25741,-0.34333 0.50107,-0.649543 z m -0.78182,-6.817879 c 0,-0.06711 -0.35076,0.20882 -0.77945,0.613179 -0.4287,0.404359 -0.77946,0.810021 -0.77946,0.901471 0,0.09145 0.35076,-0.18448 0.77946,-0.613179 0.42869,-0.428698 0.77945,-0.83436 0.77945,-0.901471 z m 1.37461,-1.290907 c 0.43074,-0.639923 0.40673,-0.630694 -0.34444,0.13238 -0.44411,0.451143 -0.80747,0.889329 -0.80747,0.973745 0,0.25755 0.6617,-0.377845 1.15191,-1.106125 z m 1.3262,-1.634357 c 0.27701,-0.353215 0.26913,-0.361092 -0.0841,-0.08408 -0.21435,0.168104 -0.38973,0.343481 -0.38973,0.389726 0,0.18329 0.18288,0.06532 0.47381,-0.305644 z M 62.174824,53.569465 c -0.190019,-0.367456 -0.395596,-0.668101 -0.456839,-0.668101 -0.06124,0 0.04412,0.300645 0.234139,0.668101 0.190018,0.367456 0.395596,0.668101 0.456838,0.668101 0.06124,0 -0.04412,-0.300645 -0.234138,-0.668101 z m 40.150156,-3.593652 c -0.0556,-0.16679 -0.15654,-0.06584 -0.23529,0.235294 -0.0969,0.370428 -0.0679,0.457377 0.0974,0.292119 0.12941,-0.129412 0.19148,-0.366748 0.13792,-0.527413 z M 102.30168,48.851 c -0.0711,-0.177655 -0.12386,-0.124885 -0.13455,0.134548 -0.01,0.234764 0.043,0.366296 0.11697,0.292295 0.074,-0.074 0.0819,-0.266081 0.0176,-0.426843 z M 85.836743,178.82262 c -0.257541,-0.26175 -0.197762,-1.08921 0.100216,-1.38718 0.324292,-0.3243 0.846261,-0.35177 0.846261,-0.0445 0,0.12248 -0.143973,0.2227 -0.31994,0.2227 -0.194189,0 -0.34737,0.27096 -0.389726,0.68938 -0.03838,0.37916 -0.144947,0.613 -0.236811,0.51964 z m 22.325717,-6.32414 c 0,-0.11864 0.15032,-0.15803 0.33405,-0.0875 0.18373,0.0705 0.33405,0.16758 0.33405,0.21571 0,0.0481 -0.15032,0.0875 -0.33405,0.0875 -0.18373,0 -0.33405,-0.0971 -0.33405,-0.21571 z m 8.68532,-9.69446 c 0,-0.18373 0.10021,-0.33405 0.2227,-0.33405 0.12248,0 0.2227,0.15032 0.2227,0.33405 0,0.18373 -0.10022,0.33405 -0.2227,0.33405 -0.12249,0 -0.2227,-0.15032 -0.2227,-0.33405 z m 21.82464,-0.11135 c 0,-0.12249 0.10021,-0.2227 0.2227,-0.2227 0.12248,0 0.2227,0.10021 0.2227,0.2227 0,0.12248 -0.10022,0.2227 -0.2227,0.2227 -0.12249,0 -0.2227,-0.10022 -0.2227,-0.2227 z m -70.097511,-1.48198 c -0.510984,-0.21052 -0.736422,-0.89876 -0.498973,-1.5233 0.122274,-0.3216 0.322718,-0.52268 0.445433,-0.44684 0.122715,0.0759 0.224652,0.007 0.226528,-0.15362 0.0027,-0.22882 0.04522,-0.22551 0.197801,0.0154 0.106916,0.1688 0.300783,0.24115 0.430817,0.16079 0.443286,-0.27397 0.753378,0.7052 0.434215,1.37111 -0.289206,0.60341 -0.702496,0.7962 -1.235821,0.57647 z m 12.133984,-5.33051 c -0.510065,-0.67621 -0.491654,-1.57683 0.03803,-1.86031 0.315236,-0.16871 0.493395,-0.13985 0.704119,0.11405 0.22574,0.272 0.318718,0.28219 0.465375,0.051 0.1008,-0.15891 0.192475,-0.1887 0.203722,-0.0662 0.01125,0.12249 0.06156,0.42313 0.1118,0.6681 0.117312,0.57199 -0.297614,1.3824 -0.771188,1.50624 -0.206775,0.0541 -0.536028,-0.12672 -0.751859,-0.41286 z M 68.076385,155.4549 c 0,-0.18372 0.100215,-0.33405 0.222701,-0.33405 0.122485,0 0.2227,0.15033 0.2227,0.33405 0,0.18373 -0.100215,0.33406 -0.2227,0.33406 -0.122486,0 -0.222701,-0.15033 -0.222701,-0.33406 z m 51.431685,-0.12346 c -0.25795,-0.25794 -0.41006,-0.618 -0.33916,-0.80277 0.0707,-0.18427 0.12857,-0.42706 0.12857,-0.53953 0,-0.11247 0.15032,-0.20449 0.33405,-0.20449 0.18373,0 0.33405,0.11249 0.33405,0.24997 0,0.17395 0.10047,0.16659 0.33036,-0.0242 0.27414,-0.22752 0.36916,-0.17213 0.55835,0.32547 0.2553,0.6715 0.17137,0.9014 -0.45061,1.23427 -0.33598,0.17981 -0.52836,0.12854 -0.89561,-0.23872 z m -46.754976,-0.11238 c 0,-0.19096 0.100215,-0.28526 0.2227,-0.20956 0.122486,0.0757 0.222701,0.23194 0.222701,0.3472 0,0.11525 -0.100215,0.20956 -0.222701,0.20956 -0.122485,0 -0.2227,-0.15624 -0.2227,-0.3472 z m -0.856395,-2.67083 c 0.04232,-0.21831 0.211783,-0.44182 0.376588,-0.4967 0.191661,-0.0638 0.271916,0.0433 0.2227,0.29714 -0.04232,0.21831 -0.211784,0.44182 -0.376588,0.4967 -0.191662,0.0638 -0.271916,-0.0433 -0.2227,-0.29714 z m 54.081791,-2.10408 c 0,-0.12249 0.15033,-0.2227 0.33405,-0.2227 0.18373,0 0.33405,0.10021 0.33405,0.2227 0,0.12248 -0.15032,0.2227 -0.33405,0.2227 -0.18372,0 -0.33405,-0.10022 -0.33405,-0.2227 z m 0.2227,-1.11351 c 0,-0.12248 0.15708,-0.2227 0.34906,-0.2227 0.24789,0 0.30802,-0.12929 0.20748,-0.44608 -0.0861,-0.27113 -0.005,-0.58307 0.20769,-0.79536 0.41168,-0.41168 0.4783,-0.0979 0.0709,0.33394 -0.2227,0.23606 -0.2227,0.31549 0,0.39715 0.3926,0.14395 0.34619,0.65938 -0.0739,0.82058 -0.50955,0.19553 -0.76124,0.16659 -0.76124,-0.0875 z m -8.99173,-0.17799 c -0.0909,-0.14707 -0.0937,-0.26741 -0.006,-0.26741 0.0875,0 -0.0224,-0.20043 -0.24407,-0.4454 -0.2217,-0.24497 -0.32518,-0.4454 -0.22995,-0.4454 0.0952,0 0.0498,-0.14866 -0.10104,-0.33036 -0.22768,-0.27434 -0.17056,-0.36975 0.33684,-0.56267 0.47425,-0.18031 0.72891,-0.15506 1.13771,0.1128 0.28968,0.1898 0.52669,0.44959 0.52669,0.57731 0,0.43775 -0.46105,1.09372 -0.76873,1.09372 -0.16921,0 -0.34777,0.12034 -0.39679,0.26741 -0.0694,0.20807 -0.12581,0.20807 -0.2544,0 z m 7.91523,-3.35763 c -0.24212,-0.15348 -0.23585,-0.21178 0.0339,-0.3153 0.3442,-0.13208 0.59719,0.006 0.59719,0.32483 0,0.23564 -0.25029,0.23186 -0.6311,-0.01 z m -1.38975,-0.97406 c -0.16382,-0.55113 -0.15522,-1.05783 0.0179,-1.05783 0.12171,0 0.2213,0.25054 0.2213,0.55675 0,0.44228 -0.15823,0.77366 -0.23925,0.50108 z m 31.02002,-7.79451 c -0.12602,-0.15311 -0.3,-0.7544 -0.38661,-1.33621 -0.186,-1.24944 0.10346,-1.38324 1.06455,-0.49206 0.69854,0.64772 0.78675,1.36673 0.22042,1.79663 -0.49083,0.3726 -0.61415,0.37694 -0.89836,0.0316 z M 43.982984,136.48459 c 0.160762,-0.0643 0.352841,-0.0564 0.426842,0.0176 0.074,0.074 -0.05753,0.12664 -0.292294,0.11697 -0.259433,-0.0107 -0.312204,-0.0635 -0.134548,-0.13455 z m 113.033136,-6.19032 c -0.188,-0.48992 0.0186,-0.64232 0.34221,-0.25242 0.18216,0.21949 0.19161,0.36512 0.0302,0.4649 -0.1293,0.0799 -0.29687,-0.0157 -0.37237,-0.21248 z M 49.66117,129.04682 c -0.809472,-0.29945 -0.796168,-0.63541 0.05903,-1.4906 0.797742,-0.79775 0.837233,-0.81155 1.037549,-0.36262 0.151705,0.33998 0.09475,0.67844 -0.209795,1.24665 -0.345819,0.64523 -0.499014,0.75001 -0.886781,0.60657 z m 102.35911,-3.89624 c -0.14925,-0.17984 -0.29733,-0.6542 -0.32907,-1.05415 -0.0529,-0.66655 0.0139,-0.74952 0.80133,-0.99527 1.21169,-0.37817 1.95172,-0.0698 1.90822,0.79518 -0.0368,0.7309 -0.5237,1.4428 -0.89651,1.3107 -0.13473,-0.0477 -0.46268,-0.006 -0.72878,0.0919 -0.33108,0.12226 -0.5695,0.0754 -0.75519,-0.14832 z M 43.80204,122.82929 c 0,-0.12248 0.150322,-0.2227 0.33405,-0.2227 0.183728,0 0.334051,0.10022 0.334051,0.2227 0,0.12249 -0.150323,0.2227 -0.334051,0.2227 -0.183728,0 -0.33405,-0.10021 -0.33405,-0.2227 z m 103.33299,-1.32306 c 0,-0.11525 0.10022,-0.27149 0.2227,-0.34719 0.12249,-0.0757 0.2227,0.0186 0.2227,0.20956 0,0.19095 -0.10021,0.34719 -0.2227,0.34719 -0.12248,0 -0.2227,-0.0943 -0.2227,-0.20956 z m 19.15224,-24.27434 c 0,-0.115257 0.10021,-0.271494 0.2227,-0.347194 0.12248,-0.0757 0.2227,0.0186 0.2227,0.209558 0,0.190956 -0.10022,0.347193 -0.2227,0.347193 -0.12249,0 -0.2227,-0.0943 -0.2227,-0.209557 z m 1.44755,-0.235844 c 0.0757,-0.122485 0.33215,-0.2227 0.56989,-0.2227 0.23775,0 0.43226,0.100215 0.43226,0.2227 0,0.122486 -0.25645,0.222701 -0.56989,0.222701 -0.32322,0 -0.51032,-0.09639 -0.43226,-0.222701 z m -8.79667,-2.227004 c 0,-0.122485 0.10022,-0.2227 0.2227,-0.2227 0.12249,0 0.22271,0.100215 0.22271,0.2227 0,0.122486 -0.10022,0.222701 -0.22271,0.222701 -0.12248,0 -0.2227,-0.100215 -0.2227,-0.222701 z M 63.168813,88.852961 C 62.86709,88.6859 62.715429,88.545662 62.83179,88.541322 c 0.116361,-0.0043 0.09479,-0.124662 -0.04792,-0.267382 -0.197521,-0.197521 -0.16827,-0.32879 0.122485,-0.549669 0.502768,-0.381939 0.716027,-0.376387 0.716027,0.01864 0,0.177642 0.142501,0.403126 0.31667,0.501076 0.252511,0.14201 0.262138,0.25251 0.04751,0.545405 -0.234546,0.320079 -0.339704,0.328254 -0.817746,0.06357 z m -5.079871,-0.512677 c -0.869963,-0.754515 -0.401537,-1.686144 0.778777,-1.548873 0.854322,0.09936 1.082552,1.025044 0.388319,1.574994 -0.606086,0.480123 -0.58279,0.480645 -1.167096,-0.02612 z m 8.651241,-0.252254 c 0,-0.122485 0.100215,-0.222701 0.2227,-0.222701 0.122485,0 0.2227,0.100216 0.2227,0.222701 0,0.122485 -0.100215,0.2227 -0.2227,0.2227 -0.122485,0 -0.2227,-0.100215 -0.2227,-0.2227 z m 78.699837,-3.284831 c -0.13379,-0.21435 -0.21636,-0.640264 -0.18348,-0.946477 0.0329,-0.306213 0.0681,-0.631913 0.0783,-0.723776 0.0298,-0.267892 1.01768,-0.192329 1.31022,0.100215 0.4252,0.425202 0.31076,1.235927 -0.22771,1.613085 -0.62202,0.435681 -0.68016,0.433121 -0.97736,-0.04305 z M 48.208273,83.689697 c -0.186728,-0.21435 -0.28637,-0.538259 -0.221425,-0.7198 0.391775,-1.095128 1.627729,-1.121881 2.0037,-0.04337 0.18256,0.523689 0.148883,0.675871 -0.197425,0.892144 -0.594531,0.37129 -1.191359,0.322721 -1.58485,-0.128974 z M 150.72383,81.292688 c -0.91636,-0.501674 -1.20172,-1.221873 -0.48414,-1.221873 0.23775,0 0.4942,-0.100215 0.5699,-0.222701 0.20301,-0.328477 0.90787,-0.27059 1.21527,0.0998 0.2093,0.252194 0.20311,0.454954 -0.0284,0.930032 -0.35451,0.727465 -0.57195,0.798329 -1.27262,0.414738 z m 7.32352,-1.402189 c 0,-0.119588 0.1587,-0.27833 0.35266,-0.35276 0.21689,-0.08323 0.3187,-0.03346 0.26446,0.12928 -0.11097,0.332901 -0.61712,0.516196 -0.61712,0.22348 z m -9.24206,-2.046688 c -0.24071,-0.389473 0.11623,-0.718582 0.46522,-0.428947 0.17283,0.143431 0.31423,0.348728 0.31423,0.456215 0,0.268483 -0.60986,0.247148 -0.77945,-0.02727 z M 119.46801,58.74725 c -0.44083,-0.49957 -0.1569,-1.326426 0.54801,-1.595933 0.59112,-0.226 1.50846,0.458662 1.50846,1.125841 0,0.808278 -1.46295,1.142697 -2.05647,0.470092 z M 80.046533,58.544085 c 0.153106,-0.06178 0.403644,-0.06178 0.556751,0 0.153106,0.06178 0.02784,0.112327 -0.278376,0.112327 -0.306213,0 -0.431482,-0.05055 -0.278375,-0.112327 z m 50.591627,-4.124486 c -0.30041,-1.246173 -0.12814,-1.669027 0.68943,-1.692272 0.54064,-0.01537 0.66318,0.07134 0.6604,0.467307 -0.002,0.2674 -0.077,0.597943 -0.16702,0.734541 -0.1535,0.233001 -1.14569,0.644392 -1.18281,0.490424 z M 72.530394,51.342461 c 0,-0.122485 0.106129,-0.2227 0.235843,-0.2227 0.129714,0 0.173907,0.100215 0.09821,0.2227 -0.0757,0.122485 -0.181829,0.2227 -0.235843,0.2227 -0.05401,0 -0.09821,-0.100215 -0.09821,-0.2227 z m 64.936996,-0.636016 c -0.0648,-0.104838 -0.21742,-0.452628 -0.33917,-0.772867 -0.20683,-0.544 -0.1413,-0.635407 0.99753,-1.391319 0.84441,-0.560485 1.33802,-0.756916 1.60657,-0.63933 0.21321,0.09336 0.46281,0.153827 0.55467,0.134381 0.0919,-0.01945 0.16703,0.114967 0.16703,0.298695 0,0.183728 0.17538,0.335586 0.38973,0.337461 0.28663,0.0025 0.31409,0.0514 0.1038,0.18483 -0.15725,0.09978 -0.22599,0.337571 -0.15276,0.528421 0.10189,0.26552 -0.22428,0.483586 -1.38906,0.928672 -1.69127,0.646271 -1.7707,0.662296 -1.93834,0.391056 z m 2.87528,-3.149891 c 0.0757,-0.122485 0.23785,-0.222701 0.36034,-0.222701 0.12248,0 0.16076,0.100216 0.0851,0.222701 -0.0757,0.122485 -0.23785,0.2227 -0.36034,0.2227 -0.12248,0 -0.16076,-0.100215 -0.0851,-0.2227 z m 2.56105,-0.675091 c 0,-0.118641 0.15033,-0.215711 0.33405,-0.215711 0.18373,0 0.33406,0.03939 0.33406,0.08752 0,0.04814 -0.15033,0.145208 -0.33406,0.215711 -0.18372,0.0705 -0.33405,0.03112 -0.33405,-0.08752 z m 10.57827,-4.001618 c 0.0757,-0.122485 0.18183,-0.2227 0.23585,-0.2227 0.054,0 0.0982,0.100215 0.0982,0.2227 0,0.122485 -0.10612,0.222701 -0.23584,0.222701 -0.12971,0 -0.17391,-0.100216 -0.0982,-0.222701 z m 4.89941,-5.122109 c 0.0757,-0.122486 0.18183,-0.222701 0.23585,-0.222701 0.054,0 0.0982,0.100215 0.0982,0.222701 0,0.122485 -0.10613,0.2227 -0.23584,0.2227 -0.12971,0 -0.17391,-0.100215 -0.0982,-0.2227 z m -22.90362,-1.966165 c -0.47032,-0.519698 -0.46406,-0.614731 0.092,-1.395638 0.49943,-0.701387 1.16697,-0.832683 1.67099,-0.328662 0.46082,0.460824 0.3907,1.15581 -0.16925,1.677485 -0.60357,0.562311 -1.11367,0.577295 -1.59374,0.04682 z"
       id="path1" /></g></svg>
