<?xml version="1.0" encoding="UTF-8" standalone="no"?>
<!-- Created with Inkscape (http://www.inkscape.org/) -->

<svg
   width="200mm"
   height="200mm"
   viewBox="0 0 200 200"
   version="1.1"
   id="svg1"
   xml:space="preserve"
   inkscape:version="1.3.2 (091e20e, 2023-11-25, custom)"
   sodipodi:docname="hit.svg"
   inkscape:export-filename="hit.png"
   inkscape:export-xdpi="96"
   inkscape:export-ydpi="96"
   xmlns:inkscape="http://www.inkscape.org/namespaces/inkscape"
   xmlns:sodipodi="http://sodipodi.sourceforge.net/DTD/sodipodi-0.dtd"
   xmlns="http://www.w3.org/2000/svg"
   xmlns:svg="http://www.w3.org/2000/svg"><sodipodi:namedview
     id="namedview1"
     pagecolor="#505050"
     bordercolor="#ffffff"
     borderopacity="1"
     inkscape:showpageshadow="0"
     inkscape:pageopacity="0"
     inkscape:pagecheckerboard="1"
     inkscape:deskcolor="#505050"
     inkscape:document-units="mm"
     inkscape:zoom="0.74029882"
     inkscape:cx="143.86083"
     inkscape:cy="350.53413"
     inkscape:window-width="2560"
     inkscape:window-height="1417"
     inkscape:window-x="1592"
     inkscape:window-y="1072"
     inkscape:window-maximized="1"
     inkscape:current-layer="layer1" /><defs
     id="defs1" /><g
     inkscape:label="Layer 1"
     inkscape:groupmode="layer"
     id="layer1"><path
       style="fill:#ffffff;fill-opacity:1"
       d="m 99.5094,191.92953 c -0.33252,-0.86588 -0.672242,-2.16964 -0.754939,-2.89724 -0.0827,-0.72761 -0.259237,-1.5351 -0.39231,-1.79444 -0.501564,-0.97746 -1.026215,-4.99061 -1.287359,-9.84723 -0.271096,-5.04171 -0.634485,-7.80521 -1.026355,-7.80521 -0.26504,0 -0.969272,1.91562 -1.215852,3.3073 -0.33292,1.87898 -0.61473,0.28826 -0.634822,-3.58335 -0.01058,-2.03921 -0.252305,-5.28863 -0.560944,-7.54063 -0.696691,-5.08345 -2.782258,-17.06211 -3.269154,-18.77672 -0.206184,-0.72607 -0.786324,-2.78266 -1.289199,-4.57018 -0.502876,-1.78753 -0.972337,-3.30806 -1.043246,-3.37897 -0.07091,-0.0709 -1.842921,1.12267 -3.937802,2.65241 -7.428921,5.42478 -8.64719,6.4219 -9.130886,7.47343 -1.101144,2.39382 -2.218615,3.23121 -2.218615,1.66255 0,-0.95623 -0.238041,-0.98329 -1.526611,-0.17359 -0.542812,0.34109 -1.403649,0.81985 -1.912972,1.06392 -1.233796,0.59122 -5.460859,4.00161 -9.486431,7.65364 -4.040663,3.66571 -7.234768,6.21111 -7.629096,6.07967 -0.163995,-0.0547 -1.800227,1.19271 -3.63607,2.77194 -2.330499,2.00474 -3.657468,2.95662 -4.396758,3.15395 -1.011567,0.27 -1.051489,0.2576 -0.893817,-0.27772 0.211668,-0.71865 6.641656,-13.30992 7.244573,-14.18639 0.596329,-0.86691 6.362183,-11.53937 6.362183,-11.77626 0,-0.26072 1.932163,-3.40327 2.218967,-3.60902 0.131666,-0.0944 0.160042,-0.37852 0.06306,-0.63125 -0.177789,-0.46331 3.27732,-7.2087 4.907628,-9.58113 1.405419,-2.04517 6.56868,-11.28689 6.56868,-11.75727 0,-0.66978 -0.574123,-0.89072 -3.96875,-1.52731 -1.67349,-0.31383 -3.459427,-0.67563 -3.96875,-0.80401 -0.509323,-0.12837 -2.831041,-0.4871 -5.159375,-0.79718 -2.328333,-0.31007 -5.423958,-0.79132 -6.879166,-1.06943 -6.825747,-1.30452 -21.783988,-3.682 -24.870833,-3.95301 -4.558438,-0.4002 -4.843183,-0.49578 -3.175,-1.06572 l 1.322917,-0.45197 -2.645833,-0.17648 c -3.538353,-0.23601 -6.466253,-0.63572 -7.855159,-1.07237 l -1.140674,-0.35861 0.992187,-0.0262 c 0.545703,-0.0144 0.992188,-0.13034 0.992188,-0.25767 0,-0.36799 -1.378901,-0.54553 -2.965291,-0.3818 -1.9082682,0.19695 -2.2025403,-0.25926 -0.54213,-0.84047 0.692154,-0.24228 1.972837,-0.71359 2.845962,-1.04735 3.317811,-1.26827 9.602892,-2.448218 19.976041,-3.750262 1.67349,-0.210057 3.518959,-0.517803 4.101042,-0.683879 0.582083,-0.166076 1.14763,-0.280923 1.256771,-0.255216 0.10914,0.02571 0.198437,-0.07198 0.198437,-0.217084 0,-0.145104 -0.386953,-0.426647 -0.859896,-0.625653 l -0.859895,-0.361828 0.661458,-0.284915 c 0.363802,-0.156703 3.280833,-0.593345 6.482291,-0.970315 6.019068,-0.708742 9.50853,-1.217583 12.7,-1.851944 1.018646,-0.202473 2.61765,-0.49203 3.553343,-0.643458 1.385441,-0.224214 1.87661,-0.446172 2.645834,-1.19565 1.039427,-1.012744 2.811805,-1.878922 3.051401,-1.491248 0.08292,0.134166 0.02976,0.318723 -0.118137,0.410127 -0.147895,0.0914 -0.2689,0.411173 -0.2689,0.710599 0,0.438313 0.116017,0.511439 0.595313,0.375227 0.327422,-0.09305 1.42875,-0.368224 2.447396,-0.611495 1.018645,-0.243272 1.886075,-0.463065 1.927622,-0.488429 0.04155,-0.02537 -0.656228,-1.401188 -1.55061,-3.057385 C 66.440515,80.975656 59.409472,67.06304 57.94237,63.764848 55.463895,58.192988 51.019583,49.85304 48.277411,45.628127 c -2.987905,-4.603519 -3.320378,-5.551731 -1.335574,-3.80905 1.059049,0.929858 1.098679,0.910663 0.518979,-0.251373 -0.449594,-0.901232 -0.425932,-1.656387 0.05694,-1.817146 0.399651,-0.133054 4.468483,2.631058 5.675027,3.85526 1.448256,1.469452 5.872,6.439525 6.712561,7.541557 0.410044,0.537595 0.805886,0.917094 0.879649,0.843331 0.292093,-0.292093 -3.922922,-6.055949 -5.335778,-7.296453 -0.52665,-0.462405 -0.957545,-0.929345 -0.957545,-1.037646 0,-0.1083 0.381274,-0.207751 0.847275,-0.221 0.725689,-0.02063 1.209784,0.330073 3.373437,2.443906 1.38939,1.357398 3.344876,3.075031 4.345525,3.816963 2.30763,1.710994 4.805192,4.106647 9.925998,9.520982 3.698195,3.910181 7.051381,6.969807 12.291424,11.215355 1.032747,0.836745 1.960749,1.521355 2.062226,1.521355 0.358613,0 1.008379,-2.562161 1.667031,-6.573446 0.366649,-2.232948 1.023337,-5.388104 1.459307,-7.011458 1.034393,-3.851605 2.797196,-12.943363 3.297713,-17.00814 0.393596,-3.196461 0.745164,-4.982897 2.414609,-12.269455 0.483441,-2.110052 1.19947,-5.741458 1.591177,-8.069792 1.205331,-7.164581 1.818114,-9.395361 3.48801,-12.6977807 l 0.7609,-1.504778 0.4441,1.9419047 c 0.24425,1.0680476 0.63255,3.013467 0.86289,4.323155 0.56191,3.194952 1.58271,8.033044 2.51572,11.923281 0.42106,1.755617 1.00184,5.029836 1.29062,7.276041 0.96074,7.472731 1.16739,8.843408 2.88951,19.16526 0.26707,1.600729 1.15762,5.767916 1.979,9.260416 0.82139,3.4925 1.73946,7.421562 2.04017,8.73125 0.76334,3.324641 0.77808,3.364013 1.19872,3.202598 0.82411,-0.316239 11.34678,-8.467817 15.05776,-11.664762 3.74185,-3.223544 20.94222,-16.85747 21.95053,-17.399158 0.50519,-0.2714 0.50681,-0.259953 0.06,0.421906 -0.68836,1.050574 -0.0536,0.845462 1.35024,-0.436271 2.18196,-1.992237 5.61106,-4.708084 5.61106,-4.443955 0,0.140242 -0.12348,0.579781 -0.27441,0.976753 -0.41082,1.080535 0.0717,1.273053 0.9342,0.372759 0.41917,-0.437522 0.96806,-0.795494 1.21975,-0.795494 0.25169,0 0.51767,-0.148828 0.59107,-0.330729 0.10517,-0.260648 0.13788,-0.261165 0.15434,-0.0024 0.0115,0.18056 -0.97341,1.789294 -2.18867,3.574965 -1.21525,1.78567 -2.41371,3.641461 -2.66323,4.123979 -0.24952,0.482518 -0.86288,1.413396 -1.36302,2.068618 -1.16706,1.52893 -3.477,5.50213 -8.11609,13.959991 -0.87158,1.589048 -2.4804,4.267954 -3.57515,5.953125 -3.84771,5.922843 -11.69892,20.509528 -11.26843,20.93549 0.12298,0.121685 1.89872,0.524182 3.94608,0.894438 2.04736,0.370255 4.85539,0.906299 6.24007,1.191208 1.38469,0.28491 3.42496,0.60024 4.53395,0.700734 1.18547,0.107424 1.99395,0.297927 1.96201,0.462307 -0.0299,0.153775 0.18379,0.330201 0.47483,0.392058 0.29104,0.06186 0.58986,0.208275 0.66405,0.325373 0.12534,0.197844 10.12145,3.000756 13.09428,3.671639 0.7276,0.1642 2.27542,0.402213 3.43958,0.528919 4.93017,0.536589 13.29053,1.663192 14.0417,1.892191 0.4469,0.13624 1.18905,0.24771 1.64924,0.24771 0.67499,0 3.46646,0.6843 7.26167,1.78011 0.25466,0.0735 0.46302,0.23085 0.46302,0.34959 0,0.29229 -0.57343,0.44136 -2.91042,0.75659 -1.09141,0.14722 -2.46062,0.44261 -3.04271,0.65642 l -1.05833,0.38876 1.71979,0.045 c 2.93908,0.0769 3.33727,0.36191 1.05833,0.75742 -1.0914,0.18941 -3.22788,0.63349 -4.74773,0.98684 -11.2106,2.60636 -16.92652,3.62788 -19.93606,3.56287 -1.4251,-0.0308 -3.27056,0.0858 -4.10104,0.25909 -1.38184,0.28834 -1.45383,0.33709 -0.8485,0.57458 0.55386,0.2173 -0.0272,0.39989 -3.57187,1.12243 -5.04232,1.02782 -7.52075,1.70795 -10.17071,2.79105 -1.70803,0.6981 -1.99872,0.75084 -2.19596,0.39839 -0.31194,-0.55741 -1.84927,-0.52215 -5.36042,0.12294 -1.5841,0.29104 -2.90995,0.52916 -2.94632,0.52916 -0.18171,0 2.66467,6.01038 6.26503,13.22917 3.24082,6.4979 4.71815,9.1198 7.58433,13.46033 3.76444,5.70088 6.35491,9.95015 7.71129,12.64923 0.45208,0.89959 1.49669,2.74506 2.32138,4.10105 1.91568,3.14988 4.59658,8.28856 4.59658,8.81062 0,0.66263 -0.76854,0.45776 -1.96709,-0.52436 -0.62156,-0.50932 -1.38704,-0.92604 -1.70106,-0.92604 -1.31914,0 -4.55411,-2.16152 -7.92034,-5.29215 -0.6256,-0.58182 -1.26818,-1.05785 -1.42796,-1.05785 -0.15978,0 -0.79905,-0.41672 -1.42062,-0.92604 -0.62156,-0.50932 -1.19044,-0.92604 -1.26418,-0.92604 -0.15569,0 -2.87826,-2.49522 -6.65419,-6.09851 -1.45622,-1.38965 -3.05285,-2.80971 -3.54805,-3.15569 l -0.90037,-0.62906 -0.61319,0.76901 c -0.72264,0.90627 -1.03833,0.71865 -1.36658,-0.8122 -0.18631,-0.8689 -0.32707,-1.0427 -0.8024,-0.99073 -0.43395,0.0474 -0.57646,-0.0784 -0.57646,-0.50914 v -0.57217 l -0.59532,0.55196 c -0.4785,0.44365 -0.65589,0.48547 -0.90405,0.21311 -0.23772,-0.26089 -0.20729,-0.44031 0.13229,-0.77998 0.2809,-0.28098 0.34275,-0.50973 0.17034,-0.63002 -0.14888,-0.10388 -0.48062,-0.5187 -0.7372,-0.92181 -0.81715,-1.28386 -11.27967,-9.2105 -14.26817,-10.8099 -0.64798,-0.34679 -0.86517,0.23228 -1.65,4.39909 -0.35631,1.89177 -1.47603,7.43304 -2.48824,12.31394 -1.94137,9.36125 -3.54447,18.40884 -4.66267,26.31522 -0.78369,5.54116 -1.73677,9.50775 -2.73338,11.37596 -0.38847,0.72822 -0.78034,1.38357 -0.87082,1.45633 -0.0905,0.0728 -0.57085,1.01934 -1.06749,2.1035 l -0.90298,1.9712 z M 53.580496,159.59021 c -0.220815,-0.22081 -0.676162,0.24568 -0.667913,0.68426 0.0074,0.39281 0.05548,0.38519 0.394141,-0.0625 0.21215,-0.28042 0.335347,-0.56023 0.273772,-0.62181 z m 98.272534,-1.52056 c -0.18408,-0.2218 -0.38918,-0.34879 -0.45577,-0.28219 -0.18349,0.18349 0.18932,0.68545 0.50908,0.68545 0.17545,0 0.15538,-0.15181 -0.0533,-0.40326 z m -4.58392,-7.12595 c -0.0862,-0.22456 -0.28048,-0.40828 -0.4318,-0.40828 -0.17414,0 -0.15658,0.18982 0.0478,0.51713 0.36506,0.58456 0.6221,0.5117 0.38397,-0.10885 z m -38.59114,-4.44318 c 0.22062,-2.08405 -0.007,-2.86988 -0.30606,-1.05833 -0.17907,1.08331 -0.1948,3.80075 -0.0195,3.37343 0.0597,-0.14552 0.2062,-1.18731 0.32559,-2.3151 z m 34.5323,0.31886 c -0.54345,-0.92 -1.93613,-2.32874 -1.93356,-1.95586 0.002,0.26281 2.06734,2.76148 2.28279,2.76148 0.0697,0 -0.0875,-0.36253 -0.34923,-0.80562 z m -5.87532,-8.38865 c -0.45663,-0.83073 -1.07001,-1.52811 -1.07862,-1.22631 -0.009,0.30003 0.98714,1.68933 1.21072,1.68933 0.0673,0 0.008,-0.20836 -0.1321,-0.46302 z m -1.6162,-2.18281 c -0.15576,-0.29105 -0.40226,-0.52917 -0.54779,-0.52917 -0.17018,0 -0.16354,0.1888 0.0186,0.52917 0.15576,0.29104 0.40227,0.52916 0.54779,0.52916 0.17018,0 0.16354,-0.1888 -0.0186,-0.52916 z m 40.74583,-30.43506 c 0.53327,-0.17721 0.42769,-0.2143 -0.54481,-0.19138 -0.66345,0.0156 -1.34806,-0.0592 -1.52135,-0.16631 -0.1733,-0.1071 -0.31509,-0.0774 -0.31509,0.0661 0,0.48842 1.30729,0.64852 2.38125,0.29163 z M 18.243752,104.49792 c 0.310418,-0.20061 0.241772,-0.25737 -0.315114,-0.26054 -0.391594,-0.002 -0.785574,0.11502 -0.87551,0.26054 -0.208801,0.33784 0.667846,0.33784 1.190624,0 z m 26.061458,-2.64584 c -0.08994,-0.14552 -0.960167,-0.26276 -1.933844,-0.26053 -1.240661,0.003 -1.651582,0.0808 -1.373448,0.26053 0.536103,0.34646 3.521414,0.34646 3.307292,0 z m 123.03125,-1.5875 C 167.42639,100.11906 167.30733,100 167.07187,100 c -0.23545,0 -0.35452,0.11906 -0.26458,0.26458 0.0899,0.14552 0.209,0.26459 0.26458,0.26459 0.0556,0 0.17465,-0.11907 0.26459,-0.26459 z M 126.56534,74.01933 c 1.73052,-1.896085 2.07759,-2.440737 1.38629,-2.17546 -0.38585,0.148064 -4.13913,4.197238 -4.13913,4.465442 0,0.418219 1.16754,-0.553011 2.75284,-2.289982 z m 8.08514,-2.194562 c -0.0127,-0.341551 -1.83466,1.759356 -1.83314,2.113774 6.3e-4,0.145521 0.41558,-0.210365 0.92211,-0.790858 0.50653,-0.580493 0.9165,-1.175805 0.91103,-1.322916 z m -0.80452,-6.353073 c 0.78897,-0.798792 1.37747,-1.509369 1.30778,-1.57906 -0.0697,-0.06969 -0.83055,0.584549 -1.6908,1.453869 -0.86024,0.869319 -1.44875,1.579896 -1.30778,1.57906 0.14096,-8.37e-4 0.90182,-0.655078 1.6908,-1.453869 z m 2.4357,-2.976381 c 0.32911,-0.419644 0.31975,-0.429003 -0.0999,-0.0999 -0.25466,0.199719 -0.46302,0.408078 -0.46302,0.463021 0,0.217761 0.21727,0.0776 0.56291,-0.363126 z M 62.164584,53.433335 c -0.169101,-0.315969 -0.366987,-0.514957 -0.439748,-0.442196 -0.07276,0.07276 0.0061,0.390811 0.175165,0.706779 0.169101,0.315968 0.366988,0.514957 0.439748,0.442196 0.07276,-0.07276 -0.0061,-0.390811 -0.175165,-0.706779 z M 85.729271,178.28292 c -0.01906,-0.48941 0.701824,-1.18794 0.959762,-0.93 0.0935,0.0935 0.02725,0.16999 -0.147211,0.16999 -0.174464,0 -0.424886,0.26789 -0.556493,0.59532 -0.16193,0.40286 -0.244708,0.4561 -0.256058,0.16469 z M 68.268802,160.62471 c -0.393081,-0.73448 -0.08118,-1.35805 0.679269,-1.35805 0.73615,0 1.099294,0.66613 0.704741,1.29274 -0.398091,0.63222 -1.063795,0.66364 -1.38401,0.0653 z m 12.434467,-5.02886 c -0.379462,-0.70903 -0.356125,-1.27138 0.05938,-1.43082 0.562457,-0.21583 1.296435,0.50232 1.200756,1.17486 -0.111689,0.78509 -0.892118,0.94361 -1.260134,0.25596 z M 119.63208,155.245 c -0.57078,-0.57078 -0.37995,-1.21761 0.34691,-1.17587 0.75877,0.0436 1.18233,0.90189 0.62068,1.25777 -0.47723,0.30238 -0.59311,0.29258 -0.96759,-0.0819 z m 7.09614,-6.17119 c 0.18408,-0.22179 0.38917,-0.34878 0.45577,-0.28218 0.18349,0.18348 -0.18932,0.68545 -0.50909,0.68545 -0.17544,0 -0.15537,-0.15181 0.0533,-0.40327 z m -9.72775,-0.79394 c -0.29816,-0.9715 -0.21312,-1.18404 0.47373,-1.18404 1.06191,0 1.25031,1.16778 0.2856,1.77025 -0.42449,0.2651 -0.5209,0.19066 -0.75933,-0.58621 z m 37.66928,-11.64373 c -0.0911,-0.23733 -0.16558,-0.79971 -0.16558,-1.24973 v -0.81824 l 0.67246,0.63175 c 0.73487,0.69037 0.78257,1.65369 0.0884,1.78589 -0.23635,0.045 -0.50424,-0.11234 -0.59531,-0.34967 z M 49.530731,128.92328 c -0.506051,-0.19554 -0.395841,-0.72404 0.284212,-1.36291 0.60593,-0.56925 0.972559,-0.53027 0.972559,0.10337 0,0.50843 -0.890621,1.40101 -1.256771,1.25954 z m 102.503989,-3.96425 c -0.097,-0.097 -0.17639,-0.45002 -0.17639,-0.78444 0,-1.20991 2.1681,-1.59394 2.33542,-0.41367 0.0476,0.33543 -0.0563,0.78191 -0.23084,0.99218 -0.323,0.3892 -1.60771,0.5264 -1.92819,0.20593 z M 62.972489,88.384782 c -0.197295,-0.36865 -0.177074,-0.538012 0.07582,-0.635059 0.369381,-0.141744 1.044975,0.708378 0.776393,0.976961 -0.287453,0.287452 -0.577721,0.170999 -0.852218,-0.341902 z m -4.930572,-0.314928 c -0.478661,-0.528914 -0.479914,-0.568128 -0.02871,-0.898056 0.984458,-0.719853 2.037099,0.284566 1.188045,1.133619 -0.433884,0.433884 -0.580442,0.404105 -1.159334,-0.235563 z m 87.466413,-4.057745 c 0,-1.028707 0.4694,-1.258185 1.07674,-0.526389 0.40777,0.491328 0.057,1.248703 -0.64208,1.386285 -0.33802,0.06653 -0.43466,-0.124647 -0.43466,-0.859896 z M 48.237349,83.463542 c -0.231592,-0.603519 0.09256,-1.190625 0.657369,-1.190625 0.641886,0 1.204914,0.665366 1.004646,1.187256 -0.198659,0.517696 -1.463665,0.520261 -1.662015,0.0034 z M 150.59429,81.067289 c -0.79996,-0.560311 -0.73907,-0.835822 0.23186,-1.049074 1.02764,-0.225708 1.45458,0.14253 1.04738,0.90338 -0.35675,0.666595 -0.51055,0.684112 -1.27924,0.145694 z m -1.51408,-3.292288 c -0.0899,-0.145521 -0.0374,-0.264584 0.11667,-0.264584 0.15411,0 0.2802,0.119063 0.2802,0.264584 0,0.145521 -0.0525,0.264583 -0.11667,0.264583 -0.0642,0 -0.19027,-0.119062 -0.2802,-0.264583 z M 119.607,58.626245 c -0.36276,-0.437099 -0.14423,-1.122881 0.42776,-1.342374 0.45563,-0.17484 1.39649,0.537266 1.39649,1.056955 0,0.650877 -1.34615,0.861494 -1.82425,0.285419 z m 11.08467,-5.041218 c 0,-0.512097 0.13572,-0.680859 0.54756,-0.680859 0.41589,0 0.52724,0.142515 0.46303,0.59261 -0.12547,0.879408 -1.01059,0.956701 -1.01059,0.08825 z m 6.66754,-3.448401 c -0.27015,-0.592917 -0.21528,-0.721115 0.55111,-1.287591 1.23708,-0.91438 1.6796,-1.003494 2.33754,-0.470729 0.99127,0.802682 0.33547,1.526551 -2.03751,2.24901 -0.41917,0.127615 -0.62295,0.01013 -0.85114,-0.49069 z m -1.88784,-14.541933 c -0.57511,-0.692964 0.78759,-2.091968 1.56793,-1.609696 0.36768,0.227239 0.33572,1.28207 -0.0505,1.668338 -0.4281,0.428102 -1.13613,0.400739 -1.51738,-0.05864 z"
       id="path1" /></g></svg>
