<?xml version="1.0" encoding="UTF-8" standalone="no"?>
<!-- Created with Inkscape (http://www.inkscape.org/) -->

<svg
   width="200mm"
   height="200mm"
   viewBox="0 0 200 200"
   version="1.1"
   id="svg1"
   xml:space="preserve"
   inkscape:version="1.3.2 (091e20e, 2023-11-25, custom)"
   sodipodi:docname="miss.svg"
   inkscape:export-filename="miss.png"
   inkscape:export-xdpi="96"
   inkscape:export-ydpi="96"
   xmlns:inkscape="http://www.inkscape.org/namespaces/inkscape"
   xmlns:sodipodi="http://sodipodi.sourceforge.net/DTD/sodipodi-0.dtd"
   xmlns="http://www.w3.org/2000/svg"
   xmlns:svg="http://www.w3.org/2000/svg"><sodipodi:namedview
     id="namedview1"
     pagecolor="#505050"
     bordercolor="#ffffff"
     borderopacity="1"
     inkscape:showpageshadow="0"
     inkscape:pageopacity="0"
     inkscape:pagecheckerboard="1"
     inkscape:deskcolor="#505050"
     inkscape:document-units="mm"
     inkscape:zoom="0.7402988"
     inkscape:cx="-7.4294325"
     inkscape:cy="558.55825"
     inkscape:window-width="2560"
     inkscape:window-height="1417"
     inkscape:window-x="1592"
     inkscape:window-y="1072"
     inkscape:window-maximized="1"
     inkscape:current-layer="layer1" /><defs
     id="defs1" /><g
     inkscape:label="Layer 1"
     inkscape:groupmode="layer"
     id="layer1"><path
       style="fill:#ffffff;fill-opacity:1"
       d="m 47.19502,181.36597 c -0.472439,-0.16947 -0.43598,-2.95878 0.04566,-3.49329 0.629434,-0.69853 1.162043,-2.55554 0.878348,-3.06247 -0.401369,-0.71721 -0.01159,-1.94042 0.991875,-3.11275 0.510612,-0.59654 0.928387,-1.18224 0.928387,-1.30157 0,-0.47412 -0.510049,-0.16608 -1.393145,0.84137 -1.050662,1.19862 -1.517272,1.33695 -1.517272,0.4498 0,-0.3347 -0.107842,-0.72165 -0.23965,-0.8599 -0.131807,-0.13824 -0.490147,-0.70351 -0.796311,-1.25615 -0.419861,-0.75786 -0.49101,-1.12747 -0.289517,-1.50396 0.28105,-0.52515 0.369378,-1.85687 0.123159,-1.85687 -0.07919,0 -0.918003,0.52998 -1.864025,1.17774 -1.741742,1.1926 -2.192457,1.26138 -3.004101,0.45844 -0.332559,-0.329 -0.317478,-0.42492 0.116715,-0.74241 0.274241,-0.20053 0.375254,-0.3646 0.224474,-0.3646 -0.150781,0 -0.486896,0.23508 -0.746923,0.52241 -0.260027,0.28733 -0.710008,0.59771 -0.999957,0.68973 -0.608216,0.19304 -1.981589,1.65956 -2.616948,2.79444 -0.351788,0.62837 -0.378927,0.92907 -0.14079,1.55996 0.242682,0.64294 0.217741,0.85882 -0.140621,1.21718 -0.371829,0.37183 -0.487941,0.38165 -0.792874,0.0671 -0.482034,-0.49725 -0.98465,-2.23541 -0.824022,-2.84965 0.106966,-0.40904 0.01328,-0.47447 -0.530514,-0.37052 -0.484545,0.0926 -0.741444,-0.0251 -0.964667,-0.44224 -0.412188,-0.77018 0.01808,-2.0192 1.153454,-3.34835 1.349701,-1.58006 2.096018,-3.24111 2.305702,-5.13173 0.207167,-1.86791 -0.192354,-3.22639 -1.090174,-3.70689 -0.380697,-0.20374 -0.46528,-0.61092 -0.46528,-2.23981 0,-1.09494 0.09293,-1.9908 0.206502,-1.9908 0.354753,0 0.539399,-1.24969 0.280196,-1.89638 -0.136053,-0.33944 -0.254916,-0.46833 -0.26414,-0.28643 -0.02461,0.48535 -0.810521,0.40435 -0.810521,-0.0835 0,-0.22785 0.123252,-0.64457 0.273892,-0.92604 0.150641,-0.28148 0.220423,-0.51177 0.155072,-0.51177 -0.06535,0 -1.274034,1.3138 -2.685961,2.91955 -1.411926,1.60576 -2.940224,3.11066 -3.396217,3.34421 -0.455993,0.23356 -0.894527,0.52531 -0.974522,0.64834 -0.07999,0.12302 -0.524645,0.29952 -0.988113,0.39221 -1.580672,0.31614 -1.409498,-1.08274 0.433618,-3.54363 0.963819,-1.28687 1.492566,-1.9183 5.1431,-6.14193 1.703193,-1.97058 2.318064,-2.86351 3.097265,-4.49792 0.279384,-0.58602 0.972127,-0.63046 2.026738,-0.13002 0.835607,0.39652 0.925079,0.53759 0.834276,1.31538 -0.110903,0.94996 0.418,1.04549 0.660217,0.11925 0.08975,-0.3432 0.364513,-0.51086 0.837217,-0.51086 0.937713,0 1.567972,-0.36113 3.390643,-1.94276 1.682024,-1.45959 3.121127,-3.31473 3.762924,-4.85077 0.388454,-0.9297 0.274452,-0.85675 -1.778063,1.13778 -2.427547,2.35897 -3.485874,3.14155 -3.901284,2.88481 -0.505397,-0.31235 -0.308277,-2.30991 0.325671,-3.30026 0.331039,-0.51714 0.717992,-1.12787 0.859895,-1.35716 1.393504,-2.25172 3.174321,-4.81871 3.990038,-5.75151 0.548936,-0.62773 1.198009,-1.58023 1.442384,-2.11667 0.548028,-1.20299 1.524114,-2.12803 2.529048,-2.3968 0.492592,-0.13173 0.761526,-0.37747 0.762185,-0.69644 6.96e-4,-0.33676 0.282584,-0.56606 0.889928,-0.72392 1.136594,-0.29543 1.331025,-0.0889 0.624363,0.66335 -0.308761,0.32866 -0.823791,1.19078 -1.144511,1.91582 -0.587074,1.32718 -1.343901,3.87363 -1.19541,4.02212 0.134439,0.13444 2.134452,-2.35018 3.1327,-3.89176 0.518276,-0.80036 1.521124,-2.13773 2.228551,-2.97193 1.634546,-1.92746 8.779491,-9.63524 9.785991,-10.55688 4.347861,-3.98124 4.758405,-4.51939 4.312976,-5.65348 -0.340344,-0.86654 -0.271855,-1.89732 0.149289,-2.24683 0.260289,-0.21602 0.33676,-0.55659 0.224981,-1.00195 -0.142927,-0.56947 -0.09602,-0.64655 0.300758,-0.49429 0.292382,0.11219 0.585051,0.0232 0.774186,-0.23548 0.419569,-0.5738 0.876479,-0.30754 2.34547,1.36678 1.063273,1.2119 1.217775,1.5198 0.982878,1.95871 -0.223037,0.41674 -0.194454,0.52077 0.14309,0.52077 0.259812,0 0.350683,0.12701 0.236621,0.33073 -0.101847,0.1819 0.01522,0.14285 0.260143,-0.0868 0.246846,-0.23142 0.573918,-1.19357 0.733859,-2.15878 0.269101,-1.62397 0.248946,-1.79688 -0.299181,-2.56666 -0.323247,-0.45396 -0.709742,-1.2673 -0.858878,-1.80742 -0.149137,-0.54013 -0.564662,-1.34039 -0.92339,-1.778349 -1.294955,-1.580975 -3.882739,-4.103583 -4.209607,-4.103583 -0.183794,0 -0.410498,-0.240483 -0.503786,-0.534406 -0.167582,-0.528006 -0.175224,-0.527477 -0.638077,0.04412 -0.602276,0.743781 -1.222053,0.507882 -1.432691,-0.545308 -0.116924,-0.584623 -0.313091,-0.816491 -0.690775,-0.816491 -0.379714,0 -0.480934,0.121291 -0.361329,0.432978 0.114083,0.297295 0.04965,0.394143 -0.205619,0.309054 -0.204472,-0.06816 -0.378775,-0.292763 -0.387339,-0.499123 -0.02695,-0.649363 -0.622561,-1.830408 -0.923092,-1.830408 -0.165251,0 -0.252642,-0.363245 -0.204986,-0.852039 0.06248,-0.640879 -0.03168,-0.875186 -0.379949,-0.945442 -0.360795,-0.07278 -0.463021,0.08612 -0.463021,0.719747 0,0.447233 -0.119063,0.81315 -0.264584,0.81315 -0.14552,0 -0.264583,0.178594 -0.264583,0.396875 0,0.652986 -1.234997,0.497072 -1.411587,-0.178208 -0.179372,-0.685922 -0.01775,-1.012417 0.50116,-1.012417 0.209693,0 0.38126,-0.214312 0.38126,-0.47625 0,-0.261937 0.137175,-0.613425 0.304834,-0.781083 0.230055,-0.230055 0.132699,-0.383263 -0.396875,-0.624553 -0.38594,-0.175846 -0.701709,-0.486229 -0.701709,-0.68974 0,-0.221265 0.13296,-0.293407 0.33073,-0.179449 0.181901,0.104813 0.08482,-0.09652 -0.215737,-0.447406 -0.300556,-0.350888 -0.748564,-0.963536 -0.995574,-1.361441 -0.402413,-0.648242 -0.572042,-0.711941 -1.631437,-0.612633 -1.166083,0.109308 -1.870614,-0.241481 -1.088088,-0.541764 0.333427,-0.127948 0.295505,-0.269378 -0.221824,-0.827294 -0.343203,-0.370129 -0.69033,-1.004587 -0.771394,-1.409906 -0.08786,-0.439314 -0.464746,-0.924412 -0.933179,-1.201122 -0.432184,-0.255297 -0.853802,-0.711409 -0.936928,-1.01358 -0.12293,-0.446864 -0.196757,-0.478507 -0.395563,-0.169542 -0.200567,0.311702 -0.317932,0.318856 -0.654089,0.03987 -0.336823,-0.279538 -0.481542,-0.268112 -0.813915,0.06426 -0.222338,0.222339 -0.404251,0.531819 -0.404251,0.687734 0,0.850905 -1.64603,-0.382477 -2.358231,-1.767039 -0.168421,-0.327422 -0.481634,-0.595312 -0.696029,-0.595312 -0.318576,0 -0.331657,-0.09311 -0.07158,-0.509563 0.252262,-0.403936 0.240831,-0.664451 -0.05515,-1.256771 -0.205355,-0.410964 -0.40865,-1.044864 -0.451767,-1.408666 -0.161918,-1.366213 -0.06806,-3.78673 0.15785,-4.070773 0.380345,-0.47822 -0.04491,-1.088602 -0.75843,-1.088602 -0.555424,0 -0.674942,-0.140421 -0.745566,-0.875957 -0.10636,-1.107712 -0.466999,-0.992788 -1.503393,0.479082 -0.446307,0.633838 -0.9332,1.193011 -1.081983,1.242605 -0.289724,0.09658 -1.166975,-1.536622 -1.166975,-2.172582 0,-0.210572 0.28973,-0.455576 0.643844,-0.544453 0.411521,-0.103285 0.59225,-0.296047 0.500859,-0.534207 -0.191308,-0.498542 -1.144703,-0.478335 -1.144703,0.02426 0,0.218281 -0.19248,0.396875 -0.427734,0.396875 -0.309259,0 -0.38595,-0.15978 -0.276882,-0.576858 0.109422,-0.418427 -0.105186,-0.860262 -0.781404,-1.608754 -0.512741,-0.567543 -1.157819,-1.558113 -1.433507,-2.201267 -0.275688,-0.643154 -0.624545,-1.169371 -0.775237,-1.169371 -0.40045,0 -0.335545,-1.580485 0.07132,-1.736613 0.583224,-0.223804 0.290066,-1.695455 -0.502542,-2.52276 -0.580578,-0.605993 -0.641484,-0.76771 -0.289137,-0.76771 0.488894,0 0.553834,-0.214752 0.222734,-0.736566 -0.121288,-0.191149 -0.41307,-0.263891 -0.667261,-0.166348 -0.268417,0.103001 -0.663114,-0.01796 -0.972657,-0.298097 -0.728484,-0.65927 -0.93845,-0.300194 -0.345269,0.590465 0.272102,0.408561 0.849339,1.422792 1.28275,2.253847 0.895932,1.717931 0.784871,2.029342 -0.759291,2.129026 -0.954101,0.06159 -1.024189,0.0065 -1.770633,-1.391077 -0.838709,-1.570358 -1.062235,-3.439583 -0.411314,-3.439583 0.45891,0 0.721993,-0.922825 0.364888,-1.279929 -0.14642,-0.146421 -0.449122,-0.196033 -0.67267,-0.11025 -0.331018,0.127024 -0.38125,-0.01185 -0.270661,-0.74828 0.123634,-0.82331 0.02216,-0.998981 -1.133635,-1.962583 -1.891246,-1.576754 -2.604644,-2.943304 -3.072882,-5.886261 -0.27758,-1.744639 0.669684,-2.989501 1.653516,-2.172993 0.247902,0.20574 0.384178,0.219033 0.384178,0.03747 0,-0.154751 -0.132669,-0.363359 -0.29482,-0.463574 -0.175195,-0.108276 -0.2398,-0.592409 -0.159222,-1.193168 0.08501,-0.633772 0.02225,-1.052502 -0.168201,-1.122305 -0.224346,-0.08223 -0.227186,-0.241336 -0.01086,-0.608384 0.369675,-0.627233 1.172596,-0.797734 1.541652,-0.327372 0.15514,0.197725 0.698791,0.508518 1.208114,0.69065 l 0.926041,0.331151 -1.190625,-1.061593 c -0.654843,-0.583877 -1.510819,-1.23823 -1.902167,-1.454119 -0.391349,-0.215889 -0.897365,-0.657822 -1.12448,-0.982074 -0.227115,-0.324252 -0.412936,-0.457881 -0.412936,-0.296953 0,0.160927 -0.208359,0.352505 -0.463021,0.425728 -0.254661,0.07322 -0.68512,0.224183 -0.956574,0.335466 -0.501314,0.205515 -0.49528,-0.0059 0.04081,-1.429848 0.193859,-0.514922 -0.773875,0.02838 -2.018065,1.132975 -0.532828,0.473047 -1.18375,0.93827 -1.446492,1.033831 -0.63248,0.230035 -1.771245,-0.905269 -1.771245,-1.765862 0,-0.684602 1.11474,-1.799372 2.606746,-2.606817 0.491036,-0.265739 0.832837,-0.660449 0.832837,-0.961757 0,-0.662352 1.085273,-1.365653 2.107358,-1.365653 0.579378,0 1.087747,0.284689 1.825147,1.022088 0.639939,0.63994 1.378965,1.089039 1.976586,1.201153 0.524974,0.09849 1.302613,0.471984 1.728085,0.829996 0.425473,0.358011 0.962491,0.65093 1.193373,0.65093 0.230882,0 0.490096,0.280138 0.576031,0.622529 0.12219,0.486843 0.3264,0.616596 0.936927,0.595312 0.724857,-0.02527 0.768607,-0.08398 0.611818,-0.820966 -0.09287,-0.436563 -0.334734,-1.289111 -0.537465,-1.894552 -0.271895,-0.811998 -0.296697,-1.289922 -0.09453,-1.821651 0.211272,-0.555687 0.181523,-0.862087 -0.129838,-1.337285 -0.616846,-0.941425 -0.46386,-2.487137 0.246163,-2.487137 0.180879,0 0.837798,0.368666 1.459821,0.819257 l 1.130951,0.819256 -0.694378,-0.910376 c -0.381908,-0.500708 -0.694379,-1.035059 -0.694379,-1.187449 0,-0.15239 -0.297656,-0.351779 -0.661458,-0.443087 -0.363802,-0.09131 -0.661458,-0.331195 -0.661458,-0.53308 0,-0.22774 -0.187003,-0.318162 -0.492679,-0.238225 -0.632407,0.165378 -0.96016,-0.608543 -0.392301,-0.926334 0.332466,-0.186057 0.356486,-0.343909 0.119666,-0.786413 -0.259605,-0.485076 -0.396413,-0.518729 -1.104833,-0.271772 l -0.808538,0.281858 0.525979,0.563703 c 0.704967,0.755529 1.022683,2.018912 0.507718,2.018912 -0.509511,0 -1.530012,-1.114337 -1.530012,-1.670698 0,-0.26958 -0.209296,-0.445968 -0.529167,-0.445968 -0.409214,0 -0.529166,-0.176389 -0.529166,-0.778136 0,-0.427974 0.127406,-0.856876 0.283124,-0.953115 0.538744,-0.332962 0.699709,-1.264295 0.338229,-1.956971 -0.785965,-1.506083 -0.100403,-3.027782 1.563226,-3.469797 0.617492,-0.164063 1.698041,-0.585157 2.401222,-0.935764 0.70318,-0.350607 1.372823,-0.637467 1.488095,-0.637467 0.115272,0 0.587015,0.327422 1.048317,0.727604 1.44366,1.252385 8.752786,8.61775 8.752786,8.820134 0,0.105913 0.577671,0.676223 1.283714,1.267355 1.212812,1.015424 1.330029,1.057304 2.122293,0.758257 0.656582,-0.247832 0.952205,-0.245569 1.36212,0.01043 0.48153,0.30072 0.523395,0.257777 0.521732,-0.535182 -0.0014,-0.68009 -0.188591,-0.989305 -0.886368,-1.464371 -0.512994,-0.349261 -1.067935,-0.531865 -1.321109,-0.434713 -0.35372,0.135735 -0.436549,-0.0058 -0.436549,-0.745823 0,-0.577323 -0.19468,-1.089525 -0.529166,-1.392231 -0.618705,-0.55992 -0.68187,-1.409818 -0.158023,-2.126222 0.307773,-0.420905 0.498812,-0.462671 1.118856,-0.244613 0.411241,0.144626 0.875483,0.51924 1.031648,0.832476 0.156165,0.313236 0.905062,1.127966 1.664216,1.81051 0.772107,0.694191 1.348955,1.429483 1.309187,1.668786 -0.04674,0.281263 0.2352,0.528939 0.823113,0.723079 0.573624,0.189421 1.223039,0.748407 1.811423,1.559189 0.50447,0.695148 1.920192,2.257888 3.14605,3.472755 2.03677,2.018508 2.311386,2.203885 3.186834,2.151236 0.618543,-0.0372 1.003598,0.07197 1.086681,0.308093 0.09608,0.273054 -0.07127,0.33636 -0.660558,0.249871 -0.658297,-0.09662 -0.76851,-0.03658 -0.664307,0.361898 0.06871,0.262753 0.264348,0.477733 0.434747,0.477733 0.519966,0 2.727205,2.465806 2.910963,3.251967 0.09493,0.406134 0.269237,0.6787 0.38735,0.605702 0.270368,-0.167097 1.357236,1.277973 1.357236,1.804544 0,0.614466 -0.450146,0.748311 -1.863126,0.553977 -1.175817,-0.161717 -1.29486,-0.23873 -1.16553,-0.754025 0.114803,-0.457409 -0.01971,-0.63572 -0.662609,-0.878389 -1.068083,-0.403156 -1.038298,-0.07545 0.138893,1.528209 1.090907,1.486113 2.533746,2.632433 2.696983,2.142724 0.168349,-0.505048 0.803751,-0.367553 0.988283,0.213855 0.0927,0.292086 0.0022,0.864488 -0.201077,1.272005 -0.343187,0.687935 -0.327411,0.760864 0.220533,1.019452 0.504805,0.23823 0.632298,0.186034 0.88149,-0.360882 0.16023,-0.351667 0.402566,-0.570645 0.538524,-0.486619 0.135958,0.08403 0.343811,-0.0075 0.461895,-0.20347 0.118085,-0.195936 0.423058,-0.432828 0.67772,-0.526428 0.254661,-0.0936 0.463021,-0.352511 0.463021,-0.57536 0,-0.222848 0.148828,-0.404734 0.330729,-0.40419 0.762149,0.0023 2.098782,1.156603 4.449376,3.842507 3.113133,3.557218 8.280088,8.284315 8.402316,7.687035 0.129045,-0.630596 0.868958,-0.485331 1.864337,0.366021 0.490353,0.4194 1.026134,0.712171 1.190625,0.650602 0.164491,-0.06157 0.433429,0.155993 0.59764,0.483471 1.736251,3.462528 3.60443,6.422328 4.766347,7.551436 0.762961,0.741418 0.801957,1.528882 0.09446,1.907522 -0.560265,0.299845 -0.714549,1.177114 -0.256775,1.460034 0.297304,0.183743 2.005123,-1.573704 2.254418,-2.31993 0.08508,-0.254661 0.387053,-0.463021 0.671061,-0.463021 0.414592,0 0.484602,-0.12662 0.355152,-0.642363 -0.233533,-0.930483 0.0991,-1.738887 0.71553,-1.738887 0.79172,0 1.55176,0.489082 1.55633,1.001497 0.003,0.360868 0.0513,0.379097 0.235,0.08908 0.28481,-0.449657 0.81756,-0.161083 0.8241,0.446387 0.003,0.246074 0.34901,0.955226 0.7697,1.575894 l 0.76489,1.128487 0.95009,-1.109966 c 0.52255,-0.610482 0.95009,-1.261213 0.95009,-1.446069 0,-0.184857 0.1631,-0.431317 0.36245,-0.547688 0.4776,-0.278807 1.37015,-2.089573 1.60407,-3.254293 0.18823,-0.937153 0.99239,-1.719685 5.16606,-5.027083 2.77891,-2.202137 7.1647,-7.460586 9.49043,-11.37878 0.73365,-1.235994 1.66915,-2.774646 2.07889,-3.419227 0.40973,-0.644581 1.10216,-1.738594 1.53872,-2.43114 0.43656,-0.692546 2.14597,-2.605943 3.79869,-4.251993 1.95197,-1.944086 3.11089,-3.315574 3.30729,-3.913882 0.22371,-0.681477 0.61206,-1.085546 1.49298,-1.553396 0.65484,-0.347783 2.447,-1.381992 3.98256,-2.298241 1.87804,-1.120597 3.48028,-1.853341 4.8948,-2.238511 1.15656,-0.314931 2.83185,-0.853354 3.72284,-1.196495 0.891,-0.343141 1.855,-0.56244 2.14222,-0.487329 0.35434,0.09266 0.80046,-0.141671 1.38773,-0.728946 0.73863,-0.738633 1.09366,-0.882013 2.42185,-0.978085 1.6404,-0.118656 1.82514,0.0092 1.12737,0.780234 -0.6378,0.704762 -0.31118,1.135353 1.12607,1.484499 2.10967,0.512497 4.32997,0.406157 4.32997,-0.20738 0,-0.391669 1.87514,-0.837978 2.79538,-0.66534 0.82344,0.154479 0.90879,0.25487 0.90879,1.068928 0,0.494141 -0.121,0.973223 -0.2689,1.064627 -0.14789,0.0914 -0.20196,0.274491 -0.12015,0.40686 0.0818,0.132369 -0.46336,0.82449 -1.21148,1.538047 -0.79002,0.753517 -1.243,1.369826 -1.08058,1.470205 0.19087,0.117966 0.19619,0.392333 0.0167,0.864312 -0.22721,0.597621 -0.20946,0.647129 0.13081,0.36473 0.21654,-0.179714 0.52154,-0.247752 0.67777,-0.151196 0.15623,0.09656 0.70137,-0.19085 1.21142,-0.63868 0.98991,-0.869152 1.43506,-0.976092 2.24927,-0.540345 0.54783,0.293194 0.72163,1.681844 0.24718,1.975066 -0.14552,0.08994 -0.26458,0.39462 -0.26458,0.677073 0,0.282454 -0.11532,0.513552 -0.25628,0.513552 -0.14095,0 -0.1833,0.190183 -0.0941,0.42263 0.20183,0.525947 -1.12304,1.670962 -1.94911,1.684521 -0.67711,0.01112 -0.84594,0.226143 -0.97785,1.245458 -0.0533,0.411638 -0.14133,0.927026 -0.19569,1.145308 -0.0695,0.278926 0.14999,0.421013 0.73844,0.478097 0.65322,0.06337 0.87525,-0.03842 1.01001,-0.463021 0.095,-0.299333 0.28378,-0.544243 0.41949,-0.544243 0.13572,0 0.24676,-0.119063 0.24676,-0.264583 0,-0.145521 -0.18852,-0.264584 -0.41893,-0.264584 -0.2304,0 -0.36898,-0.148828 -0.30795,-0.330729 0.061,-0.181901 0.30451,-0.332111 0.54106,-0.3338 0.23655,-0.0017 0.57753,-0.150517 0.75774,-0.330729 0.18022,-0.180212 0.51816,-0.327658 0.75099,-0.327658 0.23284,0 0.5575,-0.134158 0.72147,-0.298129 0.1684,-0.168408 0.59436,-0.223777 0.97895,-0.12725 0.54403,0.136542 0.68083,0.331996 0.68083,0.972725 0,0.441017 -0.18931,1.167943 -0.42069,1.615392 -0.33689,0.651457 -0.36631,1.027834 -0.14769,1.889122 0.15015,0.591568 0.20201,1.190457 0.11523,1.330864 -0.0868,0.140408 -0.0203,0.170332 0.14769,0.0665 0.16801,-0.103833 0.30546,-0.353327 0.30546,-0.554432 0,-0.5115 0.43805,-0.726038 1.07176,-0.524906 0.36501,0.115848 0.49015,0.321029 0.3894,0.63845 -0.0817,0.257258 0.0317,0.813202 0.2519,1.235432 0.53311,1.022256 0.5143,1.192195 -0.25785,2.330019 -0.3638,0.536092 -0.66146,1.212411 -0.66146,1.502931 0,0.574299 -1.70555,3.891087 -2.98159,5.798282 -1.59776,2.388064 -2.36047,4.665349 -2.50432,7.477398 -0.0897,1.753076 -0.0251,2.841044 0.20116,3.38721 0.26936,0.650289 0.26738,1.004282 -0.0103,1.845742 -0.34635,1.049459 -1.38016,1.998992 -1.85614,1.704823 -0.14141,-0.0874 -0.25711,0.139864 -0.25711,0.505023 0,0.365159 -0.15536,0.759139 -0.34526,0.875511 -0.18989,0.116371 -0.86198,0.955725 -1.49354,1.86523 -0.63156,0.909505 -1.22988,1.653646 -1.32961,1.653646 -0.0997,0 -0.62087,0.863203 -1.15808,1.918229 -0.53722,1.055026 -1.80759,2.85899 -2.82305,4.008809 -1.70423,1.929718 -1.97467,2.398369 -1.87155,3.24324 0.0608,0.498029 -1.32686,1.439445 -1.8684,1.267568 -0.3664,-0.116292 -0.48759,-0.0188 -0.48759,0.392241 0,0.300848 -0.10036,0.546996 -0.22303,0.546996 -0.30095,0 -2.4228,3.583214 -2.4228,4.091444 0,0.221904 -1.37964,1.803123 -3.06586,3.513821 -2.77451,2.814781 -3.0798,3.219929 -3.21262,4.263352 -0.14399,1.13114 -0.16306,1.15035 -1.00605,1.01355 -0.68289,-0.110817 -0.97353,-0.008 -1.41584,0.500654 -0.3061,0.352052 -0.6764,0.640095 -0.82288,0.640095 -0.14649,0 -0.26634,0.298822 -0.26634,0.664048 0,0.365226 -0.25817,0.871242 -0.57371,1.124479 -1.38299,1.10991 -2.86587,2.531193 -2.86587,2.746823 0,0.12905 0.50601,0.87517 1.12448,1.658069 1.88732,2.38909 2.87758,4.18067 2.70428,4.89257 -0.11993,0.49264 0.0684,0.86328 0.84015,1.65365 0.5471,0.56028 1.12524,1.01869 1.28476,1.01869 0.15951,0 0.44334,0.42398 0.63072,0.94218 0.18738,0.51819 0.61886,1.06891 0.95884,1.22382 0.33998,0.15491 0.6839,0.54362 0.76427,0.86382 0.0804,0.32019 1.11947,1.70424 2.30913,3.07566 3.29528,3.79873 4.7977,5.76585 5.84502,7.65286 1.1688,2.10588 4.36177,6.59375 6.193,8.70457 1.85832,2.14205 2.21618,2.89999 2.21618,4.69381 0,0.92557 -0.10647,1.68287 -0.23659,1.68287 -0.41026,0 -2.84336,-2.47011 -3.45652,-3.50908 -0.64904,-1.09979 -1.85309,-1.98974 -1.46896,-1.08577 0.1154,0.27159 0.26603,0.82123 0.33473,1.22141 0.0687,0.40018 0.23567,0.7276 0.37105,0.7276 0.13539,0 0.22683,0.14883 0.20321,0.33073 -0.0984,0.758 0.0911,1.08234 1.55019,2.65251 2.00799,2.16088 3.59697,4.33334 4.01068,5.48343 0.54302,1.50955 0.89523,2.1965 1.62789,3.175 1.4466,1.93198 2.87238,4.9577 3.05056,6.47376 0.20441,1.73923 -0.23197,2.90016 -1.01333,2.69583 -0.43268,-0.11315 -0.42616,-0.0546 0.0717,0.64464 0.3012,0.42301 0.68837,0.77876 0.86036,0.79057 0.17199,0.0118 0.78896,0.0416 1.37104,0.0661 1.0054,0.0425 1.0943,0.11747 1.77741,1.49989 0.77408,1.56652 1.46105,3.8612 1.22624,4.09601 -0.2119,0.2119 -2.07761,-0.61836 -2.07761,-0.92456 0,-0.14357 -0.19504,-0.26103 -0.43343,-0.26103 -0.23839,0 -0.9749,-0.49912 -1.63671,-1.10914 -0.6618,-0.61003 -1.24342,-0.98872 -1.29248,-0.84153 -0.0491,0.14719 0.2112,1.06575 0.57838,2.04123 0.70144,1.86357 0.86358,3.46124 0.38149,3.75918 -0.15734,0.0973 -0.60383,-0.11452 -0.99218,-0.47059 -0.38836,-0.35608 -1.13146,-0.84089 -1.65133,-1.07736 -0.51987,-0.23648 -1.08286,-0.73206 -1.25109,-1.10129 -0.40563,-0.89024 -0.77745,-0.84028 -2.01059,0.27019 -0.97443,0.8775 -1.01179,0.96679 -0.67094,1.60368 0.19852,0.37095 0.69264,0.91064 1.09804,1.19931 0.4054,0.28867 0.73709,0.63898 0.73709,0.77847 0,0.13949 0.65485,1.04752 1.45521,2.01784 1.52148,1.84456 1.82756,2.87494 1.04657,3.5231 -0.27999,0.23237 -0.35666,0.57576 -0.24356,1.09073 0.10181,0.46351 0.0556,0.75159 -0.12053,0.75159 -0.15708,0 -0.2856,-0.17859 -0.2856,-0.39687 0,-0.21828 -0.22427,-0.39688 -0.49838,-0.39688 -0.49028,0 -2.41204,-1.88362 -2.41204,-2.36418 0,-0.28371 -0.95586,-0.66233 -1.69642,-0.67195 -0.27819,-0.004 -0.55601,-0.1554 -0.61736,-0.3373 -0.0614,-0.1819 0.0732,-0.33073 0.29905,-0.33073 0.51082,0 0.31812,-0.59497 -0.57956,-1.78945 -1.26189,-1.6791 -2.82824,-1.37107 -2.52945,0.49742 0.18158,1.13559 -0.26713,1.45779 -0.53635,0.38513 -0.15165,-0.60419 -0.24486,-0.63369 -1.57031,-0.49689 -1.2122,0.12511 -1.56338,0.048 -2.5133,-0.55163 -0.60732,-0.38338 -1.10421,-0.5765 -1.10421,-0.42915 0,0.14735 -0.18662,0.2679 -0.41471,0.2679 -0.3008,0 -0.3663,-0.15251 -0.23846,-0.55529 0.1553,-0.48932 0.10242,-0.53015 -0.44519,-0.34373 -0.34179,0.11635 -0.88933,0.2174 -1.21675,0.22456 -0.43712,0.01 -0.59531,0.1712 -0.59531,0.60832 0,0.35277 0.16169,0.59531 0.39687,0.59531 0.21828,0 0.39688,0.21431 0.39688,0.47625 0,0.26194 0.14089,0.61714 0.31309,0.78934 0.1722,0.1722 0.23246,0.39372 0.13391,0.49226 -0.25459,0.2546 -1.24075,-0.69872 -1.24075,-1.19942 0,-0.22984 -0.21618,-0.003 -0.48039,0.50403 -0.3054,0.58609 -0.88032,1.11068 -1.57826,1.44012 -0.95891,0.45261 -1.76116,1.49723 -1.77475,2.31092 -0.002,0.10081 -0.2875,0.44828 -0.63514,0.77216 -0.699,0.65122 -3.27894,1.02126 -3.59173,0.51517 -0.0952,-0.154 -0.40414,-0.28 -0.6866,-0.28 -0.28245,0 -0.51355,-0.11906 -0.51355,-0.26458 0,-0.14552 -0.33942,-0.26459 -0.75427,-0.26459 -1.42988,0 -2.40326,-0.53742 -3.08723,-1.70453 -0.79476,-1.35615 -0.82255,-1.73505 -0.12725,-1.73505 0.42838,0 0.52917,-0.17639 0.52917,-0.92604 0,-0.63343 -0.12147,-0.92604 -0.38443,-0.92604 -0.6276,0 -1.69174,-0.57117 -1.85454,-0.99542 -0.0833,-0.21701 -0.017,-0.55656 0.14734,-0.75454 0.16431,-0.19798 0.21949,-0.56651 0.12262,-0.81895 -0.14051,-0.36616 -0.22076,-0.38674 -0.39689,-0.10176 -0.33219,0.53748 -0.75676,0.12863 -1.1178,-1.07641 l -0.32329,-1.07903 -0.34999,1.01094 c -0.30265,0.87417 -0.29569,1.04133 0.0514,1.23557 0.54779,0.30657 0.50383,0.79052 -0.14697,1.61787 -0.74632,0.9488 -1.43526,0.87588 -2.5121,-0.26591 -1.01408,-1.07523 -1.26346,-2.27265 -0.7362,-3.53486 0.38417,-0.91968 0.0195,-2.2361 -0.98981,-3.5729 -0.56889,-0.75349 -1.03435,-1.56049 -1.03435,-1.79334 0,-0.54085 -0.44542,-0.82767 -0.60579,-0.3901 -0.097,0.26463 -0.19552,0.26272 -0.48341,-0.009 -0.30561,-0.28884 -0.30452,-0.37701 0.007,-0.56958 0.30577,-0.18898 0.27155,-0.4141 -0.20065,-1.32004 -0.31311,-0.60072 -0.56929,-1.24379 -0.56929,-1.42904 0,-0.18526 -0.41672,-0.74073 -0.92605,-1.23438 -0.50932,-0.49366 -0.92604,-1.02498 -0.92604,-1.18071 0,-0.25143 -1.26092,-1.11768 -3.80333,-2.61287 -0.45478,-0.26746 -1.27999,-0.9223 -1.83379,-1.45521 -0.5538,-0.53291 -1.26818,-0.96892 -1.5875,-0.96892 -0.33969,0 -0.58059,-0.16467 -0.58059,-0.39687 0,-0.21829 0.15768,-0.36416 0.3504,-0.32418 0.19272,0.04 0.27499,-0.0493 0.18282,-0.19844 -0.0922,-0.14912 -0.39867,-0.27113 -0.68112,-0.27113 -0.33716,0 -0.51355,-0.18176 -0.51355,-0.52917 0,-0.2978 -0.17639,-0.52917 -0.40343,-0.52917 -0.22188,0 -0.51741,-0.29981 -0.65673,-0.66625 -0.29709,-0.7814 -2.64319,-4.26504 -2.64575,-3.92857 -9.6e-4,0.12606 -0.20932,-0.0799 -0.46302,-0.45769 -0.97142,-1.44652 -3.97814,-4.51098 -4.15122,-4.23093 -0.24814,0.4015 -1.47316,0.34235 -2.26319,-0.10927 -0.86825,-0.49633 -1.969322,-0.49633 -2.381246,0 -0.181157,0.21829 -0.489636,0.39688 -0.685509,0.39688 -0.350322,0 -1.116224,0.96224 -3.685456,4.63021 l -1.297293,1.85208 1.312775,-1.17978 c 0.722026,-0.64888 1.570266,-1.52112 1.884977,-1.93831 0.314711,-0.41719 0.790961,-0.9243 1.058333,-1.12691 0.316181,-0.23959 0.364076,-0.37132 0.137001,-0.37679 -0.459581,-0.0111 -0.296673,-1.11913 0.188034,-1.27896 0.281641,-0.0929 0.327477,0.0576 0.195198,0.64073 l -0.172872,0.7621 0.631359,-0.75628 c 0.358436,-0.42936 0.703328,-0.63983 0.797847,-0.4869 0.276756,0.4478 -0.120507,1.10601 -0.765199,1.26781 -0.429777,0.10787 -0.655218,0.40927 -0.772086,1.03223 -0.170737,0.91011 -2.241629,4.24729 -2.997336,4.83012 -0.235856,0.1819 -0.6816,0.33073 -0.990543,0.33073 -0.356445,0 -0.884847,0.43127 -1.445959,1.18014 -0.486334,0.64908 -1.628868,1.83796 -2.538964,2.64194 -1.262759,1.11553 -1.6217,1.58806 -1.515321,1.99486 0.104752,0.40057 0.0104,0.53306 -0.379619,0.53306 -0.28546,0 -0.734519,0.23813 -0.997908,0.52917 -0.417579,0.46142 -1.190625,0.73334 -1.190625,0.41881 0,-0.0607 0.239588,-0.66929 0.532418,-1.35244 l 0.532418,-1.24208 -1.520567,1.38971 c -0.836312,0.76435 -1.534016,1.52177 -1.550452,1.68317 -0.07246,0.71156 -0.130797,0.80341 -0.3206,0.50481 -0.140766,-0.22145 -0.658917,0.0593 -1.708995,0.92605 -0.82884,0.68411 -2.071654,1.60103 -2.761809,2.03759 -0.901181,0.57005 -1.465605,1.20001 -2.002723,2.23524 -0.411342,0.79282 -1.159546,1.92391 -1.662675,2.51354 -0.683497,0.80101 -0.814352,1.09369 -0.517564,1.1576 0.617824,0.13306 0.467979,0.54807 -0.264242,0.73185 -0.363802,0.0913 -0.661459,0.3317 -0.661459,0.53421 0,0.2025 -0.18562,0.36819 -0.412489,0.36819 -0.244732,0 -0.343,-0.13451 -0.241624,-0.33073 0.09398,-0.1819 -0.07494,-0.0331 -0.375377,0.33073 -0.300434,0.3638 -0.54889,0.90417 -0.552126,1.20082 -0.0032,0.29666 -0.229126,0.97725 -0.501977,1.51243 -0.272852,0.53518 -0.500013,1.24497 -0.504802,1.5773 -0.02198,1.5254 -1.428719,3.51742 -2.352856,3.33178 -0.272865,-0.0548 -0.692339,0.16514 -0.964931,0.50598 -0.661496,0.82709 -1.502151,0.8017 -1.502151,-0.0454 0,-0.35657 0.20836,-0.76967 0.463021,-0.918 0.254662,-0.14833 0.334947,-0.2733 0.178412,-0.27773 -0.156534,-0.004 -0.559369,0.28442 -0.895188,0.64189 -0.335819,0.35746 -1.100714,0.98001 -1.699767,1.38344 -1.921807,1.29425 -3.338144,2.51831 -3.338144,2.88498 0,0.19619 -0.162379,0.29439 -0.360841,0.21824 -0.210573,-0.0808 -1.477313,0.89548 -3.041844,2.34438 -1.474551,1.36556 -3.008813,2.64687 -3.409471,2.84734 -0.400658,0.20047 -0.928296,0.52918 -1.172529,0.73047 -0.646377,0.53274 -1.540315,0.1676 -1.540315,-0.62916 0,-0.35597 0.105171,-0.85397 0.233714,-1.10665 0.128543,-0.25269 0.384305,-0.78222 0.56836,-1.17673 0.184054,-0.39451 1.136716,-1.61551 2.117026,-2.71332 2.244077,-2.51305 2.634814,-3.55357 0.698305,-1.85956 -0.747647,0.65402 -1.510231,1.18913 -1.694631,1.18913 -0.184401,0 -0.335274,0.11938 -0.335274,0.26528 0,0.1459 -0.471382,0.69113 -1.047516,1.21164 -0.891689,0.80558 -1.024525,1.06131 -0.892968,1.7191 0.11732,0.5866 0.05629,0.77273 -0.253353,0.77273 -0.224344,0 -0.455005,-0.14131 -0.51258,-0.31404 -0.05866,-0.17598 -0.330067,0.0126 -0.617361,0.42905 -0.281974,0.4087 -0.780571,1.03169 -1.107993,1.38441 -0.332641,0.35834 -0.595312,0.97934 -0.595312,1.40741 0,0.82128 -0.200131,1.06109 -0.727604,0.87188 z m 93.26562,-11.10484 c -0.25466,-0.0666 -0.46302,-0.20858 -0.46302,-0.31561 0,-0.10704 -0.17696,-0.42573 -0.39324,-0.70821 -0.35977,-0.46987 -0.36882,-0.44039 -0.10641,0.34631 0.21137,0.63365 0.43665,0.85182 0.85626,0.8292 0.44733,-0.0241 0.47015,-0.0566 0.10641,-0.15169 z m -1.65364,-1.93428 c -0.0899,-0.14552 -0.30533,-0.26276 -0.47864,-0.26053 -0.18934,0.002 -0.1567,0.10642 0.0818,0.26053 0.5083,0.32848 0.59989,0.32848 0.39688,0 z m 15.46971,-3.37344 c -0.0163,-0.38381 -0.78194,-1.21607 -0.95737,-1.04064 -0.0976,0.0976 0.0387,0.41636 0.30286,0.70829 0.51514,0.56923 0.66784,0.64677 0.65451,0.33235 z M 41.043457,151.79039 c 0.341775,-0.3638 0.511357,-0.65772 0.37685,-0.65314 -0.226232,0.008 -1.316596,1.3146 -1.09678,1.3146 0.05419,0 0.378156,-0.29766 0.71993,-0.66146 z M 63.53304,125.00177 c 0,-0.96435 0.0037,-0.96937 4.769026,-6.54888 1.24287,-1.45521 2.663182,-3.18161 3.15625,-3.83646 0.493067,-0.65484 1.346735,-1.66687 1.897039,-2.24896 0.955127,-1.01028 1.993479,-2.95677 1.722069,-3.22818 -0.07055,-0.0706 -0.315351,0.23347 -0.54399,0.67561 -0.568011,1.09841 -4.032661,5.40766 -7.05133,8.77028 -3.639464,4.05415 -5.990871,6.92135 -8.361756,10.19596 -4.122537,5.69395 -4.093771,5.8243 0.295221,1.3378 3.696485,-3.7786 4.117471,-4.3018 4.117471,-5.11717 z m 83.87292,-2.15086 c 0,-0.1277 -0.1786,-0.3804 -0.39688,-0.56156 -0.21828,-0.18116 -0.39687,-0.44528 -0.39687,-0.58693 0,-0.35203 -2.82886,-4.6231 -3.22361,-4.86707 -0.17437,-0.10777 -0.0378,0.27162 0.30354,0.84309 0.34132,0.57147 0.85986,1.45575 1.15233,1.96508 1.64162,2.85888 2.56149,4.01069 2.56149,3.20739 z M 111.32079,69.188689 c 0.49257,-0.53776 0.89558,-1.118494 0.89558,-1.290519 0,-0.172026 0.18557,-0.466778 0.41237,-0.655005 0.69307,-0.575198 2.77501,-3.42673 2.5019,-3.42673 -0.14093,0 -0.45127,0.297657 -0.68964,0.661459 -0.23837,0.363802 -0.58716,0.661458 -0.77508,0.661458 -0.21923,0 -0.28843,0.20361 -0.1931,0.568154 0.12833,0.490716 0.0618,0.54711 -0.48779,0.41376 -0.43207,-0.104828 -0.86565,0.0313 -1.35059,0.424034 -0.72176,0.584533 -2.59307,3.053935 -2.59307,3.421852 0,0.109606 0.31137,0.199283 0.69192,0.199283 0.45978,0 0.99239,-0.328034 1.5875,-0.977746 z M 91.578873,66.076304 c 0,-0.06676 -0.714375,-0.974313 -1.5875,-2.016785 -0.873125,-1.042472 -1.5875,-2.02229 -1.5875,-2.177372 0,-0.381408 -3.024056,-3.273524 -3.623171,-3.465092 -0.262829,-0.08404 -1.84709,-1.466621 -3.520579,-3.072401 -3.565891,-3.421617 -5.021819,-4.551469 -5.999319,-4.655688 -0.620773,-0.06618 -0.405714,0.234166 1.688832,2.358626 1.320104,1.338958 2.53735,2.703873 2.704989,3.033145 0.235358,0.462281 0.409884,0.542436 0.766049,0.351823 0.370015,-0.198026 0.587045,-0.05477 1.09723,0.72424 0.99443,1.518417 2.390993,2.914541 3.971643,3.970395 0.798215,0.533197 2.431305,1.892183 3.629089,3.01997 2.018235,1.900291 2.460237,2.246876 2.460237,1.929139 z m 29.236457,-8.345285 c 0.26339,-0.291042 0.41936,-0.529167 0.3466,-0.529167 -0.0728,0 -0.34779,0.238125 -0.61118,0.529167 -0.26339,0.291042 -0.41936,0.529167 -0.3466,0.529167 0.0728,0 0.34779,-0.238125 0.61118,-0.529167 z m 3.79893,-4.753322 c 2.71667,-3.591572 4.07566,-5.584242 3.91677,-5.743127 -0.16728,-0.167288 -3.33014,3.794984 -3.60373,4.514584 -0.128,0.336675 -1.0305,1.671497 -2.00555,2.966271 -0.97504,1.294775 -1.51251,2.120141 -1.19437,1.834147 0.31814,-0.285994 1.61723,-1.893338 2.88688,-3.571875 z M 37.154514,49.805539 c -0.07438,-0.28443 -0.539197,-0.969039 -1.032926,-1.521354 l -0.897689,-1.004207 0.963338,1.521354 c 0.529836,0.836744 0.994653,1.521354 1.032926,1.521354 0.03827,0 0.0087,-0.232716 -0.06565,-0.517147 z m 97.683736,-6.097436 c 0.0924,-0.291042 0.26142,-0.529167 0.37567,-0.529167 0.21505,0 2.42276,-2.738917 2.77249,-3.439583 0.10895,-0.218281 -0.70364,0.534872 -1.80576,1.673673 -1.10212,1.138802 -2.00386,2.24013 -2.00386,2.447396 0,0.562699 0.46878,0.454749 0.66146,-0.152319 z m 30.92894,-1.695533 c -0.25097,-0.654029 -0.57836,-0.248553 -0.42922,0.531603 0.10631,0.55616 0.18098,0.616759 0.36181,0.293637 0.12532,-0.22393 0.15565,-0.595289 0.0674,-0.82524 z M 43.482257,27.324912 c -0.04111,-0.185425 -0.149855,-0.891079 -0.24166,-1.568119 -0.268635,-1.981127 -0.774438,-2.950773 -1.539232,-2.950773 -0.379281,0 -0.657908,-0.152848 -0.657908,-0.360912 0,-0.229055 -0.450781,-0.422698 -1.233858,-0.530031 -1.418192,-0.194384 -1.318286,-0.235922 -1.537993,0.63946 -0.152256,0.606636 -0.01075,0.76413 1.425833,1.586957 1.519193,0.870142 1.910806,1.358176 1.362007,1.697353 -0.137114,0.08474 0.0112,0.549548 0.330729,1.036489 0.462783,0.705249 0.739,0.873179 1.373074,0.834781 0.488267,-0.02957 0.764985,-0.177818 0.719008,-0.385205 z M 145.81846,174.67685 c -0.31256,-0.19317 -0.32557,-0.30943 -0.0639,-0.57107 0.25551,-0.25551 0.39907,-0.25796 0.64602,-0.011 0.20247,0.20247 0.22563,0.40937 0.0639,0.57107 -0.15558,0.15558 -0.40522,0.15984 -0.64601,0.011 z m -79.639587,-2.7469 c 0,-0.21828 0.119063,-0.47046 0.264584,-0.56039 0.145521,-0.0899 0.264583,0.0151 0.264583,0.23335 0,0.21828 -0.119062,0.47046 -0.264583,0.5604 -0.145521,0.0899 -0.264584,-0.0151 -0.264584,-0.23336 z m 79.374997,-0.29581 c 0,-0.21828 0.11906,-0.39688 0.26459,-0.39688 0.14552,0 0.26458,0.1786 0.26458,0.39688 0,0.21828 -0.11906,0.39687 -0.26458,0.39687 -0.14553,0 -0.26459,-0.17859 -0.26459,-0.39687 z m -14.14391,-0.64318 c -0.18073,-0.29242 0.23665,-0.60818 0.48097,-0.36386 0.25156,0.25156 0.20467,0.61016 -0.0798,0.61016 -0.13693,0 -0.31746,-0.11083 -0.40119,-0.2463 z M 44.747624,169.1206 c 0,-0.14552 0.119063,-0.26459 0.264583,-0.26459 0.145521,0 0.264584,0.11907 0.264584,0.26459 0,0.14552 -0.119063,0.26458 -0.264584,0.26458 -0.14552,0 -0.264583,-0.11906 -0.264583,-0.26458 z m 85.857286,-0.26459 c -0.2959,-0.47878 0.15199,-0.79873 0.87611,-0.62584 1.01414,0.24212 1.19198,0.38339 0.87795,0.69741 -0.19217,0.19218 -0.4008,0.1732 -0.68451,-0.0623 -0.27697,-0.22986 -0.40809,-0.24326 -0.40809,-0.0417 0,0.36835 -0.44049,0.38992 -0.66146,0.0324 z m -6.52235,-6.72915 c -0.38165,-0.83761 -0.19349,-1.05974 0.70638,-0.83389 0.52296,0.13125 0.67069,0.31522 0.60763,0.75667 -0.12151,0.85058 -0.93974,0.89866 -1.31401,0.0772 z m 0.10936,-1.65562 c 0.246,-0.246 0.52156,-0.37298 0.61236,-0.28218 0.26039,0.2604 -0.13936,0.72945 -0.62168,0.72945 -0.40388,0 -0.40315,-0.0348 0.009,-0.44727 z M 34.164291,154.8331 c 0,-0.29398 0.176389,-0.52917 0.396875,-0.52917 0.445308,0 0.463202,0.0485 0.236276,0.63982 -0.226859,0.59119 -0.633151,0.52018 -0.633151,-0.11065 z m 0,-2.77813 c 0,-0.3638 0.119063,-0.66145 0.264583,-0.66145 0.145521,0 0.264584,0.29765 0.264584,0.66145 0,0.36381 -0.119063,0.66146 -0.264584,0.66146 -0.14552,0 -0.264583,-0.29765 -0.264583,-0.66146 z M 113.4439,148.5641 c -0.29797,-0.29797 -0.18147,-0.61017 0.22768,-0.61017 0.21828,0 0.39688,0.11204 0.39688,0.24897 0,0.33363 -0.41317,0.57258 -0.62456,0.3612 z m 55.81213,-0.31007 c -0.11398,-0.18442 -0.13578,-0.40676 -0.0484,-0.49409 0.23679,-0.23679 0.49497,0.11147 0.36707,0.49515 -0.0896,0.26887 -0.15194,0.26866 -0.31863,-0.001 z M 29.930958,144.51435 c 0,-0.14552 0.178594,-0.26458 0.396875,-0.26458 0.218281,0 0.396875,0.11906 0.396875,0.26458 0,0.14552 -0.178594,0.26458 -0.396875,0.26458 -0.218281,0 -0.396875,-0.11906 -0.396875,-0.26458 z m 127.705552,-7.32014 c -0.30444,-0.30444 -0.19268,-0.61736 0.22049,-0.61736 0.21828,0 0.39687,0.17859 0.39687,0.39687 0,0.41317 -0.31292,0.52493 -0.61736,0.22049 z M 48.345046,124.44735 c -0.09156,-0.14814 -0.03754,-0.34903 0.120032,-0.44642 0.406793,-0.25141 0.669255,0.093 0.329666,0.43255 -0.190019,0.19002 -0.338012,0.19458 -0.449698,0.0139 z m 50.64216,-59.175706 c 0,-0.242535 0.127992,-0.398308 0.284427,-0.346164 0.156435,0.05215 0.284427,0.207919 0.284427,0.346164 0,0.138244 -0.127992,0.294018 -0.284427,0.346163 -0.156435,0.05214 -0.284427,-0.103629 -0.284427,-0.346163 z m 66.939584,-0.926042 c 0,-0.145521 0.11906,-0.264583 0.26458,-0.264583 0.14552,0 0.26458,0.119062 0.26458,0.264583 0,0.145521 -0.11906,0.264583 -0.26458,0.264583 -0.14552,0 -0.26458,-0.119062 -0.26458,-0.264583 z M 98.193456,63.154977 c 0.181157,-0.218281 0.433861,-0.396875 0.561563,-0.396875 0.127703,0 0.232187,0.178594 0.232187,0.396875 0,0.228118 -0.238785,0.396875 -0.561564,0.396875 -0.469168,0 -0.50737,-0.0653 -0.232186,-0.396875 z M 31.128724,41.87852 c -0.236772,-0.746004 0.113937,-1.849965 0.684752,-2.155455 0.427626,-0.228859 0.498732,-0.171281 0.498732,0.403854 0,0.368922 -0.09844,0.670767 -0.21876,0.670767 -0.120317,0 -0.166335,0.357188 -0.102261,0.79375 0.08658,0.589921 0.01145,0.79375 -0.292578,0.79375 -0.224991,0 -0.48144,-0.228 -0.569885,-0.506666 z M 173.4592,40.519816 c -0.25141,-0.406793 0.093,-0.669255 0.43255,-0.329666 0.19002,0.190018 0.19459,0.338012 0.0139,0.449697 -0.14814,0.09156 -0.34903,0.03755 -0.44642,-0.120031 z m -4.25054,-3.467433 c -0.0961,-0.155435 -0.0106,-0.386537 0.18996,-0.51356 0.52445,-0.332183 0.7615,-0.291866 0.7615,0.129514 0,0.468276 -0.71984,0.758828 -0.95146,0.384046 z M 65.385123,33.008093 c 0,-0.22687 0.119063,-0.41249 0.264584,-0.41249 0.145521,0 0.264583,0.112036 0.264583,0.248968 0,0.136933 -0.119062,0.322554 -0.264583,0.41249 -0.145521,0.08994 -0.264584,-0.0221 -0.264584,-0.248968 z M 151.06051,21.831529 c 0.191,-0.07643 0.4192,-0.06703 0.50712,0.02089 0.0879,0.08792 -0.0683,0.150452 -0.34727,0.138964 -0.30822,-0.0127 -0.37091,-0.07539 -0.15985,-0.159853 z"
       id="path1" /></g></svg>
